# This file uses centimeters as units for non-parametric coordinates.

mtllib desk.mtl
g default
v 0.003785 0.000000 0.904482
v 0.191839 0.000000 0.904482
v 0.003785 0.331482 0.904482
v 0.191839 0.331482 0.904482
v 0.003785 0.331482 0.079538
v 0.191839 0.331482 0.079538
v 0.003785 0.000000 0.079538
v 0.191839 0.000000 0.079538
v 0.003785 0.000000 0.993764
v 0.191839 0.000000 0.993764
v 0.191839 0.331482 0.993764
v 0.003785 0.331482 0.993764
v 1.008598 0.000000 0.904482
v 1.008598 0.331482 0.904482
v 1.008598 0.331482 0.993764
v 1.008598 0.000000 0.993764
v 0.003785 0.331482 0.079538
v 0.191839 0.331482 0.079538
v 0.191839 0.000000 0.079538
v 0.003785 0.000000 0.079538
v 0.003785 0.331482 0.079538
v 0.191839 0.331482 0.079538
v 0.191839 0.000000 0.079538
v 0.003785 0.000000 0.079538
v 0.003785 0.331482 0.079538
v 0.191839 0.331482 0.079538
v 0.191839 0.000000 0.079538
v 0.003785 0.000000 0.079538
v 0.003785 0.331482 -0.005233
v 0.191839 0.331482 -0.005233
v 0.191839 0.000000 -0.005233
v 0.003785 0.000000 -0.005233
v 0.990867 0.331482 0.079538
v 0.990867 0.000000 0.079538
v 0.990867 0.000000 -0.005233
v 0.990867 0.331482 -0.005233
v 0.191839 0.331482 0.418538
v 0.191839 0.000000 0.418538
v 0.990867 0.000000 0.418538
v 0.990867 0.331482 0.418538
v 0.003785 0.426455 0.904482
v 0.191839 0.426455 0.904482
v 0.191839 0.426455 0.079538
v 0.003785 0.426455 0.079538
v 0.989677 0.331482 0.904482
v 0.989677 0.331482 0.079538
v 0.989677 0.426455 0.079538
v 0.989677 0.426455 0.904482
v 0.003785 0.423606 0.079538
v 0.191839 0.423606 0.079538
v 0.191839 0.423606 -0.005233
v 0.003785 0.423606 -0.005233
v 0.991966 0.331482 0.079538
v 0.991966 0.331482 -0.005233
v 0.991966 0.423606 -0.005233
v 0.991966 0.423606 0.079538
v 0.003785 0.423360 0.904482
v 0.191839 0.423360 0.904482
v 0.003785 0.423360 0.993764
v 0.191839 0.423360 0.993764
v 0.990052 0.331482 0.904482
v 0.990052 0.331482 0.993764
v 0.990052 0.423360 0.904482
v 0.990052 0.423360 0.993764
vt 0.375000 0.000000
vt 0.625000 0.000000
vt 0.625000 0.250000
vt 0.375000 0.250000
vt 0.375000 0.250000
vt 0.625000 0.250000
vt 0.625000 0.500000
vt 0.375000 0.500000
vt 0.375000 0.500000
vt 0.625000 0.500000
vt 0.625000 0.750000
vt 0.375000 0.750000
vt 0.375000 0.750000
vt 0.625000 0.750000
vt 0.625000 1.000000
vt 0.375000 1.000000
vt 0.625000 0.000000
vt 0.875000 0.000000
vt 0.875000 0.250000
vt 0.625000 0.250000
vt 0.125000 0.000000
vt 0.375000 0.000000
vt 0.375000 0.250000
vt 0.125000 0.250000
vt 0.625000 0.000000
vt 0.625000 0.250000
vt 0.625000 0.250000
vt 0.625000 0.000000
vt 0.625000 0.250000
vt 0.375000 0.250000
vt 0.375000 0.250000
vt 0.625000 0.250000
vt 0.375000 0.500000
vt 0.625000 0.500000
vt 0.625000 0.500000
vt 0.375000 0.500000
vt 0.625000 0.750000
vt 0.375000 0.750000
vt 0.625000 0.500000
vt 0.375000 0.500000
vt 0.625000 0.750000
vt 0.375000 0.750000
vt 0.625000 0.500000
vt 0.375000 0.500000
vt 0.625000 0.750000
vt 0.375000 0.750000
vt 0.375000 0.500000
vt 0.625000 0.500000
vt 0.625000 0.500000
vt 0.375000 0.500000
vt 0.625000 0.500000
vt 0.625000 0.750000
vt 0.625000 0.750000
vt 0.625000 0.500000
vt 0.625000 0.500000
vt 0.625000 0.750000
vt 0.625000 0.750000
vt 0.625000 0.500000
vt 0.625000 0.250000
vt 0.625000 0.500000
vt 0.625000 0.500000
vt 0.625000 0.250000
vt 0.625000 0.500000
vt 0.625000 0.500000
vt 0.625000 0.500000
vt 0.625000 0.500000
vt 0.625000 0.250000
vt 0.625000 0.250000
vt 0.625000 0.250000
vt 0.625000 0.250000
vn 0.000000 0.000000 1.000000
vn 0.000000 0.000000 1.000000
vn 0.000000 0.000000 1.000000
vn 0.000000 0.000000 1.000000
vn 0.000000 1.000000 0.000000
vn 0.000000 1.000000 0.000000
vn 0.000000 1.000000 0.000000
vn 0.000000 1.000000 0.000000
vn 0.000000 0.000000 -1.000000
vn 0.000000 0.000000 -1.000000
vn 0.000000 0.000000 -1.000000
vn 0.000000 0.000000 -1.000000
vn 0.000000 -1.000000 0.000000
vn 0.000000 -1.000000 0.000000
vn 0.000000 -1.000000 0.000000
vn 0.000000 -1.000000 0.000000
vn 1.000000 0.000000 0.000000
vn 1.000000 0.000000 0.000000
vn 1.000000 0.000000 0.000000
vn 1.000000 0.000000 0.000000
vn -1.000000 0.000000 0.000000
vn -1.000000 0.000000 0.000000
vn -1.000000 0.000000 0.000000
vn -1.000000 0.000000 0.000000
vn 0.000000 -1.000000 0.000000
vn 0.000000 -1.000000 0.000000
vn 0.000000 -1.000000 0.000000
vn 0.000000 -1.000000 0.000000
vn 1.000000 0.000000 0.000000
vn 1.000000 0.000000 0.000000
vn 1.000000 0.000000 0.000000
vn 1.000000 0.000000 0.000000
vn 0.000000 1.000000 0.000000
vn 0.000000 1.000000 0.000000
vn 0.000000 1.000000 0.000000
vn 0.000000 1.000000 0.000000
vn -1.000000 0.000000 0.000000
vn -1.000000 0.000000 0.000000
vn -1.000000 0.000000 0.000000
vn -1.000000 0.000000 0.000000
vn 0.000000 0.000000 -1.000000
vn 0.000000 0.000000 -1.000000
vn 0.000000 0.000000 -1.000000
vn 0.000000 0.000000 -1.000000
vn 0.000000 1.000000 0.000000
vn 0.000000 1.000000 0.000000
vn 0.000000 1.000000 0.000000
vn 0.000000 1.000000 0.000000
vn 0.000000 0.000000 1.000000
vn 0.000000 0.000000 1.000000
vn 0.000000 0.000000 1.000000
vn 0.000000 0.000000 1.000000
vn 0.000000 -1.000000 0.000000
vn 0.000000 -1.000000 0.000000
vn 0.000000 -1.000000 0.000000
vn 0.000000 -1.000000 0.000000
vn 0.000000 0.000000 0.000000
vn 0.000000 0.000000 0.000000
vn 0.000000 0.000000 0.000000
vn 0.000000 0.000000 0.000000
vn 0.000000 0.000000 0.000000
vn 0.000000 0.000000 0.000000
vn 0.000000 0.000000 0.000000
vn 0.000000 0.000000 0.000000
vn 0.000000 0.000000 0.000000
vn 0.000000 0.000000 0.000000
vn 0.000000 0.000000 0.000000
vn 0.000000 0.000000 0.000000
vn 0.000000 0.000000 0.000000
vn 0.000000 0.000000 0.000000
vn 0.000000 0.000000 0.000000
vn 0.000000 0.000000 0.000000
vn 0.000000 0.000000 0.000000
vn 0.000000 0.000000 0.000000
vn 0.000000 0.000000 0.000000
vn 0.000000 0.000000 0.000000
vn 0.000000 0.000000 0.000000
vn 0.000000 0.000000 0.000000
vn 0.000000 0.000000 0.000000
vn 0.000000 0.000000 0.000000
vn 0.000000 0.000000 0.000000
vn 0.000000 0.000000 0.000000
vn 0.000000 0.000000 0.000000
vn 0.000000 0.000000 0.000000
vn 0.000000 0.000000 0.000000
vn 0.000000 0.000000 0.000000
vn 0.000000 0.000000 0.000000
vn 0.000000 0.000000 0.000000
vn 0.000000 0.000000 0.000000
vn 0.000000 0.000000 0.000000
vn 0.000000 0.000000 0.000000
vn 0.000000 0.000000 0.000000
vn 0.000000 0.000000 0.000000
vn 0.000000 0.000000 0.000000
vn 0.000000 0.000000 0.000000
vn 0.000000 0.000000 0.000000
vn 0.000000 0.000000 0.000000
vn 0.000000 0.000000 0.000000
vn 0.000000 0.000000 0.000000
vn 0.000000 0.000000 0.000000
vn 0.000000 0.000000 0.000000
vn 0.000000 0.000000 0.000000
vn 0.000000 0.000000 0.000000
vn 0.000000 0.000000 0.000000
vn 0.000000 1.000000 0.000000
vn 0.000000 1.000000 0.000000
vn 0.000000 1.000000 0.000000
vn 0.000000 1.000000 0.000000
vn 1.000000 0.000000 0.000000
vn 1.000000 0.000000 0.000000
vn 1.000000 0.000000 0.000000
vn 1.000000 0.000000 0.000000
vn 0.000000 -1.000000 0.000000
vn 0.000000 -1.000000 0.000000
vn 0.000000 -1.000000 0.000000
vn 0.000000 -1.000000 0.000000
vn -1.000000 0.000000 0.000000
vn -1.000000 0.000000 0.000000
vn -1.000000 0.000000 0.000000
vn -1.000000 0.000000 0.000000
vn 0.000000 0.000000 1.000000
vn 0.000000 0.000000 1.000000
vn 0.000000 0.000000 1.000000
vn 0.000000 0.000000 1.000000
vn 0.000000 -1.000000 0.000000
vn 0.000000 -1.000000 0.000000
vn 0.000000 -1.000000 0.000000
vn 0.000000 -1.000000 0.000000
vn 0.000000 0.000000 -1.000000
vn 0.000000 0.000000 -1.000000
vn 0.000000 0.000000 -1.000000
vn 0.000000 0.000000 -1.000000
vn 0.000000 1.000000 0.000000
vn 0.000000 1.000000 0.000000
vn 0.000000 1.000000 0.000000
vn 0.000000 1.000000 0.000000
vn -1.000000 0.000000 0.000000
vn -1.000000 0.000000 0.000000
vn -1.000000 0.000000 0.000000
vn -1.000000 0.000000 0.000000
vn 0.000000 -1.000000 0.000000
vn 0.000000 -1.000000 0.000000
vn 0.000000 -1.000000 0.000000
vn 0.000000 -1.000000 0.000000
vn 1.000000 0.000000 0.000000
vn 1.000000 0.000000 0.000000
vn 1.000000 0.000000 0.000000
vn 1.000000 0.000000 0.000000
vn 0.000000 1.000000 0.000000
vn 0.000000 1.000000 0.000000
vn 0.000000 1.000000 0.000000
vn 0.000000 1.000000 0.000000
vn 0.000000 0.000000 1.000000
vn 0.000000 0.000000 1.000000
vn 0.000000 0.000000 1.000000
vn 0.000000 0.000000 1.000000
vn 1.000000 0.000000 0.000000
vn 1.000000 0.000000 0.000000
vn 1.000000 0.000000 0.000000
vn 1.000000 0.000000 0.000000
vn 0.000000 0.000000 -1.000000
vn 0.000000 0.000000 -1.000000
vn 0.000000 0.000000 -1.000000
vn 0.000000 0.000000 -1.000000
vn -1.000000 0.000000 0.000000
vn -1.000000 0.000000 0.000000
vn -1.000000 0.000000 0.000000
vn -1.000000 0.000000 0.000000
vn 0.000000 -1.000000 0.000000
vn 0.000000 -1.000000 0.000000
vn 0.000000 -1.000000 0.000000
vn 0.000000 -1.000000 0.000000
vn 0.000000 0.000000 -1.000000
vn 0.000000 0.000000 -1.000000
vn 0.000000 0.000000 -1.000000
vn 0.000000 0.000000 -1.000000
vn 0.000000 1.000000 0.000000
vn 0.000000 1.000000 0.000000
vn 0.000000 1.000000 0.000000
vn 0.000000 1.000000 0.000000
vn 0.000000 0.000000 1.000000
vn 0.000000 0.000000 1.000000
vn 0.000000 0.000000 1.000000
vn 0.000000 0.000000 1.000000
vn 0.000000 0.000000 1.000000
vn 0.000000 0.000000 1.000000
vn 0.000000 0.000000 1.000000
vn 0.000000 0.000000 1.000000
vn 1.000000 0.000000 0.000000
vn 1.000000 0.000000 0.000000
vn 1.000000 0.000000 0.000000
vn 1.000000 0.000000 0.000000
vn 0.000000 0.000000 -1.000000
vn 0.000000 0.000000 -1.000000
vn 0.000000 0.000000 -1.000000
vn 0.000000 0.000000 -1.000000
vn -1.000000 0.000000 0.000000
vn -1.000000 0.000000 0.000000
vn -1.000000 0.000000 0.000000
vn -1.000000 0.000000 0.000000
vn 0.000000 -1.000000 0.000000
vn 0.000000 -1.000000 0.000000
vn 0.000000 -1.000000 0.000000
vn 0.000000 -1.000000 0.000000
vn 0.000000 0.000000 -1.000000
vn 0.000000 0.000000 -1.000000
vn 0.000000 0.000000 -1.000000
vn 0.000000 0.000000 -1.000000
vn 0.000000 1.000000 0.000000
vn 0.000000 1.000000 0.000000
vn 0.000000 1.000000 0.000000
vn 0.000000 1.000000 0.000000
vn 0.000000 0.000000 1.000000
vn 0.000000 0.000000 1.000000
vn 0.000000 0.000000 1.000000
vn 0.000000 0.000000 1.000000
vn 0.000000 0.000000 -1.000000
vn 0.000000 0.000000 -1.000000
vn 0.000000 0.000000 -1.000000
vn 0.000000 0.000000 -1.000000
vn -1.000000 0.000000 0.000000
vn -1.000000 0.000000 0.000000
vn -1.000000 0.000000 0.000000
vn -1.000000 0.000000 0.000000
vn 0.000000 0.000000 1.000000
vn 0.000000 0.000000 1.000000
vn 0.000000 0.000000 1.000000
vn 0.000000 0.000000 1.000000
vn 1.000000 0.000000 0.000000
vn 1.000000 0.000000 0.000000
vn 1.000000 0.000000 0.000000
vn 1.000000 0.000000 0.000000
vn 0.000000 -1.000000 0.000000
vn 0.000000 -1.000000 0.000000
vn 0.000000 -1.000000 0.000000
vn 0.000000 -1.000000 0.000000
vn 0.000000 0.000000 -1.000000
vn 0.000000 0.000000 -1.000000
vn 0.000000 0.000000 -1.000000
vn 0.000000 0.000000 -1.000000
vn 0.000000 1.000000 0.000000
vn 0.000000 1.000000 0.000000
vn 0.000000 1.000000 0.000000
vn 0.000000 1.000000 0.000000
vn 0.000000 0.000000 1.000000
vn 0.000000 0.000000 1.000000
vn 0.000000 0.000000 1.000000
vn 0.000000 0.000000 1.000000
s off
g desk:pCube1
usemtl initialShadingGroup
f 9/1/1 10/2/2 11/3/3 12/4/4
f 41/5/5 42/6/6 43/7/7 44/8/8
f 29/9/9 30/10/10 31/11/11 32/12/12
f 7/13/13 8/14/14 2/15/15 1/16/16
f 2/17/17 8/18/18 6/19/19 4/20/20
f 7/21/21 1/22/22 3/23/23 5/24/24
f 1/22/25 2/17/26 10/2/27 9/1/28
f 13/25/29 14/26/30 15/27/31 16/28/32
f 58/29/33 57/30/34 59/31/35 60/32/36
f 3/23/37 1/22/38 9/1/39 12/4/40
f 2/17/41 4/20/42 14/26/43 13/25/44
f 4/20/45 11/3/46 15/27/47 14/26/48
f 11/3/49 10/2/50 16/28/51 15/27/52
f 10/2/53 2/17/54 13/25/55 16/28/56
f 5/33/57 6/34/58 18/35/59 17/36/60
f 6/34/61 8/14/62 19/37/63 18/35/64
f 8/14/65 7/13/66 20/38/67 19/37/68
f 7/13/69 5/33/70 17/36/71 20/38/72
f 17/36/73 18/35/74 22/39/75 21/40/76
f 18/35/77 19/37/78 23/41/79 22/39/80
f 19/37/81 20/38/82 24/42/83 23/41/84
f 20/38/85 17/36/86 21/40/87 24/42/88
f 21/40/89 22/39/90 26/43/91 25/44/92
f 22/39/93 23/41/94 27/45/95 26/43/96
f 23/41/97 24/42/98 28/46/99 27/45/100
f 24/42/101 21/40/102 25/44/103 28/46/104
f 49/47/105 50/48/106 51/49/107 52/50/108
f 33/51/109 34/52/110 35/53/111 36/54/112
f 27/45/113 28/46/114 32/12/115 31/11/116
f 28/46/117 25/44/118 29/9/119 32/12/120
f 37/55/121 38/56/122 39/57/123 40/58/124
f 27/45/125 31/11/126 35/53/127 34/52/128
f 31/11/129 30/10/130 36/54/131 35/53/132
f 30/10/133 26/43/134 33/51/135 36/54/136
f 26/43/137 27/45/138 38/56/139 37/55/140
f 27/45/141 34/52/142 39/57/143 38/56/144
f 34/52/145 33/51/146 40/58/147 39/57/148
f 33/51/149 26/43/150 37/55/151 40/58/152
f 3/23/153 4/20/154 42/6/155 41/5/156
f 45/59/157 46/60/158 47/61/159 48/62/160
f 6/34/161 5/33/162 44/8/163 43/7/164
f 5/33/165 3/23/166 41/5/167 44/8/168
f 4/20/169 6/34/170 46/60/171 45/59/172
f 6/34/173 43/7/174 47/61/175 46/60/176
f 43/7/177 42/6/178 48/62/179 47/61/180
f 42/6/181 4/20/182 45/59/183 48/62/184
f 25/44/185 26/43/186 50/48/187 49/47/188
f 53/63/189 54/64/190 55/65/191 56/66/192
f 30/10/193 29/9/194 52/50/195 51/49/196
f 29/9/197 25/44/198 49/47/199 52/50/200
f 26/43/201 30/10/202 54/64/203 53/63/204
f 30/10/205 51/49/206 55/65/207 54/64/208
f 51/49/209 50/48/210 56/66/211 55/65/212
f 50/48/213 26/43/214 53/63/215 56/66/216
f 4/20/217 3/23/218 57/30/219 58/29/220
f 3/23/221 12/4/222 59/31/223 57/30/224
f 12/4/225 11/3/226 60/32/227 59/31/228
f 62/67/229 61/68/230 63/69/231 64/70/232
f 11/3/233 4/20/234 61/68/235 62/67/236
f 4/20/237 58/29/238 63/69/239 61/68/240
f 58/29/241 60/32/242 64/70/243 63/69/244
f 60/32/245 11/3/246 62/67/247 64/70/248
