# This file uses centimeters as units for non-parametric coordinates.

mtllib food_rice.mtl
g default
v -0.127245 -0.042335 0.127245
v 0.127245 -0.042335 0.127245
v -0.127245 0.014112 0.127245
v -0.107531 0.042335 0.111715
v -0.042415 0.042335 0.119472
v 0.042415 0.042335 0.143517
v 0.127245 0.042335 0.127245
v -0.115757 0.042335 0.042415
v -0.042415 0.005198 0.042415
v 0.036181 0.078532 0.042415
v 0.142951 0.042335 0.042415
v -0.137030 0.042335 -0.042415
v -0.042415 0.090077 -0.042415
v 0.042415 0.057186 -0.019354
v 0.141192 0.042335 -0.042415
v -0.127245 0.042335 -0.131489
v -0.042415 0.029739 -0.138316
v 0.042415 0.042335 -0.135289
v 0.120034 0.042335 -0.127245
v -0.127245 -0.042335 -0.127245
v 0.127245 -0.042335 -0.127245
vt 0.636150 0.001992
vt 0.935945 0.059497
vt 0.991451 0.359293
vt 0.614117 0.359293
vt 0.985237 0.659088
vt 0.636150 0.577589
vt 0.336354 0.086967
vt 0.336354 0.359293
vt 0.910460 0.958884
vt 0.636150 0.987310
vt 0.336354 0.659088
vt 0.106228 0.114383
vt 0.077157 0.359293
vt 0.336354 0.998008
vt 0.001979 0.659088
vt 0.036559 0.973883
vt 0.663792 0.001992
vt 0.663792 0.329710
vt 0.554552 0.329710
vt 0.445313 0.329710
vt 0.361459 0.329710
vt 0.336073 0.220471
vt 0.336073 0.001992
vt 0.706153 0.382161
vt 0.815392 0.333408
vt 0.915345 0.333408
vt 0.924632 0.661126
vt 0.596914 0.661126
vt 0.596914 0.333408
vt 0.263511 0.338874
vt 0.591229 0.338874
vt 0.591229 0.666592
vt 0.263511 0.666592
vt 0.220324 0.998008
vt 0.111085 0.998008
vt 0.001846 0.998008
vt 0.001846 0.670290
vt 0.329564 0.670290
vt 0.329564 0.998008
vt 0.220324 0.001992
vt 0.329564 0.021991
vt 0.329564 0.111231
vt 0.329564 0.220471
vt 0.329564 0.335176
vt 0.001846 0.329710
vt 0.001846 0.001992
vn -0.010303 -0.006527 0.999926
vn -0.010303 -0.006527 0.999926
vn -0.010303 -0.006527 0.999926
vn -0.010303 -0.006527 0.999926
vn -0.010303 -0.006527 0.999926
vn -0.010303 -0.006527 0.999926
vn -0.010303 -0.006527 0.999926
vn 0.263863 0.931291 -0.251143
vn 0.263863 0.931291 -0.251143
vn 0.263863 0.931291 -0.251143
vn 0.263863 0.931291 -0.251143
vn -0.410552 0.911787 0.009549
vn -0.410552 0.911787 0.009549
vn -0.410552 0.911787 0.009549
vn -0.410552 0.911787 0.009549
vn 0.198123 0.960173 0.197015
vn 0.198123 0.960173 0.197015
vn 0.198123 0.960173 0.197015
vn 0.198123 0.960173 0.197015
vn -0.056195 0.890073 0.452341
vn -0.056195 0.890073 0.452341
vn -0.056195 0.890073 0.452341
vn -0.056195 0.890073 0.452341
vn -0.272140 0.887078 0.372870
vn -0.272140 0.887078 0.372870
vn -0.272140 0.887078 0.372870
vn -0.272140 0.887078 0.372870
vn 0.224708 0.965213 -0.133680
vn 0.224708 0.965213 -0.133680
vn 0.224708 0.965213 -0.133680
vn 0.224708 0.965213 -0.133680
vn -0.193989 0.929569 -0.313481
vn -0.193989 0.929569 -0.313481
vn -0.193989 0.929569 -0.313481
vn -0.193989 0.929569 -0.313481
vn 0.161997 0.929951 -0.330074
vn 0.161997 0.929951 -0.330074
vn 0.161997 0.929951 -0.330074
vn 0.161997 0.929951 -0.330074
vn 0.076713 0.993709 -0.081589
vn 0.076713 0.993709 -0.081589
vn 0.076713 0.993709 -0.081589
vn 0.076713 0.993709 -0.081589
vn 0.010053 -0.087518 -0.996112
vn 0.010053 -0.087518 -0.996112
vn 0.010053 -0.087518 -0.996112
vn 0.010053 -0.087518 -0.996112
vn 0.010053 -0.087518 -0.996112
vn 0.010053 -0.087518 -0.996112
vn 0.000000 -1.000000 0.000000
vn 0.000000 -1.000000 0.000000
vn 0.000000 -1.000000 0.000000
vn 0.000000 -1.000000 0.000000
vn 0.994685 -0.102000 -0.014093
vn 0.994685 -0.102000 -0.014093
vn 0.994685 -0.102000 -0.014093
vn 0.994685 -0.102000 -0.014093
vn 0.994685 -0.102000 -0.014093
vn 0.994685 -0.102000 -0.014093
vn -0.999098 0.040442 0.012922
vn -0.999098 0.040442 0.012922
vn -0.999098 0.040442 0.012922
vn -0.999098 0.040442 0.012922
vn -0.999098 0.040442 0.012922
vn -0.999098 0.040442 0.012922
vn -0.999098 0.040442 0.012922
s 1
g pCube1
usemtl lambert2SG
f 2/17/1 7/18/2 1/23/3
f 7/18/2 6/19/4 1/23/3
f 1/23/3 6/19/4 3/22/5
f 6/19/4 5/20/6 3/22/5
f 5/20/6 4/21/7 3/22/5
s 2
f 4/12/8 5/7/9 8/13/10
f 8/13/10 5/7/9 9/8/11
s 3
f 6/1/12 10/4/13 5/7/14
f 5/7/14 10/4/13 9/8/15
s 4
f 7/2/16 11/3/17 6/1/18
f 6/1/18 11/3/17 10/4/19
s 5
f 9/8/20 13/11/21 8/13/22
f 8/13/22 13/11/21 12/15/23
s 6
f 10/4/24 14/6/25 9/8/26
f 9/8/26 14/6/25 13/11/27
s 7
f 10/4/28 11/3/29 14/6/30
f 14/6/30 11/3/29 15/5/31
s 8
f 13/11/32 17/14/33 12/15/34
f 12/15/34 17/14/33 16/16/35
s 9
f 13/11/36 14/6/37 17/14/38
f 17/14/38 14/6/37 18/10/39
s 10
f 14/6/40 15/5/41 18/10/42
f 18/10/42 15/5/41 19/9/43
s 11
f 16/29/44 17/24/45 20/28/46
f 20/28/46 17/24/45 21/27/47
f 17/24/45 18/25/48 21/27/47
f 18/25/48 19/26/49 21/27/47
s 12
f 20/30/50 21/31/51 1/33/52
f 1/33/52 21/31/51 2/32/53
s 13
f 2/37/54 21/38/55 7/36/56
f 7/36/56 21/38/55 11/35/57
f 11/35/57 21/38/55 15/34/58
f 15/34/58 21/38/55 19/39/59
s 14
f 16/44/60 20/45/61 12/43/62
f 20/45/61 1/46/63 12/43/62
f 1/46/63 3/40/64 12/43/62
f 12/43/62 3/40/64 8/42/65
f 3/40/64 4/41/66 8/42/65
