# This file uses centimeters as units for non-parametric coordinates.

mtllib fork.mtl
g default
v -0.138141 -0.039572 0.630058
v -0.091609 -0.039572 0.630058
v -0.045078 -0.039572 0.630058
v 0.001454 -0.039572 0.630058
v -0.138141 0.079302 0.630058
v -0.091609 0.079302 0.630058
v -0.045078 0.079302 0.630058
v 0.001454 0.079302 0.630058
v -0.138141 0.079302 0.464580
v 0.001454 0.079302 0.464580
v -0.138141 0.079302 0.340071
v 0.001454 0.079302 0.340071
v -0.138141 -0.039572 0.340071
v 0.001454 -0.039572 0.340071
v -0.138141 -0.039572 0.403564
v -0.138141 -0.039572 0.464580
v -0.091609 -0.039572 0.464580
v -0.045078 -0.039572 0.464580
v 0.001454 -0.039572 0.464580
v -0.045078 0.079302 0.539986
v -0.091609 0.079302 0.539986
v -0.091609 -0.039572 0.539986
v -0.045078 -0.039572 0.539986
v 0.094516 -0.039572 0.630058
v 0.094516 0.079302 0.630058
v 0.141048 0.079302 0.630058
v 0.141048 -0.039572 0.630058
v 0.047985 0.079302 0.539986
v 0.094516 0.079302 0.539986
v 0.094516 -0.039572 0.539986
v 0.047985 -0.039572 0.539986
v 0.001454 -0.039572 0.630058
v 0.001454 0.079302 0.630058
v 0.047985 0.079302 0.630058
v 0.047985 -0.039572 0.630058
v 0.001454 0.079302 0.464580
v 0.141048 0.079302 0.464580
v 0.001454 0.079302 0.340071
v 0.141048 0.079302 0.340071
v 0.141048 -0.039572 0.340071
v 0.001454 -0.039572 0.340071
v 0.094516 -0.039572 0.464580
v 0.141048 -0.039572 0.464580
v 0.141048 -0.039572 0.403564
v 0.001454 -0.039572 0.464580
v 0.047985 -0.039572 0.464580
v -0.063782 -0.014429 0.347136
v 0.063782 -0.014429 0.347136
v -0.063782 0.045940 0.347136
v 0.063782 0.045940 0.347136
v -0.063782 0.045940 -0.541532
v 0.063782 0.045940 -0.541532
v -0.063782 -0.014429 -0.541532
v 0.063782 -0.014429 -0.541532
vt 0.123144 0.771562
vt 0.123144 0.874010
vt 0.083042 0.874010
vt 0.083042 0.771562
vt 0.077368 0.874010
vt 0.037266 0.874010
vt 0.037266 0.771562
vt 0.077368 0.771562
vt 0.041944 0.877702
vt 0.041944 0.980150
vt 0.001842 0.980150
vt 0.001842 0.877702
vt 0.435511 0.001992
vt 0.475613 0.001992
vt 0.475613 0.144606
vt 0.355307 0.144606
vt 0.355307 0.001992
vt 0.395409 0.001992
vt 0.395409 0.079619
vt 0.435511 0.079619
vt 0.475613 0.251911
vt 0.355307 0.251911
vt 0.346669 0.891868
vt 0.244221 0.891868
vt 0.244221 0.771562
vt 0.346669 0.771562
vt 0.521582 0.109297
vt 0.481479 0.109297
vt 0.481479 0.056711
vt 0.481479 0.001992
vt 0.601786 0.001992
vt 0.601786 0.109297
vt 0.561684 0.109297
vt 0.561684 0.251911
vt 0.561684 0.174284
vt 0.521582 0.174284
vt 0.521582 0.251911
vt 0.481479 0.251911
vt 0.601786 0.251911
vt 0.710101 0.109297
vt 0.607652 0.109297
vt 0.607652 0.001992
vt 0.710101 0.001992
vt 0.710101 0.251911
vt 0.607652 0.251911
vt 0.715801 0.144606
vt 0.818249 0.144606
vt 0.818249 0.251911
vt 0.715801 0.251911
vt 0.715801 0.197191
vt 0.715801 0.001992
vt 0.818249 0.001992
vt 0.126513 0.987639
vt 0.048887 0.987639
vt 0.048887 0.885191
vt 0.126513 0.885191
vt 0.133603 0.885191
vt 0.211229 0.885191
vt 0.211229 0.987639
vt 0.133603 0.987639
vt 0.218319 0.895559
vt 0.258421 0.895559
vt 0.258421 0.998008
vt 0.218319 0.998008
vt 0.265183 0.998008
vt 0.265183 0.895559
vt 0.305285 0.895559
vt 0.305285 0.998008
vt 0.312047 0.895559
vt 0.352149 0.895559
vt 0.352149 0.998008
vt 0.312047 0.998008
vt 0.842794 0.255602
vt 0.842794 0.333229
vt 0.882896 0.333229
vt 0.882896 0.255602
vt 0.922998 0.255602
vt 0.922998 0.398216
vt 0.802692 0.398216
vt 0.802692 0.255602
vt 0.922998 0.505521
vt 0.802692 0.505521
vt 0.454792 0.771562
vt 0.454792 0.891868
vt 0.352344 0.891868
vt 0.352344 0.771562
vt 0.756916 0.362907
vt 0.716814 0.362907
vt 0.676712 0.362907
vt 0.676712 0.255602
vt 0.797018 0.255602
vt 0.797018 0.310322
vt 0.797018 0.362907
vt 0.716814 0.505521
vt 0.676712 0.505521
vt 0.797018 0.505521
vt 0.756916 0.505521
vt 0.756916 0.427895
vt 0.716814 0.427895
vt 0.671037 0.398216
vt 0.671037 0.505521
vt 0.568589 0.505521
vt 0.568589 0.398216
vt 0.568589 0.255602
vt 0.671037 0.255602
vt 0.460466 0.362907
vt 0.460466 0.310322
vt 0.460466 0.255602
vt 0.562915 0.255602
vt 0.562915 0.362907
vt 0.460466 0.505521
vt 0.562915 0.505521
vt 0.358912 0.998008
vt 0.358912 0.895559
vt 0.436538 0.895559
vt 0.436538 0.998008
vt 0.521254 0.895559
vt 0.521254 0.998008
vt 0.443628 0.998008
vt 0.443628 0.895559
vt 0.238547 0.771562
vt 0.238547 0.881499
vt 0.186520 0.881499
vt 0.186520 0.771562
vt 0.001842 0.767870
vt 0.001842 0.001992
vt 0.111780 0.001992
vt 0.111780 0.767870
vt 0.180845 0.771562
vt 0.180845 0.881499
vt 0.128818 0.881499
vt 0.128818 0.771562
vt 0.119183 0.767870
vt 0.119183 0.001992
vt 0.229121 0.001992
vt 0.229121 0.767870
vt 0.236344 0.767870
vt 0.236344 0.001992
vt 0.288371 0.001992
vt 0.288371 0.767870
vt 0.347852 0.001992
vt 0.347852 0.767870
vt 0.295825 0.767870
vt 0.295825 0.001992
vn 0.000001 0.000000 1.000000
vn 0.000001 0.000000 1.000000
vn 0.000001 0.000000 1.000000
vn 0.000001 0.000000 1.000000
vn 0.000000 0.000000 1.000000
vn 0.000000 0.000000 1.000000
vn 0.000000 0.000000 1.000000
vn 0.000000 0.000000 1.000000
vn -0.000001 0.000000 1.000000
vn -0.000001 0.000000 1.000000
vn -0.000001 0.000000 1.000000
vn -0.000001 0.000000 1.000000
vn 0.000000 1.000000 0.000000
vn 0.000000 1.000000 0.000000
vn 0.000000 1.000000 0.000000
vn 0.000000 1.000000 0.000000
vn 0.000000 1.000000 0.000000
vn 0.000000 1.000000 0.000000
vn 0.000000 1.000000 0.000000
vn 0.000000 1.000000 0.000000
vn 0.000000 1.000000 0.000000
vn 0.000000 1.000000 0.000000
vn 0.000000 1.000000 0.000000
vn 0.000000 1.000000 0.000000
vn 0.000000 0.000000 -1.000000
vn 0.000000 0.000000 -1.000000
vn 0.000000 0.000000 -1.000000
vn 0.000000 0.000000 -1.000000
vn 0.000000 -1.000000 0.000000
vn 0.000000 -1.000000 0.000000
vn 0.000000 -1.000000 0.000000
vn 0.000000 -1.000000 0.000000
vn 0.000000 -1.000000 0.000000
vn 0.000000 -1.000000 0.000000
vn 0.000000 -1.000000 0.000000
vn 1.000000 0.000000 -0.000000
vn 1.000000 0.000000 -0.000000
vn 1.000000 0.000000 -0.000000
vn 1.000000 0.000000 -0.000000
vn -1.000000 0.000000 0.000000
vn -1.000000 0.000000 0.000000
vn -1.000000 0.000000 0.000000
vn -1.000000 0.000000 0.000000
vn -1.000000 0.000000 0.000000
vn -1.000000 0.000000 0.000000
vn -1.000000 0.000000 0.000000
vn -1.000000 0.000000 0.000000
vn -1.000000 0.000000 0.000000
vn 1.000000 0.000000 -0.000000
vn 1.000000 0.000000 -0.000000
vn 1.000000 0.000000 -0.000000
vn 1.000000 0.000000 -0.000000
vn 0.000000 -1.000000 0.000000
vn 0.000000 -1.000000 0.000000
vn 0.000000 -1.000000 0.000000
vn 0.000000 -1.000000 0.000000
vn 0.000000 -1.000000 0.000000
vn 0.000000 -1.000000 0.000000
vn 0.000000 -1.000000 0.000000
vn 0.000000 -1.000000 0.000000
vn 0.000000 -1.000000 0.000000
vn 0.000000 -1.000000 0.000000
vn -1.000000 0.000000 0.000000
vn -1.000000 0.000000 0.000000
vn -1.000000 0.000000 0.000000
vn -1.000000 0.000000 0.000000
vn 1.000000 0.000000 -0.000000
vn 1.000000 0.000000 -0.000000
vn 1.000000 0.000000 -0.000000
vn 1.000000 0.000000 -0.000000
vn -0.000001 0.000000 1.000000
vn -0.000001 0.000000 1.000000
vn -0.000001 0.000000 1.000000
vn -0.000001 0.000000 1.000000
vn 0.000000 0.000000 1.000000
vn 0.000000 0.000000 1.000000
vn 0.000000 0.000000 1.000000
vn 0.000000 0.000000 1.000000
vn 0.000001 0.000000 1.000000
vn 0.000001 0.000000 1.000000
vn 0.000001 0.000000 1.000000
vn 0.000001 0.000000 1.000000
vn 0.000000 1.000000 0.000000
vn 0.000000 1.000000 0.000000
vn 0.000000 1.000000 0.000000
vn 0.000000 1.000000 0.000000
vn 0.000000 1.000000 0.000000
vn 0.000000 1.000000 0.000000
vn 0.000000 1.000000 0.000000
vn 0.000000 1.000000 0.000000
vn 0.000000 1.000000 0.000000
vn 0.000000 1.000000 0.000000
vn 0.000000 1.000000 0.000000
vn 0.000000 1.000000 0.000000
vn 0.000000 0.000000 -1.000000
vn 0.000000 0.000000 -1.000000
vn 0.000000 0.000000 -1.000000
vn 0.000000 0.000000 -1.000000
vn 0.000000 -1.000000 0.000000
vn 0.000000 -1.000000 0.000000
vn 0.000000 -1.000000 0.000000
vn 0.000000 -1.000000 0.000000
vn 0.000000 -1.000000 0.000000
vn 0.000000 -1.000000 0.000000
vn 0.000000 -1.000000 0.000000
vn -1.000000 0.000000 0.000000
vn -1.000000 0.000000 0.000000
vn -1.000000 0.000000 0.000000
vn -1.000000 0.000000 0.000000
vn 1.000000 0.000000 -0.000000
vn 1.000000 0.000000 -0.000000
vn 1.000000 0.000000 -0.000000
vn 1.000000 0.000000 -0.000000
vn 1.000000 0.000000 -0.000000
vn 1.000000 0.000000 -0.000000
vn 1.000000 0.000000 -0.000000
vn 1.000000 0.000000 -0.000000
vn 1.000000 0.000000 -0.000000
vn -1.000000 0.000000 0.000000
vn -1.000000 0.000000 0.000000
vn -1.000000 0.000000 0.000000
vn -1.000000 0.000000 0.000000
vn 0.000000 -1.000000 0.000000
vn 0.000000 -1.000000 0.000000
vn 0.000000 -1.000000 0.000000
vn 0.000000 -1.000000 0.000000
vn 0.000000 -1.000000 0.000000
vn 0.000000 -1.000000 0.000000
vn 0.000000 -1.000000 0.000000
vn 0.000000 -1.000000 0.000000
vn 0.000000 -1.000000 0.000000
vn 0.000000 -1.000000 0.000000
vn 1.000000 0.000000 -0.000000
vn 1.000000 0.000000 -0.000000
vn 1.000000 0.000000 -0.000000
vn 1.000000 0.000000 -0.000000
vn -1.000000 0.000000 0.000000
vn -1.000000 0.000000 0.000000
vn -1.000000 0.000000 0.000000
vn -1.000000 0.000000 0.000000
vn 0.000000 0.000000 1.000000
vn 0.000000 0.000000 1.000000
vn 0.000000 0.000000 1.000000
vn 0.000000 0.000000 1.000000
vn -0.000001 1.000000 0.000000
vn -0.000000 1.000000 0.000000
vn -0.000001 1.000000 0.000000
vn 0.000000 1.000000 0.000000
vn 0.000000 0.000000 -1.000000
vn 0.000000 0.000000 -1.000000
vn 0.000000 0.000000 -1.000000
vn 0.000000 0.000000 -1.000000
vn 0.000000 -1.000000 -0.000000
vn 0.000000 -1.000000 -0.000000
vn 0.000000 -1.000000 -0.000000
vn 0.000000 -1.000000 -0.000000
vn 1.000000 0.000000 0.000000
vn 1.000000 0.000000 0.000000
vn 1.000000 0.000000 0.000000
vn 1.000000 0.000000 0.000000
vn -1.000000 0.000000 0.000000
vn -1.000000 0.000000 0.000000
vn -1.000000 0.000000 0.000000
vn -1.000000 0.000000 0.000000
s 1
g pCube4
usemtl lambert2SG
f 2/1/1 6/2/2 1/4/3
f 1/4/3 6/2/2 5/3/4
s 2
f 20/5/5 21/6/6 23/8/7
f 23/8/7 21/6/6 22/7/8
s 3
f 4/9/9 8/10/10 3/12/11
f 3/12/11 8/10/10 7/11/12
s 4
f 7/13/13 8/14/14 20/20/15
f 8/14/14 10/15/16 20/20/15
f 10/15/16 9/16/17 20/20/15
f 20/20/15 9/16/17 21/19/18
f 9/16/17 5/17/19 21/19/18
f 5/17/19 6/18/20 21/19/18
s 5
f 10/15/21 12/21/22 9/16/23
f 9/16/23 12/21/22 11/22/24
s 6
f 13/23/25 11/24/26 14/26/27
f 14/26/27 11/24/26 12/25/28
s 7
f 16/28/29 15/29/30 17/27/31
f 13/30/32 14/31/33 15/29/30
f 15/29/30 14/31/33 17/27/31
f 17/27/31 14/31/33 18/33/34
f 14/31/33 19/32/35 18/33/34
s 8
f 10/40/36 19/41/37 12/43/38
f 12/43/38 19/41/37 14/42/39
s 9
f 16/46/40 9/47/41 15/50/42
f 9/47/41 11/48/43 15/50/42
f 11/48/43 13/49/44 15/50/42
s 10
f 1/51/45 5/52/46 16/46/47
f 16/46/47 5/52/46 9/47/48
s 11
f 21/53/49 6/54/50 22/56/51
f 22/56/51 6/54/50 2/55/52
s 12
f 3/34/53 23/35/54 4/39/55
f 4/39/55 23/35/54 19/32/56
f 19/32/56 23/35/54 18/33/57
f 23/35/54 22/36/58 18/33/57
f 18/33/57 22/36/58 17/27/59
f 2/37/60 1/38/61 22/36/58
f 1/38/61 16/28/62 22/36/58
f 22/36/58 16/28/62 17/27/59
s 14
f 23/57/63 3/58/64 20/60/65
f 20/60/65 3/58/64 7/59/66
s 15
f 19/41/67 10/40/68 4/45/69
f 4/45/69 10/40/68 8/44/70
s 16
f 24/61/71 27/62/72 25/64/73
f 25/64/73 27/62/72 26/63/74
s 17
f 28/65/75 31/66/76 29/68/77
f 29/68/77 31/66/76 30/67/78
s 18
f 32/69/79 35/70/80 33/72/81
f 33/72/81 35/70/80 34/71/82
s 19
f 34/73/83 28/74/84 33/80/85
f 33/80/85 28/74/84 36/79/86
f 36/79/86 28/74/84 37/78/87
f 28/74/84 29/75/88 37/78/87
f 37/78/87 29/75/88 26/77/89
f 29/75/88 25/76/90 26/77/89
s 20
f 36/79/91 37/78/92 38/82/93
f 38/82/93 37/78/92 39/81/94
s 21
f 40/83/95 41/84/96 39/86/97
f 39/86/97 41/84/96 38/85/98
s 22
f 45/89/99 41/90/100 46/88/101
f 41/90/100 40/91/102 46/88/101
f 40/91/102 44/92/103 46/88/101
f 46/88/101 44/92/103 42/87/104
f 42/87/104 44/92/103 43/93/105
s 23
f 36/100/106 38/101/107 45/103/108
f 45/103/108 38/101/107 41/102/109
s 24
f 43/106/110 44/107/111 37/110/112
f 37/110/112 44/107/111 39/109/113
f 44/107/111 40/108/114 39/109/113
s 25
f 27/111/115 43/106/116 26/112/117
f 26/112/117 43/106/116 37/110/118
s 26
f 29/113/119 30/114/120 25/116/121
f 25/116/121 30/114/120 24/115/122
s 27
f 35/94/123 32/95/124 31/99/125
f 32/95/124 45/89/126 31/99/125
f 45/89/126 46/88/127 31/99/125
f 46/88/127 42/87/128 31/99/125
f 31/99/125 42/87/128 30/98/129
f 42/87/128 43/93/130 30/98/129
f 43/93/130 27/96/131 30/98/129
f 27/96/131 24/97/132 30/98/129
s 28
f 31/117/133 28/118/134 35/120/135
f 35/120/135 28/118/134 34/119/136
s 29
f 45/103/137 32/104/138 36/100/139
f 36/100/139 32/104/138 33/105/140
s 30
f 50/121/141 49/122/142 48/124/143
f 48/124/143 49/122/142 47/123/144
s 31
f 51/125/145 49/126/146 52/128/147
f 52/128/147 49/126/146 50/127/148
s 32
f 54/129/149 53/130/150 52/132/151
f 52/132/151 53/130/150 51/131/152
s 33
f 47/133/153 53/134/154 48/136/155
f 48/136/155 53/134/154 54/135/156
s 34
f 48/137/157 54/138/158 50/140/159
f 50/140/159 54/138/158 52/139/160
s 35
f 49/141/161 51/142/162 47/144/163
f 47/144/163 51/142/162 53/143/164
