# This file uses centimeters as units for non-parametric coordinates.

mtllib guard_leg.mtl
g default1
v -0.385017 -2.110820 0.982737
v 0.382835 -2.110820 0.982737
v -0.316936 -1.791318 0.211176
v 0.314754 -1.791318 0.211176
v -0.316936 -1.791318 -0.533846
v 0.314754 -1.791318 -0.533846
v -0.385017 -2.110820 -0.621732
v 0.382835 -2.110820 -0.621732
v -0.316936 -1.791318 0.211176
v 0.314753 -1.791318 0.211176
v 0.314753 -1.791318 -0.533846
v -0.316936 -1.791318 -0.533846
v -0.316936 -0.822515 0.390620
v 0.314754 -0.822515 0.390620
v 0.314754 -0.822515 -0.354403
v -0.316936 -0.822515 -0.354403
v -0.316934 0.022613 -0.091099
v 0.314752 0.021498 -0.091099
v 0.314752 0.021498 -0.836118
v -0.316934 0.022613 -0.836118
vt 0.150577 0.467690
vt 0.150577 0.600619
vt 0.150577 0.465447
vt 0.150577 0.600619
vt 0.108981 0.814510
vt 0.303582 0.814510
vt 0.286328 0.927205
vt 0.126235 0.927205
vt 0.583114 0.465447
vt 0.743206 0.465447
vt 0.743206 0.654261
vt 0.583114 0.654261
vt 0.223022 0.885357
vt 0.223022 0.725264
vt 0.303995 0.708010
vt 0.303995 0.902611
vt 0.087551 0.705083
vt 0.282152 0.705083
vt 0.282152 0.833025
vt 0.087551 0.833025
vt 0.148347 0.928519
vt 0.148347 0.775241
vt 0.229320 0.783637
vt 0.229320 0.854810
vt 0.173646 0.948235
vt 0.173646 0.779756
vt 0.254619 0.860774
vt 0.254619 0.939006
vt 0.162847 0.625540
vt 0.162847 0.465447
vt 0.162847 0.465447
vt 0.162847 0.625540
vt 0.335210 0.465447
vt 0.335210 0.654262
vt 0.335210 0.654262
vt 0.335210 0.465447
vt 0.156712 0.465447
vt 0.156712 0.625540
vt 0.156712 0.625540
vt 0.156712 0.465447
vt 0.001992 0.001741
vt 0.162085 0.001741
vt 0.162085 0.247270
vt 0.001992 0.247270
vt 0.162084 0.461173
vt 0.001993 0.461456
vt 0.700564 0.001741
vt 0.889379 0.001741
vt 0.843901 0.247270
vt 0.655086 0.247270
vt 0.965985 0.461173
vt 0.777171 0.461173
vt 0.613865 0.461456
vt 0.453773 0.461456
vt 0.932982 0.215926
vt 1.093075 0.215926
vt 0.649006 0.001741
vt 0.809098 0.002023
vt 0.632911 0.001741
vt 0.821726 0.001741
vt 1.021024 0.244601
vt 0.832209 0.244601
vt 0.680041 0.464125
vt 0.491227 0.464125
vn 0.000000 0.923917 0.382593
vn 0.000000 0.923917 0.382593
vn 0.000000 0.923917 0.382593
vn 0.000000 0.923917 0.382593
vn 0.001765 0.999998 0.000000
vn 0.001765 0.999998 0.000000
vn 0.001765 0.999998 0.000000
vn 0.001765 0.999998 0.000000
vn 0.000000 0.265220 -0.964188
vn 0.000000 0.265220 -0.964188
vn 0.000000 0.265220 -0.964188
vn 0.000000 0.265220 -0.964188
vn 0.000000 -1.000000 0.000000
vn 0.000000 -1.000000 0.000000
vn 0.000000 -1.000000 0.000000
vn 0.000000 -1.000000 0.000000
vn 0.978043 0.208405 0.000000
vn 0.978043 0.208405 0.000000
vn 0.978043 0.208405 0.000000
vn 0.978043 0.208405 0.000000
vn -0.978043 0.208405 0.000000
vn -0.978043 0.208405 0.000000
vn -0.978043 0.208405 0.000000
vn -0.978043 0.208405 0.000000
vn 0.000000 0.000000 0.000000
vn 0.000000 0.000000 0.000000
vn 0.000000 0.000000 0.000000
vn 0.000000 0.000000 0.000000
vn 0.000000 1.000000 0.000000
vn 0.000000 1.000000 0.000000
vn 0.000000 1.000000 0.000000
vn 0.000000 1.000000 0.000000
vn 0.000000 0.999953 -0.009733
vn 0.000000 0.999953 -0.009733
vn 0.000000 0.999953 -0.009733
vn 0.000000 0.999953 -0.009733
vn 0.000000 1.000000 0.000000
vn 0.000000 1.000000 0.000000
vn 0.000000 1.000000 0.000000
vn 0.000000 1.000000 0.000000
vn 0.000000 -0.182124 0.983276
vn 0.000000 -0.182124 0.983276
vn 0.000231 0.164423 0.986390
vn 0.000231 0.164423 0.986390
vn 1.000000 -0.000000 0.000000
vn 1.000000 -0.000000 0.000000
vn 1.000000 0.000000 0.000000
vn 1.000000 0.000000 0.000000
vn 0.000000 0.182124 -0.983276
vn 0.000000 0.182124 -0.983276
vn -0.000231 -0.164422 -0.986390
vn -0.000231 -0.164422 -0.986390
vn -1.000000 0.000000 0.000000
vn -1.000000 0.000000 0.000000
vn -1.000000 0.000000 -0.000000
vn -1.000000 0.000002 -0.000000
vn 0.000231 0.164423 0.986390
vn 0.000231 0.164423 0.986390
vn 0.000438 0.495447 0.868638
vn 0.000438 0.495447 0.868638
vn 1.000000 0.000000 0.000000
vn 1.000000 0.000000 0.000000
vn 1.000000 0.000002 0.000000
vn 1.000000 0.000002 0.000000
vn -0.000231 -0.164422 -0.986390
vn -0.000231 -0.164422 -0.986390
vn -0.000438 -0.495443 -0.868640
vn -0.000438 -0.495443 -0.868640
vn -1.000000 0.000002 -0.000000
vn -1.000000 0.000000 -0.000000
vn -1.000000 0.000002 -0.000000
vn -1.000000 0.000002 -0.000000
s off
g initialShadingGroup initialShadingGroup1 initialShadingGroup2 pCube8 polySurface2 polySurface3 polySurface1
f 1/5/1 2/6/2 4/7/3 3/8/4
f 17/9/5 18/10/6 19/11/7 20/12/8
f 5/13/9 6/14/10 8/15/11 7/16/12
f 7/17/13 8/18/14 2/19/15 1/20/16
f 2/21/17 8/22/18 6/23/19 4/24/20
f 7/25/21 1/26/22 3/27/23 5/28/24
f 3/29/25 4/30/26 10/31/27 9/32/28
f 4/33/29 6/34/30 11/35/31 10/36/32
f 6/37/33 5/38/34 12/39/35 11/40/36
f 5/2/37 3/1/38 9/3/39 12/4/40
f 9/41/41 10/42/42 14/43/43 13/44/44
f 10/47/45 11/48/46 15/49/47 14/50/48
f 11/53/49 12/54/50 16/55/51 15/56/52
f 12/59/53 9/60/54 13/61/55 16/62/56
f 13/44/57 14/43/58 18/45/59 17/46/60
f 14/50/61 15/49/62 19/51/63 18/52/64
f 15/56/65 16/55/66 20/57/67 19/58/68
f 16/62/69 13/61/70 17/63/71 20/64/72
