# This file uses centimeters as units for non-parametric coordinates.

mtllib guard_head.mtl
g default1
v -0.580376 -0.380217 -0.030486
v 0.594975 -0.380217 -0.030486
v -0.580376 0.402190 -0.030486
v 0.594975 0.402190 -0.030486
v -0.580376 0.402190 -0.696734
v 0.594975 0.402190 -0.696734
v -0.580376 -0.380217 -0.696734
v 0.594975 -0.380217 -0.696734
vt 0.960788 0.692717
vt 0.675234 0.677207
vt 0.721272 0.937085
vt 0.726670 0.691518
vt 0.998253 0.941518
vt 0.748253 0.941518
vt 0.972791 0.699835
vt 0.722791 0.699835
vt 0.951208 0.753574
vt 0.701208 0.753574
vt 0.971272 0.687085
vt 0.971272 0.937085
vt 0.710788 0.692717
vt 0.710788 0.942717
vt 0.377571 0.989512
vt 0.960788 0.942717
vt 0.377571 0.677207
vt 0.675234 0.989512
vt 0.976670 0.691518
vt 0.721272 0.687085
vn 0.000000 0.000000 1.000000
vn 0.000000 0.000000 1.000000
vn 0.000000 0.000000 1.000000
vn 0.000000 0.000000 1.000000
vn 0.000000 1.000000 0.000000
vn 0.000000 1.000000 0.000000
vn 0.000000 1.000000 0.000000
vn 0.000000 1.000000 0.000000
vn 0.000000 0.000000 -1.000000
vn 0.000000 0.000000 -1.000000
vn 0.000000 0.000000 -1.000000
vn 0.000000 0.000000 -1.000000
vn 0.000000 -1.000000 0.000000
vn 0.000000 -1.000000 0.000000
vn 0.000000 -1.000000 0.000000
vn 0.000000 -1.000000 0.000000
vn 1.000000 0.000000 0.000000
vn 1.000000 0.000000 0.000000
vn 1.000000 0.000000 0.000000
vn 1.000000 0.000000 0.000000
vn -1.000000 0.000000 0.000000
vn -1.000000 0.000000 0.000000
vn -1.000000 0.000000 0.000000
vn -1.000000 0.000000 0.000000
s off
g initialShadingGroup1 pCube9 polySurface1
usemtl lambert2SG
f 1/17/1 2/2/2 4/18/3 3/15/4
f 3/4/5 4/19/6 6/5/7 5/6/8
f 5/6/9 6/5/10 8/7/11 7/8/12
f 7/8/13 8/7/14 2/9/15 1/10/16
f 2/20/17 8/11/18 6/12/19 4/3/20
f 7/13/21 1/1/22 3/16/23 5/14/24
