# This file uses centimeters as units for non-parametric coordinates.

mtllib inmate_body.mtl
g default1
v -0.780639 -1.064673 0.076496
v 0.920061 -1.064673 0.076496
v -0.780639 1.271172 0.076496
v 0.920061 1.271172 0.076496
v -0.780639 1.271172 -0.920962
v 0.920061 1.271172 -0.920962
v -0.780639 -1.064673 -0.920962
v 0.920061 -1.064673 -0.920962
v -0.197975 1.241476 -0.171148
v 0.341690 1.241476 -0.171148
v -0.197975 1.474842 -0.171148
v 0.341690 1.474842 -0.171148
v -0.197975 1.474842 -0.656734
v 0.341690 1.474842 -0.656734
v -0.197975 1.241476 -0.656734
v 0.341690 1.241476 -0.656734
vt 0.943913 0.272817
vt 0.701010 0.043630
vt 0.636161 0.500000
vt 0.943913 0.486591
vt 0.713695 0.500000
vt 0.713695 0.500000
vt 0.664115 0.466862
vt 0.766500 0.462810
vt 0.766500 0.462810
vt 0.664115 0.466862
vt 0.701010 0.043630
vt 0.701010 0.114932
vt 0.693913 0.272817
vt 0.693913 0.486591
vt 0.641510 0.107225
vt 0.665155 0.170703
vt 0.665155 0.193330
vt 0.641510 0.129852
vt 0.474805 0.527465
vt 0.525195 0.527465
vt 0.881472 0.165813
vt 0.631472 0.165813
vt 0.881472 0.415813
vt 0.631472 0.415813
vt 0.925192 0.117166
vt 0.925192 0.367166
vt 0.500000 0.436487
vt 0.500000 0.436487
vt 0.012984 0.018326
vt 0.457234 0.018326
vt 0.457234 0.641814
vt 0.012984 0.641814
vt 0.701010 0.114932
vt 0.512287 0.563699
vt 0.591429 0.563699
vt 0.591429 0.436301
vt 0.512287 0.436301
vt 0.636161 0.500000
vt 0.842935 0.833617
vt 0.951634 0.833617
vt 0.951634 0.833617
vt 0.842935 0.833617
vt 0.525195 0.472535
vt 0.474805 0.472535
vt 0.500000 0.563513
vt 0.500000 0.563513
vn 0.000000 0.000000 1.000000
vn 0.000000 0.000000 1.000000
vn 0.000000 0.000000 1.000000
vn 0.000000 0.000000 1.000000
vn 0.000000 1.000000 0.000000
vn 0.000000 1.000000 0.000000
vn 0.000000 1.000000 0.000000
vn 0.000000 1.000000 0.000000
vn 0.000000 0.000000 -1.000000
vn 0.000000 0.000000 -1.000000
vn 0.000000 0.000000 -1.000000
vn 0.000000 0.000000 -1.000000
vn 0.000000 -1.000000 0.000000
vn 0.000000 -1.000000 0.000000
vn 0.000000 -1.000000 0.000000
vn 0.000000 -1.000000 0.000000
vn 1.000000 0.000000 0.000000
vn 1.000000 0.000000 0.000000
vn 1.000000 0.000000 0.000000
vn 1.000000 0.000000 0.000000
vn -1.000000 0.000000 0.000000
vn -1.000000 0.000000 0.000000
vn -1.000000 0.000000 0.000000
vn -1.000000 0.000000 0.000000
vn 0.000000 0.000000 1.000000
vn 0.000000 0.000000 1.000000
vn 0.000000 0.000000 1.000000
vn 0.000000 0.000000 1.000000
vn 0.000000 1.000000 0.000000
vn 0.000000 1.000000 0.000000
vn 0.000000 1.000000 0.000000
vn 0.000000 1.000000 0.000000
vn 0.000000 0.000000 -1.000000
vn 0.000000 0.000000 -1.000000
vn 0.000000 0.000000 -1.000000
vn 0.000000 0.000000 -1.000000
vn 0.000000 -1.000000 0.000000
vn 0.000000 -1.000000 0.000000
vn 0.000000 -1.000000 0.000000
vn 0.000000 -1.000000 0.000000
vn 1.000000 0.000000 0.000000
vn 1.000000 0.000000 0.000000
vn 1.000000 0.000000 0.000000
vn 1.000000 0.000000 0.000000
vn -1.000000 0.000000 0.000000
vn -1.000000 0.000000 0.000000
vn -1.000000 0.000000 0.000000
vn -1.000000 0.000000 0.000000
s off
g initialShadingGroup initialShadingGroup1 initialShadingGroup2 pCube7 polySurface2 polySurface3 polySurface1
f 1/29/1 2/30/2 4/31/3 3/32/4
f 3/3/5 4/5/6 6/6/7 5/38/8
f 5/34/9 6/35/10 8/36/11 7/37/12
f 7/7/13 8/8/14 2/9/15 1/10/16
f 2/2/17 8/11/18 6/12/19 4/33/20
f 7/13/21 1/1/22 3/4/23 5/14/24
g initialShadingGroup initialShadingGroup1 initialShadingGroup2 pCube8 polySurface2 polySurface3 polySurface1
f 9/15/25 10/16/26 12/17/27 11/18/28
f 11/39/29 12/40/30 14/41/31 13/42/32
f 13/19/33 14/20/34 16/43/35 15/44/36
f 15/22/37 16/21/38 10/23/39 9/24/40
f 10/16/41 16/25/42 14/26/43 12/17/44
f 15/27/45 9/28/46 11/45/47 13/46/48
