# This file uses centimeters as units for non-parametric coordinates.

mtllib inmate_head.mtl
g default1
v -0.464477 2.901778 -0.030486
v 0.210126 2.901778 -0.030486
v -0.464477 3.684184 -0.030486
v 0.210126 3.684184 -0.030486
v -0.464477 3.684184 -0.696734
v 0.210126 3.684184 -0.696734
v -0.464477 2.901778 -0.696734
v 0.210126 2.901778 -0.696734
vt 0.825903 0.824722
vt 0.938148 0.824722
vt 0.887142 0.764897
vt 0.806053 0.735992
vt 0.744515 0.804762
vt 0.806053 0.735992
vt 0.938148 0.824722
vt 0.825903 0.824722
vt 0.317556 0.689020
vt 0.612218 0.685780
vt 0.614945 0.933728
vt 0.320282 0.936969
vt 0.776883 0.845570
vt 0.851899 0.845570
vt 0.851899 0.845570
vt 0.776883 0.845570
vt 0.887142 0.764897
vt 0.887142 0.860699
vt 0.887142 0.860699
vt 0.891817 0.804762
vt 0.891817 0.717939
vt 0.744515 0.717939
vt 0.806825 0.793657
vt 0.806825 0.793657
vn 0.000000 0.000000 1.000000
vn 0.000000 0.000000 1.000000
vn 0.000000 0.000000 1.000000
vn 0.000000 0.000000 1.000000
vn 0.000000 1.000000 0.000000
vn 0.000000 1.000000 0.000000
vn 0.000000 1.000000 0.000000
vn 0.000000 1.000000 0.000000
vn 0.000000 0.000000 -1.000000
vn 0.000000 0.000000 -1.000000
vn 0.000000 0.000000 -1.000000
vn 0.000000 0.000000 -1.000000
vn 0.000000 -1.000000 0.000000
vn 0.000000 -1.000000 0.000000
vn 0.000000 -1.000000 0.000000
vn 0.000000 -1.000000 0.000000
vn 1.000000 0.000000 0.000000
vn 1.000000 0.000000 0.000000
vn 1.000000 0.000000 0.000000
vn 1.000000 0.000000 0.000000
vn -1.000000 0.000000 0.000000
vn -1.000000 0.000000 0.000000
vn -1.000000 0.000000 0.000000
vn -1.000000 0.000000 0.000000
s off
g initialShadingGroup1 pCube9 polySurface1
usemtl lambert2SG
f 1/9/1 2/10/2 4/11/3 3/12/4
f 3/13/5 4/14/6 6/15/7 5/16/8
f 5/5/9 6/20/10 8/21/11 7/22/12
f 7/1/13 8/2/14 2/7/15 1/8/16
f 2/3/17 8/17/18 6/18/19 4/19/20
f 7/4/21 1/6/22 3/23/23 5/24/24
