# This file uses centimeters as units for non-parametric coordinates.

mtllib inmate_leg.mtl
g default
v -0.361434 0.073822 0.982737
v 0.406418 0.073822 0.982737
v -0.293353 0.610402 0.211176
v 0.338337 0.610402 0.211176
v -0.293353 0.610402 -0.533846
v 0.338337 0.610402 -0.533846
v -0.361434 0.073822 -0.621732
v 0.406418 0.073822 -0.621732
v -0.293353 0.610402 0.211176
v 0.338336 0.610402 0.211176
v 0.338336 0.610402 -0.533846
v -0.293353 0.610402 -0.533846
v -0.293353 2.237435 0.390620
v 0.338337 2.237435 0.390620
v 0.338337 2.237435 -0.354403
v -0.293353 2.237435 -0.354403
v -0.293351 3.656764 -0.091099
v 0.338335 3.654892 -0.091099
v 0.338335 3.654892 -0.836118
v -0.293351 3.656764 -0.836118
vt 0.297955 0.367554
vt 0.547955 0.367554
vt 0.550135 0.589599
vt 0.300135 0.589599
vt 0.300135 0.589599
vt 0.550135 0.589599
vt 0.550135 0.517303
vt 0.300135 0.517303
vt 0.300135 0.517303
vt 0.550135 0.517303
vt 0.550135 0.445007
vt 0.993074 0.362734
vt 0.743074 0.435030
vt 0.993074 0.435030
vt 0.797955 0.367554
vt 0.797955 0.295258
vt 0.047955 0.367554
vt 0.047955 0.295258
vt 0.550135 0.589599
vt 0.300135 0.589599
vt 0.550135 0.517303
vt 0.300135 0.517303
vt 0.550135 0.589599
vt 0.300135 0.589599
vt 0.550135 0.517303
vt 0.300135 0.517303
vt 0.300135 0.445008
vt 0.743074 0.362734
vt 0.547955 0.295258
vt 0.297955 0.295258
vn 0.000000 0.820983 0.570952
vn 0.000000 0.820983 0.570952
vn 0.000000 0.820983 0.570952
vn 0.000000 0.820983 0.570952
vn 0.002964 0.999996 0.000000
vn 0.002964 0.999996 0.000000
vn 0.002964 0.999996 0.000000
vn 0.002964 0.999996 0.000000
vn 0.000000 0.161635 -0.986851
vn 0.000000 0.161635 -0.986851
vn 0.000000 0.161635 -0.986851
vn 0.000000 0.161635 -0.986851
vn 0.000000 -1.000000 0.000000
vn 0.000000 -1.000000 0.000000
vn 0.000000 -1.000000 0.000000
vn 0.000000 -1.000000 0.000000
vn 0.992047 0.125870 0.000000
vn 0.992047 0.125870 0.000000
vn 0.992047 0.125870 0.000000
vn 0.992047 0.125870 0.000000
vn -0.992047 0.125870 0.000000
vn -0.992047 0.125870 0.000000
vn -0.992047 0.125870 0.000000
vn -0.992047 0.125870 0.000000
vn 0.000000 0.000000 0.000000
vn 0.000000 0.000000 0.000000
vn 0.000000 0.000000 0.000000
vn 0.000000 0.000000 0.000000
vn 0.000000 1.000000 0.000000
vn 0.000000 1.000000 0.000000
vn 0.000000 1.000000 0.000000
vn 0.000000 1.000000 0.000000
vn 0.000000 0.999866 -0.016345
vn 0.000000 0.999866 -0.016345
vn 0.000000 0.999866 -0.016345
vn 0.000000 0.999866 -0.016345
vn 0.000000 1.000000 0.000000
vn 0.000000 1.000000 0.000000
vn 0.000000 1.000000 0.000000
vn 0.000000 1.000000 0.000000
vn 0.000000 -0.109624 0.993973
vn 0.000000 -0.109624 0.993973
vn 0.000233 0.098770 0.995110
vn 0.000233 0.098770 0.995110
vn 1.000000 -0.000000 0.000000
vn 1.000000 -0.000000 0.000000
vn 1.000000 0.000000 0.000000
vn 1.000000 0.000000 0.000000
vn 0.000000 0.109624 -0.993973
vn 0.000000 0.109624 -0.993973
vn -0.000233 -0.098769 -0.995110
vn -0.000233 -0.098769 -0.995110
vn -1.000000 0.000000 0.000000
vn -1.000000 0.000000 0.000000
vn -1.000000 0.000000 -0.000000
vn -1.000000 0.000001 -0.000000
vn 0.000233 0.098770 0.995110
vn 0.000233 0.098770 0.995110
vn 0.000477 0.321583 0.946881
vn 0.000477 0.321583 0.946881
vn 1.000000 0.000000 0.000000
vn 1.000000 0.000000 0.000000
vn 1.000000 0.000001 0.000000
vn 1.000000 0.000001 0.000000
vn -0.000233 -0.098769 -0.995110
vn -0.000233 -0.098769 -0.995110
vn -0.000477 -0.321580 -0.946882
vn -0.000477 -0.321580 -0.946882
vn -1.000000 0.000001 -0.000000
vn -1.000000 0.000000 -0.000000
vn -1.000000 0.000001 -0.000000
vn -1.000000 0.000001 -0.000000
s off
g pCube8
usemtl lambert2SG
f 1/1/1 2/2/2 4/29/3 3/30/4
f 17/5/5 18/6/6 19/7/7 20/8/8
f 5/9/9 6/10/10 8/11/11 7/27/12
f 7/12/13 8/28/14 2/13/15 1/14/16
f 2/2/17 8/15/18 6/16/19 4/29/20
f 7/17/21 1/1/22 3/30/23 5/18/24
f 3/4/25 4/3/26 10/19/27 9/20/28
f 4/3/29 6/10/30 11/21/31 10/19/32
f 6/10/33 5/9/34 12/22/35 11/21/36
f 5/9/37 3/4/38 9/20/39 12/22/40
f 9/20/41 10/19/42 14/23/43 13/24/44
f 10/19/45 11/21/46 15/25/47 14/23/48
f 11/21/49 12/22/50 16/26/51 15/25/52
f 12/22/53 9/20/54 13/24/55 16/26/56
f 13/24/57 14/23/58 18/6/59 17/5/60
f 14/23/61 15/25/62 19/7/63 18/6/64
f 15/25/65 16/26/66 20/8/67 19/7/68
f 16/26/69 13/24/70 17/5/71 20/8/72
