# This file uses centimeters as units for non-parametric coordinates.

mtllib inmate_leg.mtl
g default
v -0.361434 0.073822 0.982737
v 0.406418 0.073822 0.982737
v -0.293353 0.610402 0.211176
v 0.338337 0.610402 0.211176
v -0.293353 0.610402 -0.533846
v 0.338337 0.610402 -0.533846
v -0.361434 0.073822 -0.621732
v 0.406418 0.073822 -0.621732
v -0.293353 0.610402 0.211176
v 0.338336 0.610402 0.211176
v 0.338336 0.610402 -0.533846
v -0.293353 0.610402 -0.533846
v -0.293353 2.237435 0.390620
v 0.338337 2.237435 0.390620
v 0.338337 2.237435 -0.354403
v -0.293353 2.237435 -0.354403
v -0.293351 3.656764 -0.091099
v 0.338335 3.654892 -0.091099
v 0.338335 3.654892 -0.836118
v -0.293351 3.656764 -0.836118
vt 0.145280 0.716127
vt 0.195436 0.783348
vt 0.625000 0.250000
vt 0.375000 0.250000
vt 0.375000 0.250000
vt 0.625000 0.250000
vt 0.625000 0.500000
vt 0.375000 0.500000
vt 0.375000 0.500000
vt 0.625000 0.500000
vt 0.060418 0.804891
vt 0.229718 0.805024
vt 0.229718 0.805024
vt 0.060418 0.804891
vt 0.195436 0.783348
vt 0.177645 0.848331
vt 0.145280 0.716127
vt 0.146416 0.830137
vt 0.625000 0.250000
vt 0.375000 0.250000
vt 0.625000 0.500000
vt 0.375000 0.500000
vt 0.625000 0.250000
vt 0.375000 0.250000
vt 0.625000 0.500000
vt 0.375000 0.500000
vt 0.045920 0.729166
vt 0.268206 0.729166
vt 0.248497 0.939121
vt 0.065629 0.939121
vt 0.177645 0.848331
vt 0.116822 0.845049
vt 0.300496 0.845049
vt 0.320291 0.716000
vt 0.097026 0.716000
vt 0.146416 0.830137
vt 0.056856 0.454394
vt 0.136204 0.454394
vt 0.136204 0.545606
vt 0.056856 0.545606
vt 0.070244 0.386931
vt 0.137183 0.386931
vt 0.137183 0.500626
vt 0.070244 0.500776
vt 0.081737 0.364655
vt 0.170341 0.364473
vt 0.170341 0.364473
vt 0.081737 0.364655
vt 0.859950 0.452806
vt 0.807273 0.452806
vt 0.807273 0.547194
vt 0.859950 0.547069
vt 0.724504 0.463460
vt 0.662005 0.463460
vt 0.662005 0.536540
vt 0.724504 0.536540
vn 0.000000 0.820983 0.570952
vn 0.000000 0.820983 0.570952
vn 0.000000 0.820983 0.570952
vn 0.000000 0.820983 0.570952
vn 0.002964 0.999996 0.000000
vn 0.002964 0.999996 0.000000
vn 0.002964 0.999996 0.000000
vn 0.002964 0.999996 0.000000
vn 0.000000 0.161635 -0.986851
vn 0.000000 0.161635 -0.986851
vn 0.000000 0.161635 -0.986851
vn 0.000000 0.161635 -0.986851
vn 0.000000 -1.000000 0.000000
vn 0.000000 -1.000000 0.000000
vn 0.000000 -1.000000 0.000000
vn 0.000000 -1.000000 0.000000
vn 0.992047 0.125870 0.000000
vn 0.992047 0.125870 0.000000
vn 0.992047 0.125870 0.000000
vn 0.992047 0.125870 0.000000
vn -0.992047 0.125870 0.000000
vn -0.992047 0.125870 0.000000
vn -0.992047 0.125870 0.000000
vn -0.992047 0.125870 0.000000
vn 0.000000 0.000000 0.000000
vn 0.000000 0.000000 0.000000
vn 0.000000 0.000000 0.000000
vn 0.000000 0.000000 0.000000
vn 0.000000 1.000000 0.000000
vn 0.000000 1.000000 0.000000
vn 0.000000 1.000000 0.000000
vn 0.000000 1.000000 0.000000
vn 0.000000 0.999866 -0.016345
vn 0.000000 0.999866 -0.016345
vn 0.000000 0.999866 -0.016345
vn 0.000000 0.999866 -0.016345
vn 0.000000 1.000000 0.000000
vn 0.000000 1.000000 0.000000
vn 0.000000 1.000000 0.000000
vn 0.000000 1.000000 0.000000
vn 0.000000 -0.109624 0.993973
vn 0.000000 -0.109624 0.993973
vn 0.000233 0.098770 0.995110
vn 0.000233 0.098770 0.995110
vn 1.000000 0.000000 0.000000
vn 1.000000 0.000000 0.000000
vn 1.000000 0.000000 0.000000
vn 1.000000 0.000000 0.000000
vn 0.000000 0.109624 -0.993973
vn 0.000000 0.109624 -0.993973
vn -0.000233 -0.098769 -0.995110
vn -0.000233 -0.098769 -0.995110
vn -1.000000 0.000000 0.000000
vn -1.000000 0.000000 0.000000
vn -1.000000 0.000000 0.000000
vn -1.000000 0.000001 0.000000
vn 0.000233 0.098770 0.995110
vn 0.000233 0.098770 0.995110
vn 0.000477 0.321583 0.946881
vn 0.000477 0.321583 0.946881
vn 1.000000 0.000000 0.000000
vn 1.000000 0.000000 0.000000
vn 1.000000 0.000001 0.000000
vn 1.000000 0.000001 0.000000
vn -0.000233 -0.098769 -0.995110
vn -0.000233 -0.098769 -0.995110
vn -0.000477 -0.321580 -0.946882
vn -0.000477 -0.321580 -0.946882
vn -1.000000 0.000001 0.000000
vn -1.000000 0.000000 0.000000
vn -1.000000 0.000001 0.000000
vn -1.000000 0.000001 0.000000
s off
g pCube8
usemtl lambert2SG
f 1/27/1 2/28/2 4/29/3 3/30/4
f 17/45/5 18/46/6 19/47/7 20/48/8
f 5/32/9 6/33/10 8/34/11 7/35/12
f 7/11/13 8/12/14 2/13/15 1/14/16
f 2/2/17 8/15/18 6/16/19 4/31/20
f 7/1/21 1/17/22 3/18/23 5/36/24
f 3/4/25 4/3/26 10/19/27 9/20/28
f 4/3/29 6/10/30 11/21/31 10/19/32
f 6/10/33 5/9/34 12/22/35 11/21/36
f 5/9/37 3/4/38 9/20/39 12/22/40
f 9/37/41 10/38/42 14/39/43 13/40/44
f 10/19/45 11/21/46 15/25/47 14/23/48
f 11/53/49 12/54/50 16/55/51 15/56/52
f 12/22/53 9/20/54 13/24/55 16/26/56
f 13/41/57 14/42/58 18/43/59 17/44/60
f 14/23/61 15/25/62 19/7/63 18/6/64
f 15/49/65 16/50/66 20/51/67 19/52/68
f 16/26/69 13/24/70 17/5/71 20/8/72
