# This file uses centimeters as units for non-parametric coordinates.

mtllib leg.mtl
g default1
v -0.376562 -1.661089 0.982737
v 0.391290 -1.661089 0.982737
v -0.308481 -1.341587 0.211176
v 0.323209 -1.341587 0.211176
v -0.308481 -1.341587 -0.533846
v 0.323209 -1.341587 -0.533846
v -0.376562 -1.661089 -0.621732
v 0.391290 -1.661089 -0.621732
v -0.308481 -1.341587 0.211176
v 0.323208 -1.341587 0.211176
v 0.323208 -1.341587 -0.533846
v -0.308481 -1.341587 -0.533846
v -0.308481 -0.372784 0.390620
v 0.323209 -0.372784 0.390620
v 0.323209 -0.372784 -0.354403
v -0.308481 -0.372784 -0.354403
v -0.308479 0.472344 -0.091099
v 0.323207 0.471229 -0.091099
v 0.323207 0.471229 -0.836118
v -0.308479 0.472344 -0.836118
vt 0.375000 0.000000
vt 0.625000 0.000000
vt 0.625000 0.250000
vt 0.375000 0.250000
vt 0.375000 0.250000
vt 0.625000 0.250000
vt 0.625000 0.500000
vt 0.375000 0.500000
vt 0.375000 0.500000
vt 0.625000 0.500000
vt 0.625000 0.750000
vt 0.375000 0.750000
vt 0.625000 1.000000
vt 0.375000 1.000000
vt 0.875000 0.000000
vt 0.875000 0.250000
vt 0.125000 0.000000
vt 0.125000 0.250000
vt 0.625000 0.250000
vt 0.375000 0.250000
vt 0.625000 0.500000
vt 0.375000 0.500000
vt 0.625000 0.250000
vt 0.375000 0.250000
vt 0.625000 0.500000
vt 0.375000 0.500000
vn 0.000000 0.923917 0.382593
vn 0.000000 0.923917 0.382593
vn 0.000000 0.923917 0.382593
vn 0.000000 0.923917 0.382593
vn 0.001765 0.999998 0.000000
vn 0.001765 0.999998 0.000000
vn 0.001765 0.999998 0.000000
vn 0.001765 0.999998 0.000000
vn 0.000000 0.265220 -0.964188
vn 0.000000 0.265220 -0.964188
vn 0.000000 0.265220 -0.964188
vn 0.000000 0.265220 -0.964188
vn 0.000000 -1.000000 0.000000
vn 0.000000 -1.000000 0.000000
vn 0.000000 -1.000000 0.000000
vn 0.000000 -1.000000 0.000000
vn 0.978043 0.208405 0.000000
vn 0.978043 0.208405 0.000000
vn 0.978043 0.208405 0.000000
vn 0.978043 0.208405 0.000000
vn -0.978043 0.208405 0.000000
vn -0.978043 0.208405 0.000000
vn -0.978043 0.208405 0.000000
vn -0.978043 0.208405 0.000000
vn 0.000000 0.000000 0.000000
vn 0.000000 0.000000 0.000000
vn 0.000000 0.000000 0.000000
vn 0.000000 0.000000 0.000000
vn 0.000000 1.000000 0.000000
vn 0.000000 1.000000 0.000000
vn 0.000000 1.000000 0.000000
vn 0.000000 1.000000 0.000000
vn 0.000000 0.999953 -0.009733
vn 0.000000 0.999953 -0.009733
vn 0.000000 0.999953 -0.009733
vn 0.000000 0.999953 -0.009733
vn 0.000000 1.000000 0.000000
vn 0.000000 1.000000 0.000000
vn 0.000000 1.000000 0.000000
vn 0.000000 1.000000 0.000000
vn 0.000000 -0.182124 0.983276
vn 0.000000 -0.182124 0.983276
vn 0.000231 0.164423 0.986390
vn 0.000231 0.164423 0.986390
vn 1.000000 -0.000000 0.000000
vn 1.000000 -0.000000 0.000000
vn 1.000000 0.000000 0.000000
vn 1.000000 0.000000 0.000000
vn 0.000000 0.182124 -0.983276
vn 0.000000 0.182124 -0.983276
vn -0.000231 -0.164422 -0.986390
vn -0.000231 -0.164422 -0.986390
vn -1.000000 0.000000 0.000000
vn -1.000000 0.000000 0.000000
vn -1.000000 0.000000 -0.000000
vn -1.000000 0.000002 -0.000000
vn 0.000231 0.164423 0.986390
vn 0.000231 0.164423 0.986390
vn 0.000438 0.495447 0.868638
vn 0.000438 0.495447 0.868638
vn 1.000000 0.000000 0.000000
vn 1.000000 0.000000 0.000000
vn 1.000000 0.000002 0.000000
vn 1.000000 0.000002 0.000000
vn -0.000231 -0.164422 -0.986390
vn -0.000231 -0.164422 -0.986390
vn -0.000438 -0.495443 -0.868640
vn -0.000438 -0.495443 -0.868640
vn -1.000000 0.000002 -0.000000
vn -1.000000 0.000000 -0.000000
vn -1.000000 0.000002 -0.000000
vn -1.000000 0.000002 -0.000000
s off
g initialShadingGroup initialShadingGroup1 initialShadingGroup2 pCube8 polySurface2 polySurface1
f 1/1/1 2/2/2 4/3/3 3/4/4
f 17/5/5 18/6/6 19/7/7 20/8/8
f 5/9/9 6/10/10 8/11/11 7/12/12
f 7/12/13 8/11/14 2/13/15 1/14/16
f 2/2/17 8/15/18 6/16/19 4/3/20
f 7/17/21 1/1/22 3/4/23 5/18/24
f 3/4/25 4/3/26 10/19/27 9/20/28
f 4/3/29 6/10/30 11/21/31 10/19/32
f 6/10/33 5/9/34 12/22/35 11/21/36
f 5/9/37 3/4/38 9/20/39 12/22/40
f 9/20/41 10/19/42 14/23/43 13/24/44
f 10/19/45 11/21/46 15/25/47 14/23/48
f 11/21/49 12/22/50 16/26/51 15/25/52
f 12/22/53 9/20/54 13/24/55 16/26/56
f 13/24/57 14/23/58 18/6/59 17/5/60
f 14/23/61 15/25/62 19/7/63 18/6/64
f 15/25/65 16/26/66 20/8/67 19/7/68
f 16/26/69 13/24/70 17/5/71 20/8/72
