# This file uses centimeters as units for non-parametric coordinates.

mtllib leg.mtl
g default
v -0.361434 0.073822 0.982737
v 0.406418 0.073822 0.982737
v -0.293353 0.610402 0.211176
v 0.338337 0.610402 0.211176
v -0.293353 0.610402 -0.533846
v 0.338337 0.610402 -0.533846
v -0.361434 0.073822 -0.621732
v 0.406418 0.073822 -0.621732
v -0.293353 0.610402 0.211176
v 0.338336 0.610402 0.211176
v 0.338336 0.610402 -0.533846
v -0.293353 0.610402 -0.533846
v -0.293353 2.237435 0.390620
v 0.338337 2.237435 0.390620
v 0.338337 2.237435 -0.354403
v -0.293353 2.237435 -0.354403
v -0.293351 3.656764 -0.091099
v 0.338335 3.654892 -0.091099
v 0.338335 3.654892 -0.836118
v -0.293351 3.656764 -0.836118
vt 0.375000 0.000000
vt 0.625000 0.000000
vt 0.375000 0.250000
vt 0.625000 0.250000
vt 0.375000 0.500000
vt 0.625000 0.500000
vt 0.375000 0.750000
vt 0.625000 0.750000
vt 0.375000 1.000000
vt 0.625000 1.000000
vt 0.875000 0.000000
vt 0.875000 0.250000
vt 0.125000 0.000000
vt 0.125000 0.250000
vt 0.375000 0.250000
vt 0.625000 0.250000
vt 0.625000 0.500000
vt 0.375000 0.500000
vt 0.375000 0.250000
vt 0.625000 0.250000
vt 0.625000 0.500000
vt 0.375000 0.500000
vt 0.375000 0.250000
vt 0.625000 0.250000
vt 0.625000 0.500000
vt 0.375000 0.500000
vn 0.000000 0.820983 0.570952
vn 0.000000 0.820983 0.570952
vn 0.000000 0.820983 0.570952
vn 0.000000 0.820983 0.570952
vn 0.002964 0.999996 0.000000
vn 0.002964 0.999996 0.000000
vn 0.002964 0.999996 0.000000
vn 0.002964 0.999996 0.000000
vn 0.000000 0.161635 -0.986851
vn 0.000000 0.161635 -0.986851
vn 0.000000 0.161635 -0.986851
vn 0.000000 0.161635 -0.986851
vn 0.000000 -1.000000 0.000000
vn 0.000000 -1.000000 0.000000
vn 0.000000 -1.000000 0.000000
vn 0.000000 -1.000000 0.000000
vn 0.992047 0.125870 0.000000
vn 0.992047 0.125870 0.000000
vn 0.992047 0.125870 0.000000
vn 0.992047 0.125870 0.000000
vn -0.992047 0.125870 0.000000
vn -0.992047 0.125870 0.000000
vn -0.992047 0.125870 0.000000
vn -0.992047 0.125870 0.000000
vn 0.000000 0.000000 0.000000
vn 0.000000 0.000000 0.000000
vn 0.000000 0.000000 0.000000
vn 0.000000 0.000000 0.000000
vn 0.000000 1.000000 0.000000
vn 0.000000 1.000000 0.000000
vn 0.000000 1.000000 0.000000
vn 0.000000 1.000000 0.000000
vn 0.000000 0.999866 -0.016345
vn 0.000000 0.999866 -0.016345
vn 0.000000 0.999866 -0.016345
vn 0.000000 0.999866 -0.016345
vn 0.000000 1.000000 0.000000
vn 0.000000 1.000000 0.000000
vn 0.000000 1.000000 0.000000
vn 0.000000 1.000000 0.000000
vn 0.000000 -0.109624 0.993973
vn 0.000000 -0.109624 0.993973
vn 0.000233 0.098770 0.995110
vn 0.000233 0.098770 0.995110
vn 1.000000 -0.000000 0.000000
vn 1.000000 -0.000000 0.000000
vn 1.000000 0.000000 0.000000
vn 1.000000 0.000000 0.000000
vn 0.000000 0.109624 -0.993973
vn 0.000000 0.109624 -0.993973
vn -0.000233 -0.098769 -0.995110
vn -0.000233 -0.098769 -0.995110
vn -1.000000 -0.000000 0.000000
vn -1.000000 -0.000000 0.000000
vn -1.000000 0.000000 -0.000000
vn -1.000000 0.000001 -0.000000
vn 0.000477 0.321583 0.946881
vn 0.000477 0.321583 0.946881
vn 1.000000 0.000001 0.000000
vn 1.000000 0.000001 0.000000
vn -0.000477 -0.321580 -0.946882
vn -0.000477 -0.321580 -0.946882
vn -1.000000 0.000001 -0.000000
vn -1.000000 0.000001 -0.000000
s off
g pCube8
usemtl initialShadingGroup
f 1/1/1 2/2/2 4/4/3 3/3/4
f 17/23/5 18/24/6 19/25/7 20/26/8
f 5/5/9 6/6/10 8/8/11 7/7/12
f 7/7/13 8/8/14 2/10/15 1/9/16
f 2/2/17 8/11/18 6/12/19 4/4/20
f 7/13/21 1/1/22 3/3/23 5/14/24
f 3/3/25 4/4/26 10/16/27 9/15/28
f 4/4/29 6/6/30 11/17/31 10/16/32
f 6/6/33 5/5/34 12/18/35 11/17/36
f 5/5/37 3/3/38 9/15/39 12/18/40
s 1
f 9/15/41 10/16/42 14/20/43 13/19/44
s 2
f 10/16/45 11/17/46 15/21/47 14/20/48
s 3
f 11/17/49 12/18/50 16/22/51 15/21/52
s 4
f 12/18/53 9/15/54 13/19/55 16/22/56
s 1
f 13/19/44 14/20/43 18/24/57 17/23/58
s 2
f 14/20/48 15/21/47 19/25/59 18/24/60
s 3
f 15/21/52 16/22/51 20/26/61 19/25/62
s 4
f 16/22/56 13/19/55 17/23/63 20/26/64
