# This file uses centimeters as units for non-parametric coordinates.

mtllib max_sec_key.mtl
g default
v -0.978203 -1.309615 0.002585
v 0.978203 -1.309615 0.002585
v -0.978203 -1.309615 -0.002585
v -0.978203 1.309615 0.002585
v 0.978203 1.309615 0.002585
v -0.978203 1.309615 0.000862
v 0.021552 1.309615 0.000862
v 0.595718 1.309615 0.000862
v 0.978203 1.309615 0.000862
v -0.978203 1.309615 -0.000862
v 0.021552 1.309615 -0.000862
v 0.595718 1.309615 -0.000862
v 0.978203 1.309615 -0.000862
v -0.978203 1.309615 -0.002585
v 0.978203 1.309615 -0.002585
v 0.978203 -0.436538 -0.002585
v 0.978203 -1.309615 -0.002585
v -0.978203 -1.309615 -0.000862
v 0.021552 -1.309615 -0.000862
v 0.595718 -1.309615 -0.000862
v 0.978203 -1.309615 -0.000862
v -0.978203 -1.309615 0.000862
v 0.021552 -1.309615 0.000862
v 0.978203 -1.309615 0.000862
v 0.978203 -0.436538 -0.000862
v 0.978203 -0.436538 0.000862
v 0.978203 0.436538 -0.000862
v 0.978203 0.436538 0.000862
v -0.978203 -0.436538 -0.000862
v -0.978203 -0.436538 0.000862
v -0.978203 0.436538 -0.000862
v -0.978203 0.436538 0.000862
vt 0.738912 0.000000
vt 0.935565 0.166666
vt 0.738912 0.333333
vt 0.935565 0.833333
vt 0.738912 0.833333
vt 0.686471 0.500000
vt 0.591167 1.000000
vt 0.591167 0.000000
vt 0.458333 0.250000
vt 0.583333 0.250000
vt 0.541667 0.333333
vt 0.458333 0.333333
vt 0.625000 0.333333
vt 0.495862 1.000000
vt 0.495862 0.000000
vt 0.541667 0.416667
vt 0.458333 0.416667
vt 0.625000 0.416667
vt 0.914144 0.000000
vt 0.914144 1.000000
vt 0.749455 1.000000
vt 0.749455 0.000000
vt 0.029640 0.000000
vt 0.295883 0.000000
vt 0.295883 0.000000
vt 0.029640 0.166666
vt 0.583333 0.500000
vt 0.295883 0.333333
vt 0.583333 0.583333
vt 0.295883 0.833333
vt 0.029640 0.666667
vt 0.625000 0.666667
vt 0.541667 0.708333
vt 0.029640 1.000000
vt 0.625000 0.750000
vt 0.852022 0.000000
vt 0.852022 1.000000
vt 0.811576 1.000000
vt 0.811576 0.000000
vt 0.295883 1.000000
vt 0.029640 1.000000
vt 0.625000 0.833333
vt 0.541667 0.833333
vt 0.598326 0.000000
vt 0.598326 1.000000
vt 0.500000 1.000000
vt 0.500000 0.000000
vt 0.458333 0.833333
vt 0.562500 0.958333
vt 0.458333 0.916667
vt 0.625000 0.916667
vt 0.401674 0.500000
vt 0.458333 1.000000
vt 0.551372 0.000000
vt 0.654114 0.000000
vt 0.654114 0.333333
vt 0.551372 0.333333
vt 0.448629 0.000000
vt 0.448629 0.333333
vt 0.345886 0.166666
vt 0.654114 0.666667
vt 0.551372 0.666667
vt 0.448629 0.666667
vt 0.345886 0.833333
vt 0.654114 1.000000
vt 0.551372 1.000000
vt 0.448629 1.000000
vt 0.738912 0.833333
vt 0.935565 1.000000
vt 0.935565 0.666667
vt 0.452348 0.000000
vt 0.547652 0.000000
vt 0.547652 0.333333
vt 0.452348 0.333333
vt 0.642957 0.000000
vt 0.642957 0.333333
vt 0.935565 0.333333
vt 0.738912 0.333333
vt 0.547652 0.666667
vt 0.452348 0.666667
vt 0.642957 0.833333
vt 0.935565 0.000000
vt 0.738912 0.000000
vt 0.547652 1.000000
vt 0.452348 1.000000
vn 0.000000 1.000000 0.000000
vn 0.000000 1.000000 0.000000
vn 0.000000 1.000000 0.000000
vn -0.001321 -0.000987 0.999999
vn -0.001321 -0.000987 0.999999
vn -0.001321 -0.000987 0.999999
vn -0.001321 -0.000987 0.999999
vn 0.000000 1.000000 0.000000
vn 0.000000 1.000000 0.000000
vn 0.000000 1.000000 0.000000
vn 0.000000 1.000000 0.000109
vn 0.000000 1.000000 0.000109
vn 0.000000 1.000000 0.000109
vn 0.000000 1.000000 0.000109
vn 0.000000 1.000000 0.000000
vn 0.000000 1.000000 0.000000
vn 0.000000 1.000000 0.000000
vn 0.000000 1.000000 0.000000
vn 0.000000 1.000000 0.000000
vn 0.000000 1.000000 0.000000
vn 0.000000 1.000000 0.000000
vn 0.000000 1.000000 0.000000
vn 0.000000 1.000000 0.000000
vn 0.000000 1.000000 0.000000
vn 0.000000 1.000000 0.000000
vn 0.000000 1.000000 0.000000
vn 0.000000 1.000000 0.000000
vn 0.000000 1.000000 0.000000
vn 0.000000 1.000000 0.000000
vn 0.000000 -1.000000 0.000000
vn 0.000000 -1.000000 0.000000
vn 0.000000 -1.000000 0.000000
vn 0.000000 -1.000000 0.000000
vn 0.000000 -1.000000 -0.000814
vn 0.000000 -1.000000 -0.000814
vn 0.000000 -1.000000 -0.000814
vn 0.000000 -1.000000 -0.000814
vn 0.000000 1.000000 0.000000
vn 0.000000 1.000000 0.000000
vn 0.000000 1.000000 0.000000
vn 0.000000 -1.000000 0.000000
vn 0.000000 -1.000000 0.000000
vn 0.000000 -1.000000 0.000000
vn 0.001321 0.000987 -0.999999
vn 0.001321 0.000987 -0.999999
vn 0.001321 0.000987 -0.999999
vn 0.001321 0.000987 -0.999999
vn -1.000000 0.000000 0.000000
vn -1.000000 0.000000 0.000000
vn -1.000000 0.000000 0.000000
vn 0.000000 -1.000000 0.000000
vn 0.000000 -1.000000 0.000000
vn 0.000000 -1.000000 0.000000
vn -1.000000 0.000000 0.000000
vn -1.000000 0.000000 0.000000
vn -1.000000 0.000000 0.000000
vn 0.000000 1.000000 0.000000
vn 0.000000 1.000000 0.000000
vn 0.000000 1.000000 0.000000
vn 0.000000 1.000000 0.000000
vn 0.000000 1.000000 -0.000055
vn 0.000000 1.000000 -0.000055
vn 0.000000 1.000000 -0.000055
vn 0.000000 1.000000 -0.000055
vn 0.000000 1.000000 0.000000
vn 0.000000 1.000000 0.000000
vn 0.000000 1.000000 0.000000
vn 0.000000 1.000000 0.000000
vn 0.000000 -1.000000 0.000000
vn 0.000000 -1.000000 0.000000
vn 0.000000 -1.000000 0.000000
vn 0.000000 -1.000000 0.000000
vn 0.000000 -1.000000 0.000066
vn 0.000000 -1.000000 0.000066
vn 0.000000 -1.000000 0.000066
vn 0.000000 -1.000000 0.000066
vn 0.000000 -1.000000 0.000000
vn 0.000000 -1.000000 0.000000
vn 0.000000 -1.000000 0.000000
vn 0.000000 -1.000000 0.000000
vn 0.000000 -1.000000 0.000000
vn 0.000000 -1.000000 0.000000
vn 0.000000 -1.000000 0.000000
vn 0.000000 -1.000000 0.000071
vn 0.000000 -1.000000 0.000071
vn 0.000000 -1.000000 0.000071
vn 1.000000 0.000000 0.000000
vn 1.000000 0.000000 0.000000
vn 1.000000 0.000000 0.000000
vn 1.000000 0.000000 0.000000
vn 1.000000 0.000000 0.000000
vn 1.000000 0.000000 0.000000
vn 1.000000 0.000000 0.000000
vn 1.000000 0.000000 0.000000
vn 1.000000 0.000000 0.000000
vn 1.000000 0.000000 0.000000
vn 1.000000 0.000000 0.000000
vn -1.000000 0.000000 0.000000
vn -1.000000 0.000000 0.000000
vn -1.000000 0.000000 0.000000
vn -1.000000 0.000000 0.000000
vn 1.000000 0.000000 0.000000
vn 1.000000 0.000000 0.000000
vn 1.000000 0.000000 0.000000
vn 1.000000 0.000000 0.000000
vn 1.000000 0.000000 0.000000
vn 1.000000 0.000000 0.000000
vn 1.000000 0.000000 0.000000
vn 1.000000 0.000000 0.000000
vn -1.000000 0.000000 0.000000
vn -1.000000 0.000000 0.000000
vn -1.000000 0.000000 0.000000
vn -1.000000 0.000000 0.000000
vn 1.000000 0.000000 0.000000
vn 1.000000 0.000000 0.000000
vn 1.000000 0.000000 0.000000
vn 1.000000 0.000000 0.000000
vn 1.000000 0.000000 0.000000
vn 1.000000 0.000000 0.000000
vn 1.000000 0.000000 0.000000
vn -1.000000 0.000000 0.000000
vn -1.000000 0.000000 0.000000
vn -1.000000 0.000000 0.000000
vn -1.000000 0.000000 0.000000
vn -1.000000 0.000000 0.000000
vn -1.000000 0.000000 0.000000
vn -1.000000 0.000000 0.000000
vn 1.000000 0.000000 0.000000
vn 1.000000 0.000000 0.000000
vn 1.000000 0.000000 0.000000
vn 1.000000 0.000000 0.000000
vn 1.000000 0.000000 0.000000
vn 1.000000 0.000000 0.000000
vn 1.000000 0.000000 0.000000
vn 1.000000 0.000000 0.000000
vn -1.000000 0.000000 0.000000
vn -1.000000 0.000000 0.000000
vn -1.000000 0.000000 0.000000
vn -1.000000 0.000000 0.000000
vn 1.000000 0.000000 0.000000
vn 1.000000 0.000000 0.000000
vn 1.000000 0.000000 0.000000
vn 1.000000 0.000000 0.000000
vn 1.000000 0.000000 0.000000
vn 1.000000 0.000000 0.000000
vn 1.000000 0.000000 0.000000
vn 1.000000 0.000000 0.000000
vn -1.000000 0.000000 0.000000
vn -1.000000 0.000000 0.000000
vn -1.000000 0.000000 0.000000
vn -1.000000 0.000000 0.000000
vn -1.000000 0.000000 0.000000
vn -1.000000 0.000000 0.000000
vn -1.000000 0.000000 0.000000
s off
g group
usemtl blinn1SG
f 1/1/1 2/2/2 3/3/3
s 1
f 3/3/4 2/2/5 4/5/6
f 4/5/6 2/2/5 5/4/7
s off
f 4/6/8 7/7/9 6/8/10
s 2
f 4/9/11 5/10/12 7/12/13
f 7/12/13 5/10/12 8/11/14
s off
f 5/10/15 9/13/16 8/11/17
s 3
f 6/8/18 7/7/19 10/15/20
f 10/15/20 7/7/19 11/14/21
s 4
f 7/12/22 8/11/23 11/17/24
f 11/17/24 8/11/23 12/16/25
s 5
f 8/11/26 9/13/27 12/16/28
f 12/16/28 9/13/27 13/18/29
s 6
f 14/22/30 10/19/31 4/21/32
s 7
f 10/19/31 11/20/33 4/21/32
s 8
f 4/26/34 11/23/35 15/25/36
f 11/23/35 12/24/37 15/25/36
s off
f 12/16/38 13/18/39 15/27/40
f 4/26/41 15/25/42 5/28/43
s 9
f 4/26/44 5/28/45 3/31/46
f 3/31/46 5/28/45 2/30/47
s off
f 5/29/48 16/32/49 2/33/50
f 3/31/51 2/30/52 1/34/53
f 2/33/54 16/32/55 17/35/56
s 10
f 3/36/57 1/37/58 18/39/59
f 1/37/58 19/38/60 18/39/59
s 11
f 1/34/61 2/30/62 19/41/63
f 19/41/63 2/30/62 20/40/64
s 12
f 17/35/65 21/42/66 2/33/67
f 2/33/67 21/42/66 20/43/68
s 13
f 18/44/69 19/45/70 22/47/71
f 22/47/71 19/45/70 23/46/72
s 14
f 19/48/73 20/43/74 23/50/75
f 23/50/75 20/43/74 2/49/76
s 15
f 21/42/77 24/51/78 20/43/79
f 20/43/79 24/51/78 2/49/80
s off
f 22/47/81 23/46/82 1/52/83
f 23/50/84 2/49/85 1/53/86
s 16
f 21/54/87 17/55/88 25/57/89
f 25/57/89 17/55/88 16/56/90
s 17
f 24/58/91 21/54/92 26/59/93
f 26/59/93 21/54/92 25/57/94
s off
f 2/60/95 24/58/96 26/59/97
s 18
f 5/61/98 27/62/99 16/56/100
f 25/57/101 16/56/100 27/62/99
s 19
f 26/59/102 25/57/103 28/63/104
f 28/63/104 25/57/103 27/62/105
s 20
f 2/60/106 26/59/107 5/64/108
f 5/64/108 26/59/107 28/63/109
s 21
f 15/65/110 13/66/111 5/61/112
f 27/62/113 5/61/112 13/66/111
s 22
f 28/63/114 27/62/115 9/67/116
f 9/67/116 27/62/115 13/66/117
s off
f 5/64/118 28/63/119 9/67/120
f 3/68/121 18/69/122 29/70/123
s 23
f 18/71/124 22/72/125 29/74/126
f 29/74/126 22/72/125 30/73/127
s 24
f 1/75/128 3/76/129 22/72/130
f 22/72/130 3/76/129 30/73/131
s 25
f 3/68/132 29/70/133 4/78/134
f 29/70/133 31/77/135 4/78/134
s 26
f 29/74/136 30/73/137 31/80/138
f 31/80/138 30/73/137 32/79/139
s 27
f 4/81/140 32/79/141 3/76/142
f 30/73/143 3/76/142 32/79/141
s 7
f 14/83/144 4/78/145 10/82/146
s 6
f 4/78/145 31/77/147 10/82/146
s 28
f 31/80/148 32/79/149 10/85/150
f 10/85/150 32/79/149 6/84/151
s off
f 32/79/152 4/81/153 6/84/154
