# This file uses centimeters as units for non-parametric coordinates.

mtllib med_sec_key.mtl
g default
v -0.978203 -1.309615 0.002585
v -0.978203 -1.309615 -0.002585
v 0.978203 -1.309615 0.000862
v 0.978203 -1.309615 0.002585
v -0.978203 1.309615 0.002585
v 0.978203 1.309615 -0.000862
v 0.978203 1.309615 0.002585
v -0.978203 1.309615 0.000862
v 0.021552 1.309615 0.000862
v 0.595718 1.309615 0.000862
v 0.978203 1.309615 0.000862
v -0.978203 1.309615 -0.000862
v 0.595718 1.309615 -0.000862
v -0.978203 1.309615 -0.002585
v -0.978203 0.436538 -0.002585
v -0.978203 -0.436538 -0.002585
v 0.978203 -1.309615 -0.002585
v -0.978203 -1.309615 -0.000862
v 0.021552 -1.309615 -0.000862
v 0.595718 -1.309615 -0.000862
v 0.978203 -1.309615 -0.000862
v -0.978203 -1.309615 0.000862
v 0.021552 -1.309615 0.000862
v 0.595718 -1.309615 0.000862
v 0.978203 -0.436538 -0.000862
v 0.978203 -0.436538 0.000862
v 0.978203 0.436538 0.000862
v -0.978203 -0.436538 -0.000862
v -0.978203 -0.436538 0.000862
v -0.978203 0.436538 -0.000862
v -0.978203 0.436538 0.000862
vt 0.738912 0.166666
vt 0.935565 0.000000
vt 0.935565 0.333333
vt 0.543514 0.166666
vt 0.686471 0.333333
vt 0.935565 0.833333
vt 0.738912 0.833333
vt 0.472036 0.833333
vt 0.686471 0.500000
vt 0.591167 1.000000
vt 0.591167 0.000000
vt 0.458333 0.250000
vt 0.541667 0.250000
vt 0.541667 0.333333
vt 0.458333 0.333333
vt 0.625000 0.250000
vt 0.625000 0.333333
vt 0.495862 0.500000
vt 0.541667 0.416667
vt 0.458333 0.416667
vt 0.583333 0.520833
vt 0.914144 0.500000
vt 0.749455 1.000000
vt 0.749455 0.000000
vt 0.029640 0.000000
vt 0.295883 0.000000
vt 0.295883 0.166666
vt 0.029640 0.166666
vt 0.982017 0.000000
vt 0.946450 1.000000
vt 0.910882 0.000000
vt 0.804178 0.750000
vt 0.839746 0.000000
vt 0.295883 0.833333
vt 0.029640 0.833333
vt 0.625000 0.666667
vt 0.541667 0.708333
vt 0.625000 0.750000
vt 0.852022 0.500000
vt 0.811576 1.000000
vt 0.811576 0.000000
vt 0.295883 1.000000
vt 0.029640 1.000000
vt 0.625000 0.833333
vt 0.541667 0.833333
vt 0.598326 0.000000
vt 0.598326 1.000000
vt 0.500000 1.000000
vt 0.500000 0.000000
vt 0.458333 0.833333
vt 0.541667 0.916667
vt 0.458333 0.916667
vt 0.583333 0.958333
vt 0.401674 1.000000
vt 0.401674 0.000000
vt 0.458333 1.000000
vt 0.551372 0.000000
vt 0.654114 0.000000
vt 0.654114 0.333333
vt 0.551372 0.333333
vt 0.397258 0.166666
vt 0.448629 0.333333
vt 0.602743 0.750000
vt 0.448629 0.666667
vt 0.345886 0.666667
vt 0.448629 1.000000
vt 0.345886 1.000000
vt 0.738912 1.000000
vt 0.935565 1.000000
vt 0.935565 0.666667
vt 0.738912 0.666667
vt 0.452348 0.000000
vt 0.547652 0.000000
vt 0.547652 0.333333
vt 0.452348 0.333333
vt 0.642957 0.000000
vt 0.642957 0.333333
vt 0.935565 0.333333
vt 0.738912 0.333333
vt 0.547652 0.666667
vt 0.452348 0.666667
vt 0.642957 0.833333
vt 0.935565 0.000000
vt 0.738912 0.000000
vt 0.547652 1.000000
vt 0.452348 1.000000
vn 0.000000 -1.000000 0.000000
vn 0.000000 -1.000000 0.000000
vn 0.000000 -1.000000 0.000000
vn -0.000440 -0.000329 1.000000
vn -0.000440 -0.000329 1.000000
vn -0.000440 -0.000329 1.000000
vn -0.000440 -0.000329 1.000000
vn 1.000000 -0.000000 0.000000
vn 1.000000 -0.000000 0.000000
vn 1.000000 -0.000000 0.000000
vn 0.000000 1.000000 0.000000
vn 0.000000 1.000000 0.000000
vn 0.000000 1.000000 0.000000
vn 0.000000 -1.000000 0.000448
vn 0.000000 -1.000000 0.000448
vn 0.000000 -1.000000 0.000448
vn 0.000000 -1.000000 0.000448
vn 0.000000 -1.000000 0.000000
vn 0.000000 -1.000000 0.000000
vn 0.000000 -1.000000 0.000000
vn 0.000000 -1.000000 0.000000
vn 0.000000 1.000000 0.000000
vn 0.000000 1.000000 0.000000
vn 0.000000 1.000000 0.000000
vn 0.000000 1.000000 -0.000129
vn 0.000000 1.000000 -0.000129
vn 0.000000 1.000000 -0.000129
vn 0.000000 1.000000 -0.000129
vn 0.000000 1.000000 0.000000
vn 0.000000 1.000000 0.000000
vn 0.000000 1.000000 0.000000
vn 0.000000 1.000000 0.000000
vn 0.000000 0.000000 0.000000
vn 0.000000 0.000000 0.000000
vn 0.000000 0.000000 0.000000
vn 0.000000 -1.000000 0.000000
vn 0.000000 -1.000000 0.000000
vn 0.000000 -1.000000 0.000000
vn 0.000000 -1.000000 0.000000
vn 1.000000 0.000000 0.000000
vn 1.000000 0.000000 0.000000
vn 1.000000 0.000000 0.000000
vn 1.000000 0.000000 0.000000
vn 1.000000 0.000000 0.000000
vn 1.000000 0.000000 0.000000
vn 1.000000 0.000000 0.000000
vn 0.000000 0.000658 -1.000000
vn 0.000000 0.000658 -1.000000
vn 0.000000 0.000658 -1.000000
vn 0.000000 0.000658 -1.000000
vn 1.000000 -0.000000 0.000000
vn 1.000000 -0.000000 0.000000
vn 1.000000 -0.000000 0.000000
vn 0.000000 0.000000 0.000000
vn 0.000000 0.000000 0.000000
vn 0.000000 0.000000 0.000000
vn 0.000000 -1.000000 0.000000
vn 0.000000 -1.000000 0.000000
vn 0.000000 -1.000000 0.000000
vn 0.000000 1.000000 -0.000448
vn 0.000000 1.000000 -0.000448
vn 0.000000 1.000000 -0.000448
vn 0.000000 1.000000 -0.000448
vn 0.000000 1.000000 0.000000
vn 0.000000 1.000000 0.000000
vn 0.000000 1.000000 0.000000
vn 0.000000 1.000000 0.000000
vn 0.000000 -1.000000 0.000000
vn 0.000000 -1.000000 0.000000
vn 0.000000 -1.000000 0.000000
vn 0.000000 -1.000000 0.000000
vn 0.000000 -1.000000 0.000000
vn 0.000000 -1.000000 0.000000
vn 0.000000 -1.000000 0.000000
vn 0.000000 -1.000000 0.000000
vn 0.000000 -1.000000 0.000000
vn 0.000000 -1.000000 0.000000
vn 0.000000 -1.000000 0.000000
vn 0.000000 -1.000000 0.000000
vn 0.000000 1.000000 0.000000
vn 0.000000 1.000000 0.000000
vn 0.000000 1.000000 0.000000
vn 0.000000 1.000000 0.000000
vn 0.000000 1.000000 0.000145
vn 0.000000 1.000000 0.000145
vn 0.000000 1.000000 0.000145
vn 0.000000 1.000000 0.000145
vn -1.000000 0.000000 0.000000
vn -1.000000 0.000000 0.000000
vn -1.000000 0.000000 0.000000
vn -1.000000 0.000000 0.000000
vn 1.000000 0.000000 0.000000
vn 1.000000 0.000000 0.000000
vn 1.000000 0.000000 0.000000
vn 1.000000 0.000000 0.000000
vn -1.000000 -0.000000 0.000000
vn -1.000000 -0.000000 0.000000
vn -1.000000 -0.000000 0.000000
vn 1.000000 -0.000000 0.000000
vn 1.000000 -0.000000 0.000000
vn 1.000000 -0.000000 0.000000
vn 1.000000 -0.000000 0.000000
vn -1.000000 0.000000 0.000000
vn -1.000000 0.000000 0.000000
vn -1.000000 0.000000 0.000000
vn -1.000000 0.000000 0.000000
vn 1.000000 0.000000 0.000000
vn 1.000000 0.000000 0.000000
vn 1.000000 0.000000 0.000000
vn -1.000000 0.000000 0.000000
vn -1.000000 0.000000 0.000000
vn -1.000000 0.000000 0.000000
vn -1.000000 0.000000 0.000000
vn -1.000000 0.000000 0.000000
vn -1.000000 0.000000 0.000000
vn -1.000000 0.000000 0.000000
vn -1.000000 0.000000 0.000000
vn -1.000000 0.000000 0.000000
vn -1.000000 0.000000 0.000000
vn -1.000000 0.000000 0.000000
vn -1.000000 0.000000 0.000000
vn 1.000000 0.000000 0.000000
vn 1.000000 0.000000 0.000000
vn 1.000000 0.000000 0.000000
vn 1.000000 0.000000 0.000000
vn -1.000000 0.000000 0.000000
vn -1.000000 0.000000 0.000000
vn -1.000000 0.000000 0.000000
vn -1.000000 0.000000 0.000000
vn -1.000000 0.000000 0.000000
vn -1.000000 0.000000 0.000000
vn -1.000000 0.000000 0.000000
vn -1.000000 0.000000 0.000000
vn 1.000000 0.000000 0.000000
vn 1.000000 0.000000 0.000000
vn 1.000000 0.000000 0.000000
vn 1.000000 0.000000 0.000000
vn -1.000000 0.000000 0.000000
vn -1.000000 0.000000 0.000000
vn -1.000000 0.000000 0.000000
vn -1.000000 0.000000 0.000000
vn -1.000000 0.000000 0.000000
vn -1.000000 0.000000 0.000000
vn -1.000000 0.000000 0.000000
vn -1.000000 0.000000 0.000000
vn -1.000000 0.000000 0.000000
vn -1.000000 0.000000 0.000000
vn -1.000000 0.000000 0.000000
s off
g pasted__pCube1 group
usemtl blinn1SG
f 2/1/1 3/2/2 4/3/3
s 1
f 2/1/4 4/3/5 5/7/6
f 5/7/6 4/3/5 6/6/7
s off
f 4/4/8 3/5/9 6/8/10
f 5/9/11 9/10/12 8/11/13
s 2
f 5/12/14 6/13/15 9/15/16
f 6/13/15 10/14/17 9/15/16
s off
f 7/16/18 11/17/19 6/13/20
s 3
f 6/13/20 11/17/19 10/14/21
s off
f 8/11/22 9/10/23 12/18/24
s 4
f 10/14/25 13/19/26 9/15/27
f 9/15/27 13/19/26 12/20/28
s 5
f 10/14/29 11/17/30 13/19/31
f 13/19/31 11/17/30 6/21/32
s off
f 12/22/33 5/23/34 14/24/35
s 6
f 12/25/36 13/26/37 5/28/38
f 5/28/38 13/26/37 6/27/39
s off
f 14/29/40 5/30/41 15/31/42
s 7
f 15/31/43 5/30/44 16/33/45
f 16/33/45 5/30/44 2/32/46
s 8
f 5/28/47 6/27/48 2/35/49
f 2/35/49 6/27/48 3/34/50
s off
f 6/21/51 4/36/52 3/37/53
f 3/37/54 4/36/55 17/38/56
f 2/39/57 19/40/58 18/41/59
s 9
f 2/35/60 3/34/61 19/43/62
f 3/34/61 20/42/63 19/43/62
s off
f 17/38/64 21/44/65 3/37/66
f 3/37/66 21/44/65 20/45/67
s 10
f 18/46/68 19/47/69 22/49/70
f 22/49/70 19/47/69 23/48/71
s 11
f 19/50/72 20/45/73 23/52/74
f 23/52/74 20/45/73 24/51/75
s 12
f 20/45/76 21/44/77 24/51/78
f 24/51/78 21/44/77 3/53/79
s 13
f 1/55/80 22/49/81 2/54/82
s 14
f 22/49/81 23/48/83 2/54/82
s 15
f 3/53/84 2/56/85 24/51/86
f 23/52/87 24/51/86 2/56/85
s 16
f 17/58/88 4/59/89 21/57/90
f 21/57/90 4/59/89 25/60/91
s 17
f 3/61/92 21/57/93 26/62/94
f 26/62/94 21/57/93 25/60/95
s off
f 25/60/96 4/59/97 6/63/98
s 18
f 26/62/99 25/60/100 27/64/101
f 27/64/101 25/60/100 6/63/102
s 19
f 3/61/103 26/62/104 6/65/105
f 6/65/105 26/62/104 27/64/106
s off
f 27/64/107 6/63/108 11/66/109
s 3
f 7/67/110 6/65/111 11/66/112
s off
f 6/65/111 27/64/113 11/66/112
s 20
f 2/68/114 18/69/115 16/71/116
f 16/71/116 18/69/115 28/70/117
s 21
f 18/72/118 22/73/119 28/75/120
f 28/75/120 22/73/119 29/74/121
s 14
f 1/76/122 2/77/123 22/73/124
s 13
f 22/73/124 2/77/123 29/74/125
s 22
f 16/71/126 28/70/127 15/79/128
f 15/79/128 28/70/127 30/78/129
s 23
f 28/75/130 29/74/131 30/81/132
f 30/81/132 29/74/131 31/80/133
s 24
f 5/82/134 31/80/135 2/77/136
f 29/74/137 2/77/136 31/80/135
s 25
f 15/79/138 30/78/139 14/84/140
f 14/84/140 30/78/139 12/83/141
s 26
f 30/81/142 31/80/143 12/86/144
f 12/86/144 31/80/143 8/85/145
s off
f 31/80/146 5/82/147 8/85/148
