# This file uses centimeters as units for non-parametric coordinates.

mtllib min_sec_key.mtl
g default
v -0.978203 -1.309615 0.002585
v -0.978203 -1.309615 -0.002585
v 0.978203 -1.309615 -0.000862
v 0.978203 -1.309615 0.002585
v -0.978203 0.436538 0.002585
v -0.978203 1.309615 0.002585
v 0.978203 1.309615 -0.002585
v 0.978203 1.309615 0.002585
v -0.978203 1.309615 0.000862
v 0.021552 1.309615 0.000862
v 0.595718 1.309615 0.000862
v 0.978203 1.309615 0.000862
v -0.978203 1.309615 -0.000862
v 0.021552 1.309615 -0.000862
v 0.595718 1.309615 -0.000862
v 0.978203 1.309615 -0.000862
v -0.978203 1.309615 -0.002585
v 0.978203 0.436538 -0.002585
v -0.978203 -0.436538 -0.002585
v 0.978203 -0.436538 -0.002585
v -0.978203 -1.309615 -0.000862
v 0.021552 -1.309615 -0.000862
v 0.595718 -1.309615 -0.000862
v -0.978203 -1.309615 0.000862
v 0.021552 -1.309615 0.000862
v 0.595718 -1.309615 0.000862
v 0.978203 -1.309615 0.000862
v 0.978203 -0.436538 -0.000862
v 0.978203 -0.436538 0.000862
v 0.978203 0.436538 -0.000862
v 0.978203 0.436538 0.000862
v -0.978203 -0.436538 -0.000862
v -0.978203 -0.436538 0.000862
v -0.978203 0.436538 -0.000862
v -0.978203 0.436538 0.000862
vt 0.580428 0.750000
vt 0.738912 0.166666
vt 0.935565 0.166666
vt 0.419572 0.750000
vt 0.459786 0.000000
vt 0.935565 0.833333
vt 0.738912 0.833333
vt 0.686471 0.500000
vt 0.591167 1.000000
vt 0.591167 0.000000
vt 0.458333 0.250000
vt 0.541667 0.250000
vt 0.541667 0.333333
vt 0.458333 0.333333
vt 0.625000 0.250000
vt 0.625000 0.333333
vt 0.495862 1.000000
vt 0.495862 0.000000
vt 0.541667 0.416667
vt 0.458333 0.416667
vt 0.625000 0.416667
vt 0.914144 0.000000
vt 0.914144 1.000000
vt 0.749455 1.000000
vt 0.749455 0.000000
vt 0.029640 0.000000
vt 0.295883 0.000000
vt 0.295883 0.166666
vt 0.029640 0.166666
vt 0.562500 0.541667
vt 0.946450 0.750000
vt 0.625000 0.583333
vt 0.804178 0.750000
vt 0.839746 0.000000
vt 0.295883 0.833333
vt 0.029640 0.833333
vt 0.625000 0.666667
vt 0.572917 0.729167
vt 0.852022 0.500000
vt 0.811576 1.000000
vt 0.811576 0.000000
vt 0.295883 1.000000
vt 0.029640 1.000000
vt 0.541667 0.833333
vt 0.598326 0.000000
vt 0.598326 1.000000
vt 0.500000 1.000000
vt 0.500000 0.000000
vt 0.458333 0.833333
vt 0.541667 0.916667
vt 0.458333 0.916667
vt 0.625000 0.916667
vt 0.401674 1.000000
vt 0.401674 0.000000
vt 0.541667 1.000000
vt 0.458333 1.000000
vt 0.625000 1.000000
vt 0.602743 0.000000
vt 0.654114 0.333333
vt 0.551372 0.333333
vt 0.448629 0.000000
vt 0.448629 0.333333
vt 0.345886 0.000000
vt 0.345886 0.333333
vt 0.654114 0.666667
vt 0.551372 0.666667
vt 0.448629 0.666667
vt 0.345886 0.666667
vt 0.654114 1.000000
vt 0.551372 1.000000
vt 0.448629 1.000000
vt 0.345886 1.000000
vt 0.738912 1.000000
vt 0.935565 1.000000
vt 0.935565 0.666667
vt 0.738912 0.666667
vt 0.452348 0.000000
vt 0.547652 0.000000
vt 0.547652 0.333333
vt 0.452348 0.333333
vt 0.642957 0.000000
vt 0.642957 0.333333
vt 0.935565 0.333333
vt 0.738912 0.333333
vt 0.547652 0.666667
vt 0.452348 0.666667
vt 0.642957 0.666667
vt 0.935565 0.000000
vt 0.738912 0.000000
vt 0.547652 1.000000
vt 0.452348 1.000000
vt 0.642957 1.000000
vn 1.000000 0.000000 0.000000
vn 1.000000 0.000000 0.000000
vn 1.000000 0.000000 0.000000
vn 0.000881 -0.000658 0.999999
vn 0.000881 -0.000658 0.999999
vn 0.000881 -0.000658 0.999999
vn 0.000881 -0.000658 0.999999
vn 0.000000 1.000000 0.000000
vn 0.000000 1.000000 0.000000
vn 0.000000 1.000000 0.000000
vn 0.000000 -1.000000 0.000126
vn 0.000000 -1.000000 0.000126
vn 0.000000 -1.000000 0.000126
vn 0.000000 -1.000000 0.000126
vn 0.000000 -1.000000 0.000000
vn 0.000000 -1.000000 0.000000
vn 0.000000 -1.000000 0.000000
vn 0.000000 -1.000000 0.000000
vn 0.000000 1.000000 0.000000
vn 0.000000 1.000000 0.000000
vn 0.000000 1.000000 0.000000
vn 0.000000 1.000000 0.000000
vn 0.000000 1.000000 0.000000
vn 0.000000 1.000000 0.000000
vn 0.000000 1.000000 0.000000
vn 0.000000 1.000000 0.000000
vn 0.000000 1.000000 0.000000
vn 0.000000 1.000000 0.000000
vn 0.000000 1.000000 0.000000
vn 0.000000 1.000000 0.000000
vn 0.000000 -1.000000 0.000000
vn 0.000000 -1.000000 0.000000
vn 0.000000 -1.000000 0.000000
vn 0.000000 -1.000000 0.000000
vn 0.000000 -1.000000 -0.000814
vn 0.000000 -1.000000 -0.000814
vn 0.000000 -1.000000 -0.000814
vn 0.000000 -1.000000 -0.000814
vn 0.000000 1.000000 0.000000
vn 0.000000 1.000000 0.000000
vn 0.000000 1.000000 0.000000
vn 1.000000 0.000000 0.000000
vn 1.000000 0.000000 0.000000
vn 1.000000 0.000000 0.000000
vn -0.000881 0.000658 -0.999999
vn -0.000881 0.000658 -0.999999
vn -0.000881 0.000658 -0.999999
vn -0.000881 0.000658 -0.999999
vn -1.000000 0.000000 0.000000
vn -1.000000 0.000000 0.000000
vn -1.000000 0.000000 0.000000
vn -1.000000 0.000000 0.000000
vn 0.000000 -1.000000 0.000000
vn 0.000000 -1.000000 0.000000
vn 0.000000 -1.000000 0.000000
vn 0.000000 -1.000000 -0.000289
vn 0.000000 -1.000000 -0.000289
vn 0.000000 -1.000000 -0.000289
vn 0.000000 -1.000000 -0.000289
vn 0.000000 -1.000000 0.000000
vn 0.000000 -1.000000 0.000000
vn 0.000000 -1.000000 0.000000
vn 0.000000 -1.000000 0.000000
vn 0.000000 -1.000000 0.000000
vn 0.000000 -1.000000 0.000000
vn 0.000000 -1.000000 0.000000
vn 0.000000 -1.000000 0.000000
vn 0.000000 -1.000000 0.000000
vn 0.000000 -1.000000 0.000000
vn 0.000000 -1.000000 0.000000
vn 0.000000 -1.000000 0.000000
vn 0.000000 1.000000 0.000000
vn 0.000000 1.000000 0.000000
vn 0.000000 1.000000 0.000000
vn 0.000000 1.000000 0.000000
vn 0.000000 1.000000 0.000079
vn 0.000000 1.000000 0.000079
vn 0.000000 1.000000 0.000079
vn 0.000000 1.000000 0.000079
vn 0.000000 1.000000 0.000000
vn 0.000000 1.000000 0.000000
vn 0.000000 1.000000 0.000000
vn 0.000000 1.000000 0.000000
vn 1.000000 0.000000 0.000000
vn 1.000000 0.000000 0.000000
vn 1.000000 0.000000 0.000000
vn 1.000000 0.000000 0.000000
vn 1.000000 0.000000 0.000000
vn 1.000000 0.000000 0.000000
vn 1.000000 0.000000 0.000000
vn -1.000000 -0.000000 0.000000
vn -1.000000 -0.000000 0.000000
vn -1.000000 -0.000000 0.000000
vn -1.000000 -0.000000 0.000000
vn 1.000000 0.000000 0.000000
vn 1.000000 0.000000 0.000000
vn 1.000000 0.000000 0.000000
vn 1.000000 0.000000 0.000000
vn 1.000000 0.000000 0.000000
vn 1.000000 0.000000 0.000000
vn 1.000000 0.000000 0.000000
vn 1.000000 0.000000 0.000000
vn -1.000000 0.000000 0.000000
vn -1.000000 0.000000 0.000000
vn -1.000000 0.000000 0.000000
vn -1.000000 0.000000 0.000000
vn 1.000000 0.000000 0.000000
vn 1.000000 0.000000 0.000000
vn 1.000000 0.000000 0.000000
vn 1.000000 0.000000 0.000000
vn 1.000000 0.000000 0.000000
vn 1.000000 0.000000 0.000000
vn 1.000000 0.000000 0.000000
vn 1.000000 0.000000 0.000000
vn -1.000000 0.000000 0.000000
vn -1.000000 0.000000 0.000000
vn -1.000000 0.000000 0.000000
vn -1.000000 0.000000 0.000000
vn -1.000000 0.000000 0.000000
vn -1.000000 0.000000 0.000000
vn -1.000000 0.000000 0.000000
vn -1.000000 0.000000 0.000000
vn -1.000000 0.000000 0.000000
vn -1.000000 0.000000 0.000000
vn -1.000000 0.000000 0.000000
vn -1.000000 0.000000 0.000000
vn 1.000000 0.000000 0.000000
vn 1.000000 0.000000 0.000000
vn 1.000000 0.000000 0.000000
vn 1.000000 0.000000 0.000000
vn 1.000000 0.000000 0.000000
vn 1.000000 0.000000 0.000000
vn 1.000000 0.000000 0.000000
vn 1.000000 0.000000 0.000000
vn -1.000000 0.000000 0.000000
vn -1.000000 0.000000 0.000000
vn -1.000000 0.000000 0.000000
vn -1.000000 0.000000 0.000000
vn 1.000000 0.000000 0.000000
vn 1.000000 0.000000 0.000000
vn 1.000000 0.000000 0.000000
vn 1.000000 0.000000 0.000000
vn 1.000000 0.000000 0.000000
vn 1.000000 0.000000 0.000000
vn 1.000000 0.000000 0.000000
vn 1.000000 0.000000 0.000000
vn -1.000000 0.000000 0.000000
vn -1.000000 0.000000 0.000000
vn -1.000000 0.000000 0.000000
vn -1.000000 0.000000 0.000000
vn -1.000000 0.000000 0.000000
vn -1.000000 0.000000 0.000000
vn -1.000000 0.000000 0.000000
vn -1.000000 0.000000 0.000000
s off
g pCube1
usemtl blinn4SG
f 2/1/1 6/4/2 5/5/3
s 1
f 2/2/4 3/3/5 6/7/6
f 6/7/6 3/3/5 7/6/7
s off
f 6/8/8 10/9/9 9/10/10
s 2
f 6/11/11 7/12/12 10/14/13
f 10/14/13 7/12/12 11/13/14
s 3
f 8/15/15 12/16/16 7/12/17
s 4
f 7/12/17 12/16/16 11/13/18
s 5
f 9/10/19 10/9/20 13/18/21
f 13/18/21 10/9/20 14/17/22
s 6
f 10/14/23 11/13/24 14/20/25
f 14/20/25 11/13/24 15/19/26
s 7
f 11/13/27 12/16/28 15/19/29
f 15/19/29 12/16/28 16/21/30
s 8
f 17/25/31 13/22/32 6/24/33
s 9
f 13/22/32 14/23/34 6/24/33
s 10
f 6/29/35 14/26/36 7/28/37
f 14/26/36 15/27/38 7/28/37
s off
f 15/19/39 16/21/40 7/30/41
f 6/31/42 2/33/43 19/34/44
s 11
f 6/29/45 7/28/46 2/36/47
f 2/36/47 7/28/46 3/35/48
s 12
f 7/30/49 18/32/50 3/38/51
f 3/38/51 18/32/50 20/37/52
s off
f 2/39/53 22/40/54 21/41/55
s 13
f 3/35/56 23/42/57 2/36/58
f 2/36/58 23/42/57 22/43/59
s 14
f 21/45/60 22/46/61 24/48/62
f 24/48/62 22/46/61 25/47/63
s 15
f 22/49/64 23/44/65 25/51/66
f 25/51/66 23/44/65 26/50/67
s 16
f 23/44/68 3/38/69 26/50/70
s off
f 26/50/70 3/38/69 27/52/71
s 17
f 1/54/72 24/48/73 2/53/74
s 18
f 24/48/73 25/47/75 2/53/74
s 19
f 26/50/76 3/55/77 25/51/78
f 25/51/78 3/55/77 2/56/79
s off
f 4/57/80 3/55/81 27/52/82
s 16
f 26/50/83 27/52/82 3/55/81
s off
f 3/58/84 20/59/85 28/60/86
s 20
f 27/61/87 3/58/88 29/62/89
s off
f 29/62/89 3/58/88 28/60/90
s 16
f 4/63/91 27/61/92 3/64/93
s off
f 27/61/92 29/62/94 3/64/93
s 21
f 28/60/95 20/59/96 30/66/97
f 30/66/97 20/59/96 18/65/98
s 22
f 29/62/99 28/60/100 31/67/101
f 31/67/101 28/60/100 30/66/102
s 20
f 3/64/103 29/62/104 7/68/105
f 7/68/105 29/62/104 31/67/106
s 23
f 30/66/107 18/65/108 16/70/109
f 16/70/109 18/65/108 7/69/110
s 24
f 31/67/111 30/66/112 12/71/113
f 12/71/113 30/66/112 16/70/114
s 4
f 8/72/115 7/68/116 12/71/117
s 3
f 7/68/116 31/67/118 12/71/117
s 25
f 2/73/119 21/74/120 19/76/121
f 19/76/121 21/74/120 32/75/122
s 26
f 21/77/123 24/78/124 32/80/125
f 32/80/125 24/78/124 33/79/126
s 18
f 1/81/127 2/82/128 24/78/129
s 17
f 24/78/129 2/82/128 33/79/130
s 27
f 6/84/131 19/76/132 34/83/133
f 19/76/132 32/75/134 34/83/133
s 28
f 32/80/135 33/79/136 34/86/137
f 34/86/137 33/79/136 35/85/138
s 29
f 2/82/139 5/87/140 33/79/141
f 33/79/141 5/87/140 35/85/142
s 9
f 17/89/143 6/84/144 13/88/145
s 8
f 6/84/144 34/83/146 13/88/145
s 30
f 34/86/147 35/85/148 13/91/149
f 13/91/149 35/85/148 9/90/150
s 31
f 35/85/151 5/87/152 9/90/153
f 9/90/153 5/87/152 6/92/154
