# This file uses centimeters as units for non-parametric coordinates.

mtllib screwdriver.mtl
g default
v 0.040814 0.013261 -0.276619
v 0.034718 0.025224 -0.276619
v 0.025224 0.034718 -0.276619
v 0.013261 0.040814 -0.276619
v 0.000000 0.042914 -0.276619
v -0.013261 0.040814 -0.276619
v -0.025224 0.034718 -0.276619
v -0.034718 0.025224 -0.276619
v -0.040814 0.013261 -0.276619
v -0.042914 -0.000000 -0.276619
v -0.040814 -0.013261 -0.276619
v -0.034718 -0.025224 -0.276619
v -0.025224 -0.034718 -0.276619
v -0.013261 -0.040814 -0.276619
v -0.000000 -0.042914 -0.276619
v 0.013261 -0.040814 -0.276619
v 0.025224 -0.034718 -0.276619
v 0.034718 -0.025224 -0.276619
v 0.040814 -0.013261 -0.276619
v 0.042914 -0.000000 -0.276619
v 0.040814 0.013261 0.131996
v 0.034718 0.025224 0.131996
v 0.025224 0.034718 0.131996
v 0.013261 0.040814 0.131996
v 0.000000 0.042914 0.131996
v -0.013261 0.040814 0.131996
v -0.025224 0.034718 0.131996
v -0.034718 0.025224 0.131996
v -0.040814 0.013261 0.131996
v -0.042914 0.000000 0.131996
v -0.040814 -0.013261 0.131996
v -0.034718 -0.025224 0.131996
v -0.025224 -0.034718 0.131996
v -0.013261 -0.040814 0.131996
v -0.000000 -0.042914 0.131996
v 0.013261 -0.040814 0.131996
v 0.025224 -0.034718 0.131996
v 0.034718 -0.025224 0.131996
v 0.040814 -0.013261 0.131996
v 0.042914 0.000000 0.131996
v 0.000000 -0.000000 -0.276619
v 0.000000 0.000000 0.131996
v 0.026165 0.008501 0.132910
v 0.022257 0.016171 0.132910
v 0.016171 0.022257 0.132910
v 0.008501 0.026165 0.132910
v -0.000000 0.027511 0.132910
v -0.008501 0.026165 0.132910
v -0.016171 0.022257 0.132910
v -0.022257 0.016171 0.132910
v -0.026165 0.008501 0.132910
v -0.027511 0.000000 0.132910
v -0.026165 -0.008501 0.132910
v -0.022257 -0.016171 0.132910
v -0.016171 -0.022257 0.132910
v -0.008501 -0.026165 0.132910
v -0.000000 -0.027511 0.132910
v 0.008501 -0.026165 0.132910
v 0.016171 -0.022257 0.132910
v 0.022257 -0.016171 0.132910
v 0.026165 -0.008501 0.132910
v 0.027511 0.000000 0.132910
v 0.026165 0.008501 0.526142
v 0.022257 0.016171 0.526142
v 0.016171 0.022257 0.526142
v 0.008501 0.026165 0.526142
v -0.000000 0.027511 0.526142
v -0.008501 0.026165 0.526142
v -0.016171 0.022257 0.526142
v -0.022257 0.016171 0.526142
v -0.026165 0.008501 0.526142
v -0.027511 0.000000 0.526142
v -0.026165 -0.008501 0.526142
v -0.022257 -0.016171 0.526142
v -0.016171 -0.022257 0.526142
v -0.008501 -0.026165 0.526142
v -0.000000 -0.027511 0.526142
v 0.008501 -0.026165 0.526142
v 0.016171 -0.022257 0.526142
v 0.022257 -0.016171 0.526142
v 0.026165 -0.008501 0.526142
v 0.027511 0.000000 0.526142
v -0.000000 0.000000 0.132910
v -0.000000 0.000000 0.526142
v 0.026585 0.008638 0.526246
v 0.022614 0.016430 0.526246
v 0.016430 0.022614 0.526246
v 0.008638 0.026585 0.526246
v 0.000000 0.027953 0.526246
v -0.008638 0.026585 0.526246
v -0.016430 0.022614 0.526246
v -0.022614 0.016430 0.526246
v -0.026585 0.008638 0.526246
v -0.027953 -0.000000 0.526246
v -0.026585 -0.008638 0.526246
v -0.022614 -0.016430 0.526246
v -0.016430 -0.022614 0.526246
v -0.008638 -0.026585 0.526246
v -0.000000 -0.027953 0.526246
v 0.008638 -0.026585 0.526246
v 0.016430 -0.022614 0.526246
v 0.022614 -0.016430 0.526246
v 0.026585 -0.008638 0.526246
v 0.027953 -0.000000 0.526246
v 0.000000 0.000000 0.582152
vt 0.604794 0.001992
vt 0.627599 0.001992
vt 0.627599 0.780929
vt 0.604794 0.780929
vt 0.645697 0.001992
vt 0.645697 0.780929
vt 0.579514 0.001992
vt 0.579514 0.780929
vt 0.554235 0.001992
vt 0.554235 0.780929
vt 0.531430 0.001992
vt 0.531430 0.780929
vt 0.513331 0.001992
vt 0.513331 0.780929
vt 0.766868 0.780929
vt 0.744063 0.780929
vt 0.744063 0.001992
vt 0.766868 0.001992
vt 0.718783 0.780929
vt 0.718783 0.001992
vt 0.693504 0.780929
vt 0.693504 0.001992
vt 0.670699 0.780929
vt 0.670699 0.001992
vt 0.652600 0.780929
vt 0.652600 0.001992
vt 0.888127 0.780929
vt 0.865322 0.780929
vt 0.865322 0.001992
vt 0.888127 0.001992
vt 0.840042 0.780929
vt 0.840042 0.001992
vt 0.814762 0.780929
vt 0.814762 0.001992
vt 0.791957 0.780929
vt 0.791957 0.001992
vt 0.773859 0.780929
vt 0.773859 0.001992
vt 0.895118 0.001992
vt 0.917923 0.001992
vt 0.917923 0.780929
vt 0.895118 0.780929
vt 0.943202 0.001992
vt 0.943202 0.780929
vt 0.968482 0.001992
vt 0.968482 0.780929
vt 0.991287 0.001992
vt 0.991287 0.780929
vt 0.897514 0.810216
vt 0.909134 0.833021
vt 0.831331 0.858301
vt 0.913138 0.858301
vt 0.879416 0.792118
vt 0.909134 0.883581
vt 0.856611 0.780498
vt 0.897514 0.906386
vt 0.831331 0.776494
vt 0.879416 0.924484
vt 0.806051 0.780498
vt 0.856611 0.936104
vt 0.783246 0.792118
vt 0.831331 0.940108
vt 0.765148 0.810216
vt 0.806051 0.936104
vt 0.753528 0.833021
vt 0.783246 0.924484
vt 0.749524 0.858301
vt 0.765148 0.906386
vt 0.753528 0.883581
vt 0.739907 0.899510
vt 0.728287 0.922315
vt 0.662104 0.874230
vt 0.710189 0.940413
vt 0.743911 0.874230
vt 0.687384 0.952033
vt 0.739907 0.848951
vt 0.662104 0.956037
vt 0.728287 0.826146
vt 0.636824 0.952033
vt 0.710189 0.808047
vt 0.614019 0.940413
vt 0.687384 0.796427
vt 0.595921 0.922315
vt 0.662104 0.792424
vt 0.584301 0.899510
vt 0.636824 0.796427
vt 0.580297 0.874230
vt 0.614019 0.808047
vt 0.584301 0.848951
vt 0.595921 0.826146
vt 0.237702 0.001992
vt 0.252322 0.001992
vt 0.252322 0.751603
vt 0.237702 0.751603
vt 0.263924 0.001992
vt 0.263924 0.751603
vt 0.221496 0.001992
vt 0.221496 0.751603
vt 0.205290 0.001992
vt 0.205290 0.751603
vt 0.190670 0.001992
vt 0.190670 0.751603
vt 0.179068 0.001992
vt 0.179068 0.751603
vt 0.343266 0.751603
vt 0.328646 0.751603
vt 0.328646 0.001992
vt 0.343266 0.001992
vt 0.312440 0.751603
vt 0.312440 0.001992
vt 0.296234 0.751603
vt 0.296234 0.001992
vt 0.281614 0.751603
vt 0.281614 0.001992
vt 0.270012 0.751603
vt 0.270012 0.001992
vt 0.423510 0.751603
vt 0.408891 0.751603
vt 0.408891 0.001992
vt 0.423510 0.001992
vt 0.392685 0.751603
vt 0.392685 0.001992
vt 0.376479 0.751603
vt 0.376479 0.001992
vt 0.361859 0.751603
vt 0.361859 0.001992
vt 0.350257 0.751603
vt 0.350257 0.001992
vt 0.430501 0.001992
vt 0.445121 0.001992
vt 0.445121 0.751603
vt 0.430501 0.751603
vt 0.461327 0.001992
vt 0.461327 0.751603
vt 0.477533 0.001992
vt 0.477533 0.751603
vt 0.492153 0.001992
vt 0.492153 0.751603
vt 0.132306 0.806199
vt 0.139755 0.820819
vt 0.089878 0.837025
vt 0.142322 0.837025
vt 0.120704 0.794597
vt 0.139755 0.853231
vt 0.106084 0.787148
vt 0.132306 0.867850
vt 0.089878 0.784581
vt 0.120704 0.879453
vt 0.073672 0.787148
vt 0.106084 0.886902
vt 0.059052 0.794597
vt 0.089878 0.889468
vt 0.047450 0.806199
vt 0.073672 0.886902
vt 0.040001 0.820819
vt 0.059052 0.879453
vt 0.037434 0.837025
vt 0.047450 0.867850
vt 0.040001 0.853231
vt 0.104143 0.961770
vt 0.096694 0.976390
vt 0.054266 0.945564
vt 0.085092 0.987992
vt 0.106710 0.945564
vt 0.070472 0.995441
vt 0.104143 0.929358
vt 0.054266 0.998008
vt 0.096694 0.914739
vt 0.038060 0.995441
vt 0.085092 0.903136
vt 0.023441 0.987992
vt 0.070472 0.895687
vt 0.011839 0.976390
vt 0.054266 0.893120
vt 0.004389 0.961770
vt 0.038060 0.895687
vt 0.001823 0.945564
vt 0.023441 0.903136
vt 0.004389 0.929358
vt 0.011839 0.914739
vt 0.492429 0.821401
vt 0.495037 0.837867
vt 0.492429 0.854334
vt 0.484860 0.869188
vt 0.473072 0.880977
vt 0.458217 0.888545
vt 0.441751 0.891153
vt 0.425284 0.888545
vt 0.410430 0.880977
vt 0.398641 0.869188
vt 0.391073 0.854334
vt 0.388465 0.837867
vt 0.391073 0.821401
vt 0.398641 0.806546
vt 0.410430 0.794758
vt 0.425284 0.787189
vt 0.441751 0.784581
vt 0.458217 0.787189
vt 0.473072 0.794758
vt 0.484860 0.806546
vt 0.435854 0.784581
vt 0.450709 0.784581
vt 0.419388 0.891154
vt 0.462498 0.784581
vt 0.419388 0.784581
vt 0.402922 0.784581
vt 0.388067 0.784581
vt 0.376279 0.784581
vt 0.370665 0.891153
vt 0.355811 0.891153
vt 0.339344 0.784581
vt 0.339344 0.891153
vt 0.322878 0.891153
vt 0.308023 0.891153
vt 0.296235 0.891153
vt 0.290621 0.891153
vt 0.275767 0.891153
vt 0.259300 0.784581
vt 0.259300 0.891153
vt 0.242834 0.891153
vt 0.227979 0.891153
vt 0.216191 0.891153
vt 0.147935 0.784581
vt 0.162790 0.784581
vt 0.179256 0.891153
vt 0.179256 0.784581
vt 0.195723 0.784581
vt 0.210577 0.784581
vn 0.951057 0.309016 0.000000
vn 0.809017 0.587785 0.000000
vn 0.951057 0.309016 0.000000
vn 0.809017 0.587785 0.000000
vn 0.587785 0.809017 0.000000
vn 0.587785 0.809017 0.000000
vn 0.309017 0.951057 0.000000
vn 0.309017 0.951057 0.000000
vn -0.000000 1.000000 0.000000
vn -0.000000 1.000000 0.000000
vn -0.309017 0.951057 0.000000
vn -0.309017 0.951056 0.000000
vn -0.587785 0.809017 0.000000
vn -0.587786 0.809017 0.000000
vn -0.809017 0.587785 0.000000
vn -0.809017 0.587785 0.000000
vn -0.951057 0.309017 0.000000
vn -0.951057 0.309017 0.000000
vn -1.000000 0.000000 0.000000
vn -1.000000 -0.000000 0.000000
vn -0.951057 -0.309017 0.000000
vn -0.951056 -0.309017 0.000000
vn -0.809017 -0.587785 0.000000
vn -0.809017 -0.587785 0.000000
vn -0.587785 -0.809017 0.000000
vn -0.587785 -0.809017 0.000000
vn -0.309017 -0.951057 0.000000
vn -0.309017 -0.951057 0.000000
vn 0.000000 -1.000000 0.000000
vn 0.000000 -1.000000 0.000000
vn 0.309017 -0.951057 0.000000
vn 0.309017 -0.951057 0.000000
vn 0.587785 -0.809017 0.000000
vn 0.587785 -0.809017 0.000000
vn 0.809017 -0.587785 0.000000
vn 0.809017 -0.587785 0.000000
vn 0.951056 -0.309017 0.000000
vn 0.951057 -0.309017 0.000000
vn 1.000000 -0.000001 0.000000
vn 1.000000 -0.000001 0.000000
vn 0.000001 0.000000 -1.000000
vn 0.000001 0.000000 -1.000000
vn 0.000000 0.000000 -1.000000
vn 0.000000 0.000000 -1.000000
vn -0.000001 0.000000 -1.000000
vn -0.000000 0.000000 -1.000000
vn 0.000001 0.000000 -1.000000
vn 0.000000 0.000000 -1.000000
vn 0.000000 0.000000 -1.000000
vn 0.000000 0.000000 -1.000000
vn 0.000000 0.000000 -1.000000
vn 0.000000 0.000000 -1.000000
vn 0.000000 0.000000 -1.000000
vn 0.000000 0.000000 -1.000000
vn 0.000001 0.000000 -1.000000
vn 0.000000 0.000000 -1.000000
vn -0.000001 0.000000 -1.000000
vn 0.000000 0.000000 -1.000000
vn 0.000001 0.000000 -1.000000
vn 0.000001 0.000000 -1.000000
vn 0.000000 0.000000 -1.000000
vn -0.000000 0.000000 1.000000
vn -0.000000 0.000000 1.000000
vn 0.000000 0.000000 1.000000
vn 0.000001 0.000000 1.000000
vn 0.000000 0.000000 1.000000
vn -0.000000 0.000000 1.000000
vn 0.000001 0.000000 1.000000
vn 0.000000 0.000000 1.000000
vn 0.000000 0.000000 1.000000
vn 0.000000 0.000000 1.000000
vn 0.000000 0.000000 1.000000
vn 0.000000 0.000000 1.000000
vn 0.000000 0.000000 1.000000
vn 0.000000 0.000000 1.000000
vn 0.000000 0.000000 1.000000
vn 0.000000 0.000000 1.000000
vn 0.000000 0.000000 1.000000
vn 0.000000 0.000000 1.000000
vn 0.000000 0.000000 1.000000
vn 0.000000 0.000000 1.000000
vn 0.000000 0.000000 1.000000
vn 0.951057 0.309016 0.000000
vn 0.809017 0.587785 0.000000
vn 0.951057 0.309016 0.000000
vn 0.809017 0.587785 0.000000
vn 0.587785 0.809017 0.000000
vn 0.587785 0.809017 0.000000
vn 0.309017 0.951057 0.000000
vn 0.309017 0.951057 0.000000
vn -0.000000 1.000000 0.000000
vn -0.000000 1.000000 0.000000
vn -0.309017 0.951056 0.000000
vn -0.309017 0.951056 0.000000
vn -0.587785 0.809017 0.000000
vn -0.587785 0.809017 0.000000
vn -0.809017 0.587785 0.000000
vn -0.809017 0.587785 0.000000
vn -0.951056 0.309017 0.000000
vn -0.951057 0.309017 0.000000
vn -1.000000 0.000001 0.000000
vn -1.000000 -0.000001 0.000000
vn -0.951057 -0.309017 0.000000
vn -0.951056 -0.309017 0.000000
vn -0.809017 -0.587785 0.000000
vn -0.809017 -0.587786 0.000000
vn -0.587785 -0.809017 0.000000
vn -0.587785 -0.809017 0.000000
vn -0.309017 -0.951057 0.000000
vn -0.309017 -0.951057 0.000000
vn 0.000000 -1.000000 0.000000
vn 0.000000 -1.000000 0.000000
vn 0.309017 -0.951057 0.000000
vn 0.309017 -0.951057 0.000000
vn 0.587785 -0.809017 0.000000
vn 0.587785 -0.809017 0.000000
vn 0.809017 -0.587785 0.000000
vn 0.809017 -0.587785 0.000000
vn 0.951057 -0.309017 0.000000
vn 0.951057 -0.309017 0.000000
vn 1.000000 -0.000001 0.000000
vn 1.000000 -0.000001 0.000000
vn 0.000000 0.000000 -1.000000
vn 0.000000 0.000000 -1.000000
vn -0.000000 0.000000 -1.000000
vn 0.000000 0.000000 -1.000000
vn 0.000000 0.000000 -1.000000
vn 0.000001 0.000000 -1.000000
vn 0.000001 0.000000 -1.000000
vn 0.000000 0.000000 -1.000000
vn 0.000000 0.000000 -1.000000
vn 0.000000 0.000000 -1.000000
vn 0.000000 0.000000 -1.000000
vn 0.000000 0.000000 -1.000000
vn 0.000000 0.000000 -1.000000
vn 0.000000 0.000000 -1.000000
vn 0.000000 0.000000 -1.000000
vn -0.000001 0.000000 -1.000000
vn -0.000001 0.000000 -1.000000
vn -0.000001 0.000000 -1.000000
vn -0.000000 0.000000 -1.000000
vn 0.000000 0.000000 -1.000000
vn 0.000000 0.000000 -1.000000
vn -0.000002 0.000000 1.000000
vn -0.000002 0.000000 1.000000
vn -0.000001 0.000000 1.000000
vn 0.000000 0.000000 1.000000
vn 0.000000 0.000000 1.000000
vn 0.000000 0.000000 1.000000
vn -0.000004 0.000000 1.000000
vn -0.000004 0.000000 1.000000
vn 0.000000 0.000000 1.000000
vn 0.000000 0.000000 1.000000
vn 0.000000 0.000000 1.000000
vn 0.000002 0.000000 1.000000
vn 0.000002 0.000000 1.000000
vn -0.000004 0.000000 1.000000
vn -0.000004 0.000000 1.000000
vn 0.000000 0.000000 1.000000
vn 0.000000 0.000000 1.000000
vn -0.000004 0.000000 1.000000
vn 0.000000 0.000000 1.000000
vn 0.000004 0.000000 1.000000
vn 0.000000 0.000000 1.000000
vn 0.000036 0.000000 -1.000000
vn 0.000001 0.000000 -1.000000
vn -0.000000 0.000000 -1.000000
vn 0.000000 0.000000 -1.000000
vn 0.000000 0.000000 -1.000000
vn 0.000000 0.000000 -1.000000
vn 0.000000 0.000000 -1.000000
vn 0.000000 0.000000 -1.000000
vn 0.000000 0.000000 -1.000000
vn 0.000000 0.000000 -1.000000
vn -0.000004 0.000000 -1.000000
vn -0.000002 0.000000 -1.000000
vn 0.000002 0.000000 -1.000000
vn 0.000001 0.000000 -1.000000
vn 0.000002 0.000000 -1.000000
vn 0.000001 0.000000 -1.000000
vn 0.000000 0.000000 -1.000000
vn 0.000000 0.000000 -1.000000
vn -0.000001 0.000000 -1.000000
vn -0.000036 0.000000 -1.000000
vn 0.850651 0.276392 0.447214
vn 0.723607 0.525731 0.447214
vn -0.000001 0.000002 1.000000
vn 0.525731 0.723607 0.447214
vn 0.276393 0.850651 0.447214
vn 0.000000 0.894427 0.447214
vn -0.276391 0.850651 0.447214
vn -0.525730 0.723607 0.447214
vn -0.723607 0.525730 0.447213
vn -0.850651 0.276393 0.447213
vn -0.894427 0.000000 0.447214
vn -0.850651 -0.276393 0.447214
vn -0.723606 -0.525731 0.447214
vn -0.525731 -0.723607 0.447214
vn -0.276394 -0.850651 0.447214
vn -0.000000 -0.894427 0.447214
vn 0.276394 -0.850651 0.447213
vn 0.525731 -0.723607 0.447214
vn 0.723606 -0.525732 0.447214
vn 0.850650 -0.276393 0.447214
vn 0.894427 -0.000001 0.447214
s 1
g pCylinder2
usemtl lambert2SG
f 1/1/1 2/2/2 21/4/3
f 21/4/3 2/2/2 22/3/4
f 2/2/2 3/5/5 22/3/4
f 22/3/4 3/5/5 23/6/6
f 3/15/5 4/16/7 23/18/6
f 23/18/6 4/16/7 24/17/8
f 4/16/7 5/19/9 24/17/8
f 24/17/8 5/19/9 25/20/10
f 5/19/9 6/21/11 25/20/10
f 25/20/10 6/21/11 26/22/12
f 6/21/11 7/23/13 26/22/12
f 26/22/12 7/23/13 27/24/14
f 7/23/13 8/25/15 27/24/14
f 27/24/14 8/25/15 28/26/16
f 8/27/15 9/28/17 28/30/16
f 28/30/16 9/28/17 29/29/18
f 9/28/17 10/31/19 29/29/18
f 29/29/18 10/31/19 30/32/20
f 10/31/19 11/33/21 30/32/20
f 30/32/20 11/33/21 31/34/22
f 11/33/21 12/35/23 31/34/22
f 31/34/22 12/35/23 32/36/24
f 12/35/23 13/37/25 32/36/24
f 32/36/24 13/37/25 33/38/26
f 13/39/25 14/40/27 33/42/26
f 33/42/26 14/40/27 34/41/28
f 14/40/27 15/43/29 34/41/28
f 34/41/28 15/43/29 35/44/30
f 15/43/29 16/45/31 35/44/30
f 35/44/30 16/45/31 36/46/32
f 16/45/31 17/47/33 36/46/32
f 36/46/32 17/47/33 37/48/34
f 17/13/33 18/11/35 37/14/34
f 37/14/34 18/11/35 38/12/36
f 18/11/35 19/9/37 38/12/36
f 38/12/36 19/9/37 39/10/38
f 19/9/37 20/7/39 39/10/38
f 39/10/38 20/7/39 40/8/40
f 20/7/39 1/1/1 40/8/40
f 40/8/40 1/1/1 21/4/3
s 2
f 2/49/41 1/50/42 41/51/43
f 3/53/44 2/49/41 41/51/43
f 4/55/45 3/53/44 41/51/43
f 5/57/46 4/55/45 41/51/43
f 6/59/47 5/57/46 41/51/43
f 7/61/48 6/59/47 41/51/43
f 8/63/49 7/61/48 41/51/43
f 9/65/50 8/63/49 41/51/43
f 10/67/51 9/65/50 41/51/43
f 11/69/52 10/67/51 41/51/43
f 12/68/53 11/69/52 41/51/43
f 13/66/54 12/68/53 41/51/43
f 14/64/55 13/66/54 41/51/43
f 15/62/56 14/64/55 41/51/43
f 16/60/57 15/62/56 41/51/43
f 17/58/58 16/60/57 41/51/43
f 18/56/59 17/58/58 41/51/43
f 19/54/60 18/56/59 41/51/43
f 20/52/61 19/54/60 41/51/43
f 1/50/42 20/52/61 41/51/43
s 3
f 21/70/62 22/71/63 42/72/64
f 22/71/63 23/73/65 42/72/64
f 23/73/65 24/75/66 42/72/64
f 24/75/66 25/77/67 42/72/64
f 25/77/67 26/79/68 42/72/64
f 26/79/68 27/81/69 42/72/64
f 27/81/69 28/83/70 42/72/64
f 28/83/70 29/85/71 42/72/64
f 29/85/71 30/87/72 42/72/64
f 30/87/72 31/89/73 42/72/64
f 31/89/73 32/90/74 42/72/64
f 32/90/74 33/88/75 42/72/64
f 33/88/75 34/86/76 42/72/64
f 34/86/76 35/84/77 42/72/64
f 35/84/77 36/82/78 42/72/64
f 36/82/78 37/80/79 42/72/64
f 37/80/79 38/78/80 42/72/64
f 38/78/80 39/76/81 42/72/64
f 39/76/81 40/74/82 42/72/64
f 40/74/82 21/70/62 42/72/64
s 4
f 43/91/83 44/92/84 63/94/85
f 63/94/85 44/92/84 64/93/86
f 44/92/84 45/95/87 64/93/86
f 64/93/86 45/95/87 65/96/88
f 45/105/87 46/106/89 65/108/88
f 65/108/88 46/106/89 66/107/90
f 46/106/89 47/109/91 66/107/90
f 66/107/90 47/109/91 67/110/92
f 47/109/91 48/111/93 67/110/92
f 67/110/92 48/111/93 68/112/94
f 48/111/93 49/113/95 68/112/94
f 68/112/94 49/113/95 69/114/96
f 49/113/95 50/115/97 69/114/96
f 69/114/96 50/115/97 70/116/98
f 50/117/97 51/118/99 70/120/98
f 70/120/98 51/118/99 71/119/100
f 51/118/99 52/121/101 71/119/100
f 71/119/100 52/121/101 72/122/102
f 52/121/101 53/123/103 72/122/102
f 72/122/102 53/123/103 73/124/104
f 53/123/103 54/125/105 73/124/104
f 73/124/104 54/125/105 74/126/106
f 54/125/105 55/127/107 74/126/106
f 74/126/106 55/127/107 75/128/108
f 55/129/107 56/130/109 75/132/108
f 75/132/108 56/130/109 76/131/110
f 56/130/109 57/133/111 76/131/110
f 76/131/110 57/133/111 77/134/112
f 57/133/111 58/135/113 77/134/112
f 77/134/112 58/135/113 78/136/114
f 58/135/113 59/137/115 78/136/114
f 78/136/114 59/137/115 79/138/116
f 59/103/115 60/101/117 79/104/116
f 79/104/116 60/101/117 80/102/118
f 60/101/117 61/99/119 80/102/118
f 80/102/118 61/99/119 81/100/120
f 61/99/119 62/97/121 81/100/120
f 81/100/120 62/97/121 82/98/122
f 62/97/121 43/91/83 82/98/122
f 82/98/122 43/91/83 63/94/85
s 5
f 44/139/123 43/140/124 83/141/125
f 45/143/126 44/139/123 83/141/125
f 46/145/127 45/143/126 83/141/125
f 47/147/128 46/145/127 83/141/125
f 48/149/129 47/147/128 83/141/125
f 49/151/130 48/149/129 83/141/125
f 50/153/131 49/151/130 83/141/125
f 51/155/132 50/153/131 83/141/125
f 52/157/133 51/155/132 83/141/125
f 53/159/134 52/157/133 83/141/125
f 54/158/135 53/159/134 83/141/125
f 55/156/136 54/158/135 83/141/125
f 56/154/137 55/156/136 83/141/125
f 57/152/138 56/154/137 83/141/125
f 58/150/139 57/152/138 83/141/125
f 59/148/140 58/150/139 83/141/125
f 60/146/141 59/148/140 83/141/125
f 61/144/142 60/146/141 83/141/125
f 62/142/143 61/144/142 83/141/125
f 43/140/124 62/142/143 83/141/125
s 6
f 63/160/144 64/161/145 84/162/146
f 64/161/145 65/163/147 84/162/146
f 65/163/147 66/165/148 84/162/146
f 66/165/148 67/167/149 84/162/146
f 67/167/149 68/169/150 84/162/146
f 68/169/150 69/171/151 84/162/146
f 69/171/151 70/173/152 84/162/146
f 70/173/152 71/175/153 84/162/146
f 71/175/153 72/177/154 84/162/146
f 72/177/154 73/179/155 84/162/146
f 73/179/155 74/180/156 84/162/146
f 74/180/156 75/178/157 84/162/146
f 75/178/157 76/176/158 84/162/146
f 76/176/158 77/174/159 84/162/146
f 77/174/159 78/172/160 84/162/146
f 78/172/160 79/170/161 84/162/146
f 79/170/161 80/168/162 84/162/146
f 80/168/162 81/166/163 84/162/146
f 81/166/163 82/164/164 84/162/146
f 82/164/164 63/160/144 84/162/146
s 7
f 85/181/165 104/182/166 86/200/167
f 104/182/166 103/183/168 86/200/167
f 103/183/168 102/184/169 86/200/167
f 102/184/169 101/185/170 86/200/167
f 101/185/170 100/186/171 86/200/167
f 100/186/171 99/187/172 86/200/167
f 99/187/172 98/188/173 86/200/167
f 98/188/173 97/189/174 86/200/167
f 97/189/174 96/190/175 86/200/167
f 96/190/175 95/191/176 86/200/167
f 95/191/176 94/192/177 86/200/167
f 94/192/177 93/193/178 86/200/167
f 93/193/178 92/194/179 86/200/167
f 92/194/179 91/195/180 86/200/167
f 91/195/180 90/196/181 86/200/167
f 90/196/181 89/197/182 86/200/167
f 89/197/182 88/198/183 86/200/167
f 88/198/183 87/199/184 86/200/167
s 8
f 85/201/185 86/202/186 105/203/187
f 86/202/186 87/204/188 105/203/187
f 87/209/188 88/210/189 105/211/187
f 88/210/189 89/212/190 105/211/187
f 89/212/190 90/213/191 105/211/187
f 90/213/191 91/214/192 105/211/187
f 91/214/192 92/215/193 105/211/187
f 92/216/193 93/217/194 105/218/187
f 93/217/194 94/219/195 105/218/187
f 94/219/195 95/220/196 105/218/187
f 95/220/196 96/221/197 105/218/187
f 96/221/197 97/222/198 105/218/187
f 97/223/198 98/224/199 105/225/187
f 98/224/199 99/226/200 105/225/187
f 99/226/200 100/227/201 105/225/187
f 100/227/201 101/228/202 105/225/187
f 101/208/202 102/207/203 105/203/187
f 102/207/203 103/206/204 105/203/187
f 103/206/204 104/205/205 105/203/187
f 104/205/205 85/201/185 105/203/187
