# This file uses centimeters as units for non-parametric coordinates.

mtllib toilet.mtl
g default
v -0.980566 0.294073 -0.778631
v 0.554107 0.784196 -0.963224
v -0.520551 0.784196 -0.963224
v 0.748569 0.848297 -0.603260
v -0.707909 0.848297 -0.603260
v 1.251446 0.661665 0.672521
v 0.748569 0.848297 0.654659
v -0.707909 0.848297 0.654659
v 0.984249 0.294073 0.783287
v -0.788699 0.661665 1.004357
v -0.980566 0.294073 0.783287
v 0.968491 -0.620822 0.779133
v -0.960307 -0.620822 0.779133
v -0.523344 -0.661665 0.783287
v 0.968491 -0.620822 -0.768787
v 0.477835 0.552412 -0.370938
v -0.433639 0.552412 -0.370939
v -0.433640 0.552412 0.426806
v 0.477835 0.552412 0.426806
v 0.022098 0.511186 -0.510544
v 0.637343 0.511186 0.027934
v -0.593147 0.511186 0.027934
v 0.022098 0.511186 0.566412
v -0.862185 0.829215 0.027934
v -1.245921 0.661665 0.672521
v -1.054053 0.882220 0.893591
v 0.808955 0.661665 1.004357
v 0.022098 0.829215 0.782826
v -0.980566 -0.661665 -0.428173
v 0.984249 -0.661665 0.451451
v 0.637343 0.670201 -0.510544
v -0.593147 0.670201 -0.510544
v -0.593147 0.670201 0.566412
v 0.637343 0.670201 0.566412
v 0.984249 -0.294073 -0.778631
v -0.960307 -0.620822 -0.768787
v -0.788699 0.661665 -0.997373
v 0.018415 0.661665 -0.997373
v 0.808955 0.661665 -0.997373
v 0.984249 0.294073 -0.778631
v 1.251446 0.661665 -0.646915
v 1.076151 0.882220 -0.865657
v 0.022098 0.829215 -0.733942
v -1.245921 0.661665 -0.646915
v -1.054053 0.882220 -0.865657
v 0.900856 0.829215 0.027934
v 1.076151 0.882220 0.893591
v 0.007366 0.000000 -1.041278
v 0.022098 0.882220 -0.865657
v 0.022098 0.458181 0.027934
v 0.007366 0.000000 1.041278
v 0.007366 -0.882220 0.009311
v -1.309877 0.000000 0.009311
v 1.309877 0.000000 0.009311
v 0.022098 0.670201 -0.690036
v -0.798229 0.670201 0.027934
v 0.022098 0.670201 0.745904
v 0.842425 0.670201 0.027934
v 0.968491 2.823955 -1.559955
v -0.980566 2.835998 -1.128538
v 0.984249 2.835998 -1.128538
v 1.087245 2.942896 -0.974460
v -0.788699 3.103614 -0.955201
v -1.078242 2.942896 -0.974460
v 1.205999 2.411367 -0.897422
v 0.748569 2.621445 -0.867195
v -0.707909 2.621445 -0.867195
v -1.196178 2.411367 -0.897422
v 1.205999 1.303533 -0.897422
v 0.748569 1.082468 -0.867195
v -0.707909 1.082468 -0.867195
v -1.196178 1.303533 -0.897422
v 1.087245 0.809976 -0.974460
v -0.788699 0.654637 -0.955201
v -1.078242 0.809976 -0.974460
v -0.523344 0.925101 -1.579214
v 0.984249 2.407238 -1.579214
v 0.022098 2.508013 -1.026159
v 0.637343 1.849223 -1.026159
v -0.593147 1.849223 -1.026159
v -0.862185 1.849223 -0.876193
v -1.245921 1.854918 -0.955201
v -1.054053 0.790150 -0.851199
v 1.251446 1.060614 -0.955201
v 0.808955 0.654637 -0.955201
v 0.022098 0.790150 -0.851199
v -1.245921 1.060614 -0.955201
v 0.541759 0.925101 -1.579214
v 0.968491 0.930182 -1.559955
v 0.984249 0.925101 -1.128538
v -0.980566 0.925101 -1.128538
v -0.960307 0.930182 -1.559955
v -0.980566 1.331078 -1.579214
v -0.960307 2.823955 -1.559955
v 0.984249 1.331078 -1.579214
v 0.984249 2.835998 -1.405877
v 0.541759 2.835998 -1.579214
v -0.523344 2.835998 -1.579214
v -0.980566 2.835998 -1.405877
v 0.808955 3.103614 -0.955201
v 1.251446 2.674853 -0.955201
v 1.076151 2.942469 -0.851199
v 0.022098 2.942469 -0.851199
v -1.245921 2.674853 -0.955201
v -1.054053 2.942469 -0.851199
v 1.251446 1.854918 -0.955201
v 0.900856 1.849223 -0.876193
v 1.076151 0.790150 -0.851199
v 0.007366 3.157329 -1.267207
v 0.007366 0.609466 -1.267207
v 0.007366 1.872006 -1.683216
v -1.309877 1.872006 -1.267207
v 1.309877 1.872006 -1.267207
v 0.022098 1.190432 -1.026159
vt 0.914876 0.339955
vt 0.970229 0.500000
vt 0.912801 0.162128
vt 0.914876 0.660045
vt 0.960976 0.860101
vt 0.953779 0.926786
vt 0.960976 0.860101
vt 0.953779 0.926786
vt 0.960976 0.860101
vt 0.914876 0.660045
vt 0.887117 0.860101
vt 0.877917 0.961672
vt 0.933217 0.980134
vt 0.933217 0.980134
vt 0.877917 0.961672
vt 0.905458 0.951287
vt 0.887117 0.860101
vt 0.933217 0.980134
vt 0.744893 0.951287
vt 0.612811 0.961672
vt 0.562456 0.980134
vt 0.609046 0.860101
vt 0.744893 0.951287
vt 0.609046 0.860101
vt 0.437500 0.229167
vt 0.562456 0.980134
vt 0.612811 0.961672
vt 0.462963 0.254630
vt 0.539112 0.860101
vt 0.585703 0.660045
vt 0.585800 0.951287
vt 0.539112 0.860101
vt 0.500000 0.229167
vt 0.585703 0.660045
vt 0.537037 0.254630
vt 0.585703 0.139899
vt 0.531331 0.500000
vt 0.416667 0.291667
vt 0.500000 0.291667
vt 0.586578 0.162128
vt 0.562500 0.229167
vt 0.586578 0.162128
vt 0.583333 0.291667
vt 0.748818 0.019866
vt 0.841017 0.139899
vt 0.912801 0.162128
vt 0.655637 0.139899
vt 0.748818 0.500000
vt 0.748818 0.500000
vt 0.362947 0.231981
vt 0.405131 0.122394
vt 0.387230 0.885258
vt 0.242422 0.122394
vt 0.500000 0.625000
vt 0.583333 0.458333
vt 0.562500 0.520833
vt 0.500000 0.458333
vt 0.437500 0.520833
vt 0.416667 0.458333
vt 0.362947 0.231981
vt 0.242422 0.122394
vt 0.121897 0.231981
vt 0.079713 0.122394
vt 0.121897 0.231981
vt 0.841678 0.727185
vt 0.865784 0.678503
vt 0.500000 0.416667
vt 0.531250 0.406250
vt 0.459367 0.545087
vt 0.405131 0.545087
vt 0.500000 0.427083
vt 0.541667 0.375000
vt 0.531250 0.343750
vt 0.405131 0.545087
vt 0.541667 0.416667
vt 0.552083 0.375000
vt 0.500000 0.333333
vt 0.242422 0.545087
vt 0.541667 0.333333
vt 0.500000 0.322917
vt 0.079713 0.545087
vt 0.857685 0.272814
vt 0.824576 0.272814
vt 0.079713 0.545087
vt 0.025477 0.545087
vt 0.586003 0.678503
vt 0.242422 0.545087
vt 0.432183 0.548158
vt 0.258792 0.114742
vt 0.258792 0.548158
vt 0.387230 0.885258
vt 0.258792 0.548158
vt 0.130354 0.885258
vt 0.085401 0.548158
vt 0.130354 0.885258
vt 0.930487 0.537381
vt 0.943620 0.303934
vt 0.915895 0.533615
vt 0.914070 0.431638
vt 0.956754 0.537381
vt 0.914070 0.177109
vt 0.971346 0.561994
vt 0.973170 0.495490
vt 0.973170 0.601233
vt 0.915895 0.072688
vt 0.930487 0.067846
vt 0.983020 0.559343
vt 0.973170 0.113697
vt 0.983020 0.307454
vt 0.956754 0.067846
vt 0.971346 0.044504
vt 0.983020 0.050285
vt 0.973170 0.004434
vt 0.696386 0.481060
vt 0.671535 0.559343
vt 0.671535 0.307454
vt 0.756166 0.517452
vt 0.692252 0.601233
vt 0.712649 0.590372
vt 0.696386 0.133003
vt 0.815523 0.481060
vt 0.838153 0.559343
vt 0.755725 0.601233
vt 0.671535 0.050285
vt 0.705167 0.307454
vt 0.756166 0.454480
vt 0.798410 0.590372
vt 0.692252 0.004434
vt 0.712649 0.016321
vt 0.756166 0.096136
vt 0.838153 0.307454
vt 0.807165 0.307454
vt 0.817215 0.601233
vt 0.755725 0.004434
vt 0.838153 0.050285
vt 0.815523 0.133003
vt 0.756166 0.160428
vt 0.798410 0.016321
vt 0.817215 0.004434
vt 0.908619 0.533615
vt 0.880894 0.303934
vt 0.910443 0.431638
vt 0.910443 0.177109
vt 0.867760 0.537381
vt 0.853167 0.561994
vt 0.851343 0.495490
vt 0.908619 0.072687
vt 0.851343 0.601233
vt 0.841493 0.559343
vt 0.867760 0.067846
vt 0.853167 0.044504
vt 0.851343 0.113697
vt 0.841493 0.050285
vt 0.851343 0.004434
vt 0.519858 0.192393
vt 0.593161 0.319217
vt 0.519858 0.446922
vt 0.520251 0.548899
vt 0.551286 0.552664
vt 0.520251 0.087971
vt 0.551286 0.083130
vt 0.634595 0.552664
vt 0.593161 0.630480
vt 0.593161 0.004434
vt 0.666854 0.087971
vt 0.666854 0.548899
vt 0.667786 0.446922
vt 0.667786 0.192393
vt 0.667786 0.083130
vt 0.954337 0.778694
vt 0.926611 0.624840
vt 0.967470 0.624010
vt 0.924787 0.690329
vt 0.982063 0.605203
vt 0.983887 0.646147
vt 0.989359 0.685830
vt 0.983887 0.775903
vt 0.989359 0.866803
vt 0.983887 0.909845
vt 0.982063 0.953632
vt 0.967470 0.936169
vt 0.941204 0.936169
vt 0.892345 0.778694
vt 0.905478 0.936169
vt 0.879212 0.936169
vt 0.920071 0.934202
vt 0.921895 0.866128
vt 0.864619 0.953632
vt 0.862795 0.909845
vt 0.857323 0.866803
vt 0.862795 0.775903
vt 0.857323 0.685830
vt 0.862795 0.646147
vt 0.864619 0.605203
vt 0.879212 0.624010
vt 0.920071 0.624840
vt 0.921895 0.690329
vt 0.609644 0.727185
vt 0.625922 0.272814
vt 0.592814 0.272814
vt 0.725249 0.678503
vt 0.725249 0.272814
vn 0.628020 -0.022818 -0.777863
vn 0.374515 -0.816928 -0.438597
vn -0.014649 -0.265720 -0.963939
vn -0.411563 -0.523886 -0.745761
vn -0.614686 -0.145813 -0.775177
vn -0.288141 -0.138613 -0.947503
vn 0.000755 0.177284 -0.984159
vn 0.018263 0.346486 -0.937877
vn 0.293920 -0.146815 -0.944487
vn -0.018952 0.348963 -0.936945
vn 0.602538 0.720195 -0.343901
vn 0.614436 -0.175399 -0.769222
vn -0.000438 0.962441 -0.271491
vn -0.552875 0.744278 -0.374671
vn -0.000022 0.792119 0.610367
vn 0.173691 0.968620 0.177781
vn -0.177674 0.967020 0.182496
vn -0.957001 0.174113 -0.232021
vn 0.462314 0.703498 0.539774
vn 0.956827 0.205147 -0.205905
vn 0.961764 0.146820 0.231202
vn -0.407063 0.913400 -0.000051
vn -0.185394 0.964013 -0.190546
vn -0.000000 0.947417 0.320002
vn -0.000000 1.000000 0.000000
vn -0.177412 0.945487 0.273094
vn -0.331323 0.943518 0.000000
vn 0.177412 0.945486 0.273094
vn 0.331322 0.943518 0.000000
vn 0.177412 0.945487 -0.273094
vn 0.000000 0.947417 -0.320002
vn -0.177412 0.945487 -0.273094
vn 0.378087 0.925770 -0.000054
vn -0.948727 0.236610 0.209602
vn -0.505282 0.732564 0.456115
vn 0.181194 0.965782 -0.185566
vn 0.610240 -0.152529 0.777394
vn 0.146123 0.109421 0.983196
vn -0.000012 0.804205 -0.594352
vn -0.163588 0.061077 0.984636
vn -0.607175 -0.149651 0.780348
vn 0.456240 -0.472116 0.754288
vn 0.003941 -0.140019 0.990141
vn -0.021438 -0.773269 0.633715
vn -0.613625 -0.575962 0.540122
vn 0.006838 -0.998662 -0.051268
vn -0.540956 -0.840842 -0.018735
vn 0.542749 -0.839703 0.017949
vn -0.987443 -0.157790 0.007671
vn 0.985680 -0.167309 0.021014
vn -0.444410 0.704178 0.553744
vn -0.000000 0.541338 0.840805
vn 0.439908 0.706773 0.554034
vn 0.796719 0.604351 0.000000
vn 0.439563 0.701185 -0.561359
vn 0.000000 0.525930 -0.850528
vn -0.444031 0.698620 -0.561041
vn -0.804021 0.594601 -0.000000
vn 0.345553 0.364561 -0.864689
vn 0.074378 0.328769 -0.941477
vn 0.707061 0.686107 -0.171236
vn -0.000059 0.959234 -0.282612
vn -0.067048 0.358629 -0.931069
vn -0.291253 0.105275 -0.950836
vn -0.703720 0.703008 -0.102752
vn -0.648990 0.672853 -0.355078
vn -0.649144 0.638443 -0.413524
vn -0.225744 0.972349 0.059804
vn 0.228101 0.972138 0.054009
vn 0.644307 0.621080 -0.446237
vn 0.650113 0.667050 -0.363864
vn 0.136921 0.150861 0.979027
vn 0.881609 0.298932 -0.365246
vn 0.590019 -0.012052 0.807300
vn 0.000033 0.089074 0.996025
vn -0.129641 0.148567 0.980368
vn 0.098949 -0.102971 0.989750
vn -0.101001 -0.104541 0.989379
vn -0.889570 0.303776 -0.341153
vn -0.556797 -0.012208 0.830559
vn 0.134143 -0.166306 0.976907
vn 0.872894 -0.014250 0.487702
vn -0.240461 0.000004 0.970659
vn -0.103941 0.108047 0.988697
vn 0.768724 0.059739 0.636785
vn -0.000009 -0.153820 0.988099
vn 0.186894 0.000037 0.982380
vn -0.188171 0.000036 0.982136
vn -0.000009 0.157362 0.987541
vn 0.225502 0.000005 0.974243
vn -0.126586 -0.164401 0.978237
vn -0.853997 -0.015081 0.520059
vn -0.738470 0.061679 0.671459
vn 0.101867 0.106461 0.989085
vn 0.869257 -0.303474 -0.390250
vn 0.611362 -0.617157 -0.495331
vn 0.225167 -0.973600 -0.037453
vn 0.000031 -0.097960 0.995190
vn -0.222954 -0.974332 -0.031124
vn -0.877515 -0.308394 -0.367233
vn -0.616302 -0.634922 -0.465881
vn 0.035449 -0.272255 -0.961572
vn 0.000104 -0.962278 -0.272067
vn -0.035026 -0.272493 -0.961520
vn 0.645860 -0.676330 -0.354179
vn 0.660454 -0.682282 -0.313515
vn -0.658870 -0.684875 -0.311188
vn -0.636883 -0.680208 -0.362902
vn -0.009774 0.000711 -0.999952
vn -0.282385 -0.013324 -0.959209
vn 0.335934 0.058256 -0.940082
vn 0.286392 -0.028145 -0.957699
vn -0.856264 -0.007637 -0.516482
vn 0.896505 -0.012487 -0.442857
s 1
g pCube3
usemtl lambert2SG
f 35/1/1 15/46/2 48/2/3
f 36/3/4 48/2/3 15/46/2
f 36/3/4 1/4/5 48/2/3
f 1/4/5 37/5/6 48/2/3
f 38/7/7 48/2/3 3/6/8
f 3/6/8 48/2/3 37/5/6
f 39/9/9 48/2/3 2/8/10
f 2/8/10 48/2/3 38/7/7
f 42/13/11 40/10/12 39/9/9
f 39/9/9 40/10/12 48/2/3
f 40/10/12 35/1/1 48/2/3
f 2/28/10 42/38/11 39/25/9
f 38/33/7 49/39/13 2/28/10
f 2/28/10 49/39/13 42/38/11
f 38/33/7 3/35/8 49/39/13
f 49/39/13 3/35/8 45/43/14
f 49/14/13 45/18/14 43/16/15
f 43/16/15 45/18/14 5/15/16
f 49/14/13 43/16/15 42/13/11
f 42/13/11 43/16/15 4/12/17
f 3/35/8 37/41/6 45/43/14
f 37/5/6 1/4/5 45/18/14
f 45/18/14 1/4/5 44/17/18
f 42/13/11 47/21/19 41/11/20
f 41/11/20 47/21/19 6/22/21
f 4/12/17 46/19/22 42/13/11
f 42/13/11 46/19/22 47/21/19
f 47/21/19 46/19/22 7/20/23
f 20/88/24 50/89/25 16/52/26
f 16/52/26 50/89/25 21/90/27
f 20/88/24 17/91/28 50/89/25
f 50/89/25 17/91/28 22/92/29
f 22/92/29 18/93/30 50/89/25
f 50/89/25 18/93/30 23/94/31
f 21/90/27 50/89/25 19/95/32
f 19/95/32 50/89/25 23/94/31
f 5/15/16 45/18/14 24/23/33
f 45/18/14 44/17/18 25/24/34
f 45/18/14 25/24/34 26/26/35
f 45/18/14 26/26/35 24/23/33
f 24/23/33 26/26/35 8/27/36
f 6/22/21 47/21/19 9/30/37
f 9/30/37 47/21/19 27/29/38
f 7/20/23 28/31/39 47/21/19
f 47/21/19 28/31/39 26/26/35
f 8/27/36 26/26/35 28/31/39
f 26/26/35 10/32/40 27/29/38
f 47/21/19 26/26/35 27/29/38
f 25/24/34 11/34/41 26/26/35
f 26/26/35 11/34/41 10/32/40
f 12/40/42 51/37/43 14/36/44
f 12/40/42 9/30/37 51/37/43
f 9/30/37 27/29/38 51/37/43
f 10/32/40 51/37/43 27/29/38
f 10/32/40 11/34/41 51/37/43
f 13/42/45 51/37/43 11/34/41
f 13/42/45 14/36/44 51/37/43
f 14/36/44 52/44/46 12/40/42
f 14/36/44 13/42/45 52/44/46
f 29/45/47 52/44/46 13/42/45
f 29/45/47 36/3/4 52/44/46
f 15/46/2 52/44/46 36/3/4
f 30/47/48 52/44/46 15/46/2
f 30/47/48 12/40/42 52/44/46
f 13/42/45 11/34/41 53/48/49
f 11/34/41 25/24/34 53/48/49
f 25/24/34 44/17/18 53/48/49
f 44/17/18 1/4/5 53/48/49
f 36/3/4 53/48/49 1/4/5
f 36/3/4 29/45/47 53/48/49
f 29/45/47 13/42/45 53/48/49
f 40/10/12 54/49/50 35/1/1
f 42/13/11 41/11/20 40/10/12
f 40/10/12 41/11/20 54/49/50
f 41/11/20 6/22/21 54/49/50
f 6/22/21 9/30/37 54/49/50
f 12/40/42 54/49/50 9/30/37
f 12/40/42 30/47/48 54/49/50
f 30/47/48 15/46/2 54/49/50
f 15/46/2 35/1/1 54/49/50
f 4/65/17 43/66/15 31/83/51
f 31/83/51 43/66/15 55/82/52
f 5/79/16 32/73/53 43/80/15
f 43/80/15 32/73/53 55/77/52
f 32/74/53 17/60/28 55/69/52
f 55/69/52 17/60/28 20/51/24
f 31/70/51 55/69/52 16/50/26
f 16/50/26 55/69/52 20/51/24
f 5/79/16 24/76/33 32/73/53
f 32/73/53 24/76/33 56/72/54
f 8/75/36 33/68/55 24/76/33
f 24/76/33 33/68/55 56/72/54
f 56/78/54 33/81/55 22/61/29
f 22/61/29 33/81/55 18/62/30
f 56/78/54 22/61/29 32/74/53
f 32/74/53 22/61/29 17/60/28
f 8/75/36 28/71/39 33/68/55
f 33/68/55 28/71/39 57/67/56
f 7/198/23 34/199/57 28/86/39
f 28/86/39 34/199/57 57/200/56
f 34/84/57 19/64/32 57/85/56
f 57/85/56 19/64/32 23/63/31
f 33/81/55 57/85/56 18/62/30
f 18/62/30 57/85/56 23/63/31
f 7/198/23 46/201/22 34/199/57
f 34/199/57 46/201/22 58/202/58
f 4/65/17 31/83/51 46/201/22
f 46/201/22 31/83/51 58/202/58
f 58/87/58 31/70/51 21/53/27
f 21/53/27 31/70/51 16/50/26
f 58/87/58 21/53/27 34/84/57
f 34/84/57 21/53/27 19/64/32
s 9
f 59/98/59 97/99/60 96/96/61
f 96/96/61 97/99/60 109/97/62
f 98/101/63 109/97/62 97/99/60
f 94/105/64 99/106/65 98/101/63
f 98/101/63 99/106/65 109/97/62
f 99/106/65 60/110/66 109/97/62
f 64/111/67 63/108/68 60/110/66
f 60/110/66 63/108/68 109/97/62
f 100/103/69 109/97/62 63/108/68
f 62/102/70 61/100/71 100/103/69
f 100/103/69 61/100/71 109/97/62
f 61/100/71 96/96/61 109/97/62
f 100/103/69 102/107/72 62/102/70
f 62/102/70 102/107/72 101/104/73
f 101/118/73 102/115/72 65/119/74
f 100/103/69 103/109/75 102/107/72
f 100/103/69 63/108/68 103/109/75
f 103/109/75 63/108/68 105/112/76
f 103/116/75 105/124/76 67/120/77
f 102/115/72 103/116/75 66/114/78
f 63/108/68 64/111/67 105/112/76
f 105/112/76 64/111/67 104/113/79
f 105/124/76 104/128/79 68/129/80
f 102/115/72 108/122/81 65/119/74
f 65/119/74 108/122/81 106/123/82
f 66/114/78 107/117/83 102/115/72
f 102/115/72 107/117/83 108/122/81
f 108/122/81 107/117/83 70/121/84
f 106/123/82 108/122/81 69/127/85
f 78/125/86 80/137/87 79/126/88
f 79/126/88 80/137/87 114/132/89
f 67/120/77 105/124/76 81/130/90
f 81/130/90 105/124/76 83/135/91
f 105/124/76 68/129/80 83/135/91
f 83/135/91 68/129/80 82/134/92
f 82/134/92 72/138/93 83/135/91
f 81/130/90 83/135/91 71/136/94
f 69/127/85 108/122/81 84/133/95
f 84/148/95 108/149/81 73/145/96
f 73/145/96 108/149/81 85/146/97
f 70/121/84 86/131/98 108/122/81
f 71/136/94 83/135/91 86/131/98
f 83/55/91 74/56/99 86/57/98
f 86/57/98 74/56/99 85/58/97
f 108/59/81 86/57/98 85/58/97
f 72/138/93 87/139/100 83/135/91
f 87/154/100 75/151/101 83/153/91
f 83/153/91 75/151/101 74/152/99
f 88/142/102 110/141/103 76/143/104
f 88/142/102 89/140/105 110/141/103
f 89/140/105 90/144/106 110/141/103
f 73/145/96 85/146/97 90/144/106
f 90/144/106 85/146/97 110/141/103
f 74/56/99 110/54/103 85/58/97
f 75/151/101 91/150/107 74/152/99
f 74/152/99 91/150/107 110/141/103
f 92/147/108 110/141/103 91/150/107
f 92/147/108 76/143/104 110/141/103
f 76/155/104 111/156/109 88/157/102
f 92/160/108 93/161/110 76/155/104
f 76/155/104 93/161/110 111/156/109
f 93/161/110 94/165/64 111/156/109
f 94/165/64 98/168/63 111/156/109
f 98/168/63 97/167/60 111/156/109
f 59/166/59 77/162/111 97/167/60
f 97/167/60 77/162/111 111/156/109
f 77/162/111 95/159/112 111/156/109
f 89/158/105 88/157/102 95/159/112
f 95/159/112 88/157/102 111/156/109
f 92/171/108 91/172/107 112/170/113
f 75/174/101 87/175/100 91/172/107
f 91/172/107 87/175/100 112/170/113
f 82/177/92 112/170/113 72/176/93
f 72/176/93 112/170/113 87/175/100
f 104/179/79 112/170/113 68/178/80
f 68/178/80 112/170/113 82/177/92
f 64/180/67 60/181/66 104/179/79
f 104/179/79 60/181/66 112/170/113
f 99/182/65 112/170/113 60/181/66
f 99/169/65 94/165/64 112/164/113
f 93/161/110 112/164/113 94/165/64
f 93/173/110 92/171/108 112/170/113
f 61/185/71 113/183/114 96/184/61
f 62/188/70 101/189/73 61/185/71
f 61/185/71 101/189/73 113/183/114
f 106/191/82 113/183/114 65/190/74
f 65/190/74 113/183/114 101/189/73
f 84/193/95 113/183/114 69/192/85
f 69/192/85 113/183/114 106/191/82
f 73/194/96 90/195/106 84/193/95
f 84/193/95 90/195/106 113/183/114
f 89/196/105 113/183/114 90/195/106
f 89/196/105 95/197/112 113/183/114
f 77/162/111 113/163/114 95/159/112
f 59/186/59 96/184/61 77/187/111
f 77/187/111 96/184/61 113/183/114
f 67/120/77 78/125/86 103/116/75
f 66/114/78 103/116/75 78/125/86
f 81/130/90 71/136/94 80/137/87
f 80/137/87 71/136/94 114/132/89
f 81/130/90 80/137/87 67/120/77
f 67/120/77 80/137/87 78/125/86
f 71/136/94 86/131/98 114/132/89
f 86/131/98 70/121/84 114/132/89
f 107/117/83 66/114/78 79/126/88
f 79/126/88 66/114/78 78/125/86
f 107/117/83 79/126/88 70/121/84
f 70/121/84 79/126/88 114/132/89
