# This file uses centimeters as units for non-parametric coordinates.

mtllib wall.mtl
g default
v -1.500000 -1.500000 1.500000
v 1.500000 -1.500000 1.500000
v -1.500000 1.500000 1.500000
v 1.500000 1.500000 1.500000
v -1.500000 1.500000 -1.500000
v 1.500000 1.500000 -1.500000
v -1.500000 -1.500000 -1.500000
v 1.500000 -1.500000 -1.500000
vt 0.375000 0.000000
vt 0.625000 0.000000
vt 0.375000 0.250000
vt 0.625000 0.250000
vt 0.375000 0.500000
vt 0.625000 0.500000
vt 0.375000 0.750000
vt 0.625000 0.750000
vt 0.375000 1.000000
vt 0.625000 1.000000
vt 0.875000 0.000000
vt 0.875000 0.250000
vt 0.125000 0.000000
vt 0.125000 0.250000
vn 0.000000 0.000000 1.000000
vn 0.000000 0.000000 1.000000
vn 0.000000 0.000000 1.000000
vn 0.000000 0.000000 1.000000
vn 0.000000 1.000000 0.000000
vn 0.000000 1.000000 0.000000
vn 0.000000 1.000000 0.000000
vn 0.000000 1.000000 0.000000
vn 0.000000 0.000000 -1.000000
vn 0.000000 0.000000 -1.000000
vn 0.000000 0.000000 -1.000000
vn 0.000000 0.000000 -1.000000
vn 0.000000 -1.000000 0.000000
vn 0.000000 -1.000000 0.000000
vn 0.000000 -1.000000 0.000000
vn 0.000000 -1.000000 0.000000
vn 1.000000 0.000000 0.000000
vn 1.000000 0.000000 0.000000
vn 1.000000 0.000000 0.000000
vn 1.000000 0.000000 0.000000
vn -1.000000 0.000000 0.000000
vn -1.000000 0.000000 0.000000
vn -1.000000 0.000000 0.000000
vn -1.000000 0.000000 0.000000
s off
g wall:pCube1 group
usemtl initialShadingGroup
f 3/3/1 1/1/2 2/2/3 4/4/4
f 3/3/5 4/4/6 6/6/7 5/5/8
f 7/7/9 5/5/10 6/6/11 8/8/12
f 1/9/13 7/7/14 8/8/15 2/10/16
f 4/4/17 2/2/18 8/11/19 6/12/20
f 1/1/21 3/3/22 5/14/23 7/13/24
