# This file uses centimeters as units for non-parametric coordinates.

mtllib warden_head.mtl
g default1
v -0.580376 -0.380217 -0.030486
v 0.594975 -0.380217 -0.030486
v -0.580376 0.402190 -0.030486
v 0.594975 0.402190 -0.030486
v -0.580376 0.402190 -0.696734
v 0.594975 0.402190 -0.696734
v -0.580376 -0.380217 -0.696734
v 0.594975 -0.380217 -0.696734
vt 0.317588 0.360325
vt 0.713016 0.371719
vt 0.721272 0.617643
vt 0.683502 0.518847
vt 0.933502 0.768847
vt 0.683502 0.768847
vt 0.618816 0.699835
vt 0.368816 0.699835
vt 0.618816 0.753574
vt 0.368816 0.753574
vt 0.971272 0.367644
vt 0.971272 0.617643
vt 0.067588 0.360325
vt 0.067588 0.610325
vt 0.288561 0.621719
vt 0.317588 0.610325
vt 0.288561 0.371719
vt 0.713016 0.621719
vt 0.933502 0.518847
vt 0.721272 0.367644
vn 0.000000 0.000000 1.000000
vn 0.000000 0.000000 1.000000
vn 0.000000 0.000000 1.000000
vn 0.000000 0.000000 1.000000
vn 0.000000 1.000000 0.000000
vn 0.000000 1.000000 0.000000
vn 0.000000 1.000000 0.000000
vn 0.000000 1.000000 0.000000
vn 0.000000 0.000000 -1.000000
vn 0.000000 0.000000 -1.000000
vn 0.000000 0.000000 -1.000000
vn 0.000000 0.000000 -1.000000
vn 0.000000 -1.000000 0.000000
vn 0.000000 -1.000000 0.000000
vn 0.000000 -1.000000 0.000000
vn 0.000000 -1.000000 0.000000
vn 1.000000 0.000000 0.000000
vn 1.000000 0.000000 0.000000
vn 1.000000 0.000000 0.000000
vn 1.000000 0.000000 0.000000
vn -1.000000 0.000000 0.000000
vn -1.000000 0.000000 0.000000
vn -1.000000 0.000000 0.000000
vn -1.000000 0.000000 0.000000
s off
g initialShadingGroup1 pCube9 polySurface1
usemtl lambert2SG
f 1/17/1 2/2/2 4/18/3 3/15/4
f 3/4/5 4/19/6 6/5/7 5/6/8
f 5/6/9 6/5/10 8/7/11 7/8/12
f 7/8/13 8/7/14 2/9/15 1/10/16
f 2/20/17 8/11/18 6/12/19 4/3/20
f 7/13/21 1/1/22 3/16/23 5/14/24
