# This file uses centimeters as units for non-parametric coordinates.

mtllib warden_head.mtl
g default1
v -0.464477 2.901778 -0.030486
v 0.210126 2.901778 -0.030486
v -0.464477 3.684184 -0.030486
v 0.210126 3.684184 -0.030486
v -0.464477 3.684184 -0.696734
v 0.210126 3.684184 -0.696734
v -0.464477 2.901778 -0.696734
v 0.210126 2.901778 -0.696734
vt 0.375000 0.000000
vt 0.685909 0.380431
vt 0.685909 0.630431
vt 0.696519 0.348852
vt 0.946519 0.598852
vt 0.726557 0.401521
vt 0.976557 0.651521
vt 0.722646 0.471606
vt 0.972646 0.721606
vt 0.722646 0.721606
vt 0.935909 0.380431
vt 0.935909 0.630431
vt 0.125000 0.000000
vt 0.125000 0.250000
vt 0.316667 0.314682
vt 0.681535 0.314682
vt 0.681535 0.674955
vt 0.316667 0.674955
vt 0.976557 0.401521
vt 0.696519 0.598852
vt 0.946519 0.348852
vt 0.375000 0.250000
vt 0.972646 0.471606
vt 0.726557 0.651521
vn 0.000000 0.000000 1.000000
vn 0.000000 0.000000 1.000000
vn 0.000000 0.000000 1.000000
vn 0.000000 0.000000 1.000000
vn 0.000000 1.000000 0.000000
vn 0.000000 1.000000 0.000000
vn 0.000000 1.000000 0.000000
vn 0.000000 1.000000 0.000000
vn 0.000000 0.000000 -1.000000
vn 0.000000 0.000000 -1.000000
vn 0.000000 0.000000 -1.000000
vn 0.000000 0.000000 -1.000000
vn 0.000000 -1.000000 0.000000
vn 0.000000 -1.000000 0.000000
vn 0.000000 -1.000000 0.000000
vn 0.000000 -1.000000 0.000000
vn 1.000000 0.000000 0.000000
vn 1.000000 0.000000 0.000000
vn 1.000000 0.000000 0.000000
vn 1.000000 0.000000 0.000000
vn -1.000000 0.000000 0.000000
vn -1.000000 0.000000 0.000000
vn -1.000000 0.000000 0.000000
vn -1.000000 0.000000 0.000000
s off
g initialShadingGroup1 pCube9 polySurface1
usemtl lambert2SG
f 1/15/1 2/16/2 4/17/3 3/18/4
f 3/4/5 4/21/6 6/5/7 5/20/8
f 5/6/9 6/19/10 8/7/11 7/24/12
f 7/8/13 8/23/14 2/9/15 1/10/16
f 2/2/17 8/11/18 6/12/19 4/3/20
f 7/13/21 1/1/22 3/22/23 5/14/24
