# This file uses centimeters as units for non-parametric coordinates.

mtllib warden_leg.mtl
g default1
v -0.373833 -1.772166 0.982737
v 0.394019 -1.772166 0.982737
v -0.305752 -1.452664 0.211176
v 0.325938 -1.452664 0.211176
v -0.305752 -1.452664 -0.533846
v 0.325938 -1.452664 -0.533846
v -0.373833 -1.772166 -0.621732
v 0.394019 -1.772166 -0.621732
v -0.305752 -1.452664 0.211176
v 0.325937 -1.452664 0.211176
v 0.325937 -1.452664 -0.533846
v -0.305752 -1.452664 -0.533846
v -0.305752 -0.483861 0.390620
v 0.325938 -0.483861 0.390620
v 0.325938 -0.483861 -0.354403
v -0.305752 -0.483861 -0.354403
v -0.305750 0.361267 -0.091099
v 0.325936 0.360152 -0.091099
v 0.325936 0.360152 -0.836118
v -0.305750 0.361267 -0.836118
vt 0.150577 0.465447
vt 0.150577 0.600619
vt 0.150577 0.465447
vt 0.150577 0.600619
vt 0.061652 0.838736
vt 0.256253 0.838736
vt 0.238999 0.951431
vt 0.078906 0.951431
vt 0.613505 0.857974
vt 0.773596 0.857974
vt 0.773596 0.877385
vt 0.613505 0.877385
vt 0.128363 0.905175
vt 0.128363 0.886722
vt 0.209337 0.884733
vt 0.209337 0.907164
vt 0.063887 0.845584
vt 0.258488 0.845584
vt 0.258488 0.968459
vt 0.063887 0.968459
vt 0.148347 0.957613
vt 0.148347 0.860073
vt 0.229320 0.865415
vt 0.229320 0.910707
vt 0.061238 0.882510
vt 0.061238 0.870052
vt 0.142212 0.876043
vt 0.142212 0.881828
vt 0.162847 0.625540
vt 0.162847 0.465447
vt 0.162847 0.465447
vt 0.162847 0.625540
vt 0.335210 0.465447
vt 0.335210 0.654262
vt 0.335210 0.654262
vt 0.335210 0.465447
vt 0.156712 0.465447
vt 0.156712 0.625540
vt 0.156712 0.625540
vt 0.156712 0.465447
vt 0.001992 0.840543
vt 0.162085 0.840543
vt 0.165716 0.884974
vt 0.005623 0.842539
vt 0.165715 0.878312
vt 0.005624 0.878320
vt 0.700564 0.875779
vt 0.889379 0.875779
vt 0.836002 0.925497
vt 0.691890 0.900295
vt 0.929181 0.908958
vt 0.785070 0.908958
vt 0.778210 0.909810
vt 0.761752 0.909810
vt 0.728294 0.905986
vt 0.800675 0.851443
vt 0.705013 0.845438
vt 0.733441 0.845446
vt 0.728615 0.923543
vt 0.750379 0.923543
vt 0.663515 0.858872
vt 0.660464 0.858872
vt 0.653300 0.913645
vt 0.626830 0.913645
vt 0.772247 0.851443
vt 0.744752 0.905986
vt 0.165716 0.842539
vt 0.005623 0.884974
vt 0.836002 0.900295
vt 0.691890 0.925497
vn 0.000000 0.923917 0.382593
vn 0.000000 0.923917 0.382593
vn 0.000000 0.923917 0.382593
vn 0.000000 0.923917 0.382593
vn 0.001765 0.999998 0.000000
vn 0.001765 0.999998 0.000000
vn 0.001765 0.999998 0.000000
vn 0.001765 0.999998 0.000000
vn 0.000000 0.265220 -0.964188
vn 0.000000 0.265220 -0.964188
vn 0.000000 0.265220 -0.964188
vn 0.000000 0.265220 -0.964188
vn 0.000000 -1.000000 0.000000
vn 0.000000 -1.000000 0.000000
vn 0.000000 -1.000000 0.000000
vn 0.000000 -1.000000 0.000000
vn 0.978043 0.208405 0.000000
vn 0.978043 0.208405 0.000000
vn 0.978043 0.208405 0.000000
vn 0.978043 0.208405 0.000000
vn -0.978043 0.208405 0.000000
vn -0.978043 0.208405 0.000000
vn -0.978043 0.208405 0.000000
vn -0.978043 0.208405 0.000000
vn 0.000000 0.000000 0.000000
vn 0.000000 0.000000 0.000000
vn 0.000000 0.000000 0.000000
vn 0.000000 0.000000 0.000000
vn 0.000000 1.000000 0.000000
vn 0.000000 1.000000 0.000000
vn 0.000000 1.000000 0.000000
vn 0.000000 1.000000 0.000000
vn 0.000000 0.999953 -0.009733
vn 0.000000 0.999953 -0.009733
vn 0.000000 0.999953 -0.009733
vn 0.000000 0.999953 -0.009733
vn 0.000000 1.000000 0.000000
vn 0.000000 1.000000 0.000000
vn 0.000000 1.000000 0.000000
vn 0.000000 1.000000 0.000000
vn 0.000000 -0.182124 0.983276
vn 0.000000 -0.182124 0.983276
vn 0.000231 0.164423 0.986390
vn 0.000231 0.164423 0.986390
vn 1.000000 -0.000000 0.000000
vn 1.000000 -0.000000 0.000000
vn 1.000000 0.000000 0.000000
vn 1.000000 0.000000 0.000000
vn 0.000000 0.182124 -0.983276
vn 0.000000 0.182124 -0.983276
vn -0.000231 -0.164422 -0.986390
vn -0.000231 -0.164422 -0.986390
vn -1.000000 0.000000 0.000000
vn -1.000000 0.000000 0.000000
vn -1.000000 0.000000 -0.000000
vn -1.000000 0.000002 -0.000000
vn 0.000231 0.164423 0.986390
vn 0.000231 0.164423 0.986390
vn 0.000438 0.495447 0.868638
vn 0.000438 0.495447 0.868638
vn 1.000000 0.000000 0.000000
vn 1.000000 0.000000 0.000000
vn 1.000000 0.000002 0.000000
vn 1.000000 0.000002 0.000000
vn -0.000231 -0.164422 -0.986390
vn -0.000231 -0.164422 -0.986390
vn -0.000438 -0.495443 -0.868640
vn -0.000438 -0.495443 -0.868640
vn -1.000000 0.000002 -0.000000
vn -1.000000 0.000000 -0.000000
vn -1.000000 0.000002 -0.000000
vn -1.000000 0.000002 -0.000000
s off
g initialShadingGroup1 initialShadingGroup2 pCube8 polySurface2 polySurface1
usemtl lambert2SG
f 1/5/1 2/6/2 4/7/3 3/8/4
f 17/9/5 18/10/6 19/11/7 20/12/8
f 5/13/9 6/14/10 8/15/11 7/16/12
f 7/17/13 8/18/14 2/19/15 1/20/16
f 2/21/17 8/22/18 6/23/19 4/24/20
f 7/25/21 1/26/22 3/27/23 5/28/24
f 3/29/25 4/30/26 10/31/27 9/32/28
f 4/33/29 6/34/30 11/35/31 10/36/32
f 6/37/33 5/38/34 12/39/35 11/40/36
f 5/2/37 3/1/38 9/3/39 12/4/40
f 9/41/41 10/42/42 14/43/43 13/68/44
f 10/47/45 11/48/46 15/49/47 14/70/48
f 11/53/49 12/54/50 16/55/51 15/66/52
f 12/59/53 9/60/54 13/61/55 16/62/56
f 13/44/57 14/67/58 18/45/59 17/46/60
f 14/50/61 15/69/62 19/51/63 18/52/64
f 15/56/65 16/65/66 20/57/67 19/58/68
f 16/62/69 13/61/70 17/63/71 20/64/72
