# This file uses centimeters as units for non-parametric coordinates.

mtllib warden_arm.mtl
g default1
v -0.236353 -0.419071 0.330402
v 0.329181 -0.419071 0.330402
v -0.236353 0.469736 0.009518
v 0.329181 0.469736 0.009518
v -0.236353 0.334366 -0.570531
v 0.329181 0.334366 -0.570531
v -0.236353 -0.554441 -0.171133
v 0.329181 -0.554441 -0.171133
v -0.235662 1.389200 0.135912
v 0.329851 1.386624 0.132598
v 0.328491 1.591755 -0.406584
v -0.237022 1.594331 -0.403270
v -0.233312 -0.786508 0.021598
v 0.332194 -0.788341 0.026811
v 0.326140 -1.005906 0.662685
v -0.239366 -1.001751 0.653543
vt 0.863297 0.890943
vt 0.639185 0.861209
vt 0.860938 0.859801
vt 0.863297 0.890495
vt 0.332322 0.900519
vt 0.368162 0.900205
vt 0.368076 0.925157
vt 0.332236 0.925470
vt 0.851501 0.892516
vt 0.860938 0.859489
vt 0.625000 0.750000
vt 0.375000 0.750000
vt 0.375000 0.750000
vt 0.625000 0.750000
vt 0.152697 0.521082
vt 0.168550 0.509313
vt 0.639185 0.857916
vt 0.639185 0.879539
vt 0.863297 0.887551
vt 0.863297 0.887999
vt 0.179168 0.506711
vt 0.168550 0.504986
vt 0.224487 0.518749
vt 0.141365 0.518749
vt 0.140922 0.481516
vt 0.224040 0.481251
vt 0.179168 0.512458
vt 0.178827 0.487541
vt 0.179506 0.496779
vt 0.239592 0.520730
vt 0.238662 0.478918
vt 0.151767 0.479716
vt 0.168655 0.497567
vt 0.168445 0.490687
vt 0.481708 0.917432
vt 0.513574 0.917432
vt 0.513574 0.879934
vt 0.481708 0.879934
vt 0.507012 0.875216
vt 0.493005 0.875216
vt 0.492988 0.903278
vt 0.506995 0.903221
vt 0.851501 0.894855
vt 0.851515 0.910743
vt 0.851488 0.914287
vt 0.624611 0.934193
vt 0.658478 0.934193
vt 0.658478 0.952819
vt 0.624611 0.952819
vt 0.738640 0.863420
vt 0.752031 0.863420
vt 0.752047 0.891404
vt 0.738656 0.891483
vt 0.639185 0.882833
vt 0.860921 0.862387
vt 0.860955 0.861915
vn -0.001505 0.409882 0.912137
vn -0.001496 0.409882 0.912137
vn 0.001317 0.150228 0.988651
vn 0.001316 0.150324 0.988636
vn 0.006341 0.934631 0.355562
vn 0.006341 0.934631 0.355562
vn 0.006341 0.934631 0.355562
vn 0.006341 0.934631 0.355562
vn -0.001533 -0.108199 -0.994128
vn -0.001533 -0.108268 -0.994121
vn 0.001507 -0.409883 -0.912137
vn 0.001499 -0.409883 -0.912137
vn -0.000342 -0.973421 0.229022
vn -0.000342 -0.973421 0.229022
vn -0.000342 -0.973421 0.229022
vn -0.000342 -0.973421 0.229022
vn 0.999999 0.000673 0.001498
vn 0.999999 0.000666 0.001482
vn 1.000000 0.000057 -0.000403
vn 1.000000 0.000105 -0.000750
vn -0.999999 -0.000673 -0.001497
vn -0.999999 -0.000666 -0.001482
vn -1.000000 -0.000096 0.000752
vn -1.000000 -0.000051 0.000403
vn 0.001316 0.150324 0.988636
vn 0.001317 0.150228 0.988651
vn 0.002597 -0.134618 0.990894
vn 0.002597 -0.134618 0.990894
vn 1.000000 0.000105 -0.000750
vn 1.000000 0.000057 -0.000403
vn 0.999999 0.000169 -0.001204
vn 0.999999 0.000169 -0.001204
vn -0.001533 -0.108268 -0.994121
vn -0.001533 -0.108199 -0.994128
vn -0.002607 0.130444 -0.991452
vn -0.002607 0.130444 -0.991452
vn -1.000000 -0.000051 0.000403
vn -1.000000 -0.000096 0.000752
vn -0.999999 -0.000153 0.001205
vn -0.999999 -0.000153 0.001205
vn 0.001499 -0.409883 -0.912137
vn 0.001507 -0.409883 -0.912137
vn 0.004760 -0.409879 -0.912127
vn 0.004760 -0.409879 -0.912127
vn 0.999999 0.000666 0.001482
vn 0.999999 0.000673 0.001498
vn 0.999987 0.002123 0.004723
vn 0.999987 0.002123 0.004723
vn -0.001496 0.409882 0.912137
vn -0.001505 0.409882 0.912137
vn -0.004761 0.409877 0.912129
vn -0.004761 0.409877 0.912129
vn -0.999999 -0.000666 -0.001482
vn -0.999999 -0.000673 -0.001497
vn -0.999987 -0.002123 -0.004723
vn -0.999987 -0.002123 -0.004723
s off
g initialShadingGroup initialShadingGroup1 pCube7 polySurface2 polySurface1
f 1/46/1 2/47/2 4/48/3 3/49/4
f 9/5/5 10/6/6 11/7/7 12/8/8
f 5/35/9 6/36/10 8/37/11 7/38/12
f 13/15/13 14/30/14 15/31/15 16/32/16
f 2/2/17 8/17/18 6/18/19 4/54/20
f 7/1/21 1/4/22 3/19/23 5/20/24
f 3/50/25 4/51/26 10/52/27 9/53/28
f 4/3/29 6/10/30 11/55/31 10/56/32
f 6/39/33 5/40/34 12/41/35 11/42/36
f 5/9/37 3/43/38 9/44/39 12/45/40
f 7/12/41 8/11/42 14/14/43 13/13/44
f 8/21/45 2/27/46 15/28/47 14/29/48
f 2/23/49 1/24/50 16/25/51 15/26/52
f 1/16/53 7/22/54 13/33/55 16/34/56
