# This file uses centimeters as units for non-parametric coordinates.

mtllib warden_body.mtl
g default1
v -0.988332 0.389526 0.076496
v 0.712368 0.389526 0.076496
v -0.988332 2.725371 0.076496
v 0.712368 2.725371 0.076496
v -0.988332 2.725371 -0.920962
v 0.712368 2.725371 -0.920962
v -0.988332 0.389526 -0.920962
v 0.712368 0.389526 -0.920962
v -0.405668 2.695675 -0.171148
v 0.133997 2.695675 -0.171148
v -0.405668 2.929041 -0.171148
v 0.133997 2.929041 -0.171148
v -0.405668 2.929041 -0.656734
v 0.133997 2.929041 -0.656734
v -0.405668 2.695675 -0.656734
v 0.133997 2.695675 -0.656734
vt 0.979207 0.159215
vt 0.927464 0.043630
vt 0.496583 0.224832
vt 0.979207 0.171442
vt 0.574117 0.224832
vt 0.574117 0.224832
vt 0.925757 0.066073
vt 0.939544 0.062021
vt 0.939544 0.062021
vt 0.925757 0.066073
vt 0.927464 0.043630
vt 0.927464 0.114932
vt 0.954518 0.159215
vt 0.954518 0.171442
vt 0.981712 0.158984
vt 0.977105 0.181795
vt 0.977105 0.181893
vt 0.981712 0.167825
vt 0.935412 0.260272
vt 0.985803 0.260272
vt 0.881472 0.165813
vt 0.631472 0.165813
vt 0.881472 0.415813
vt 0.631472 0.415813
vt 0.970930 0.165016
vt 0.970930 0.167775
vt 0.950638 0.175277
vt 0.950638 0.175277
vt 0.604117 0.015805
vt 0.840673 0.015805
vt 0.840673 0.312748
vt 0.604117 0.312748
vt 0.927464 0.114932
vt 0.581373 0.170319
vt 0.594126 0.170319
vt 0.594126 0.131790
vt 0.581373 0.131790
vt 0.496583 0.224832
vt 0.842935 0.632226
vt 0.951634 0.632226
vt 0.951634 0.632226
vt 0.842935 0.632226
vt 0.985803 0.205343
vt 0.935412 0.205343
vt 0.950638 0.302302
vt 0.950638 0.302302
vn 0.000000 0.000000 1.000000
vn 0.000000 0.000000 1.000000
vn 0.000000 0.000000 1.000000
vn 0.000000 0.000000 1.000000
vn 0.000000 1.000000 0.000000
vn 0.000000 1.000000 0.000000
vn 0.000000 1.000000 0.000000
vn 0.000000 1.000000 0.000000
vn 0.000000 0.000000 -1.000000
vn 0.000000 0.000000 -1.000000
vn 0.000000 0.000000 -1.000000
vn 0.000000 0.000000 -1.000000
vn 0.000000 -1.000000 0.000000
vn 0.000000 -1.000000 0.000000
vn 0.000000 -1.000000 0.000000
vn 0.000000 -1.000000 0.000000
vn 1.000000 0.000000 0.000000
vn 1.000000 0.000000 0.000000
vn 1.000000 0.000000 0.000000
vn 1.000000 0.000000 0.000000
vn -1.000000 0.000000 0.000000
vn -1.000000 0.000000 0.000000
vn -1.000000 0.000000 0.000000
vn -1.000000 0.000000 0.000000
vn 0.000000 0.000000 1.000000
vn 0.000000 0.000000 1.000000
vn 0.000000 0.000000 1.000000
vn 0.000000 0.000000 1.000000
vn 0.000000 1.000000 0.000000
vn 0.000000 1.000000 0.000000
vn 0.000000 1.000000 0.000000
vn 0.000000 1.000000 0.000000
vn 0.000000 0.000000 -1.000000
vn 0.000000 0.000000 -1.000000
vn 0.000000 0.000000 -1.000000
vn 0.000000 0.000000 -1.000000
vn 0.000000 -1.000000 0.000000
vn 0.000000 -1.000000 0.000000
vn 0.000000 -1.000000 0.000000
vn 0.000000 -1.000000 0.000000
vn 1.000000 0.000000 0.000000
vn 1.000000 0.000000 0.000000
vn 1.000000 0.000000 0.000000
vn 1.000000 0.000000 0.000000
vn -1.000000 0.000000 0.000000
vn -1.000000 0.000000 0.000000
vn -1.000000 0.000000 0.000000
vn -1.000000 0.000000 0.000000
s off
g initialShadingGroup1 initialShadingGroup2 pCube7 polySurface2 polySurface1
usemtl lambert2SG
f 1/29/1 2/30/2 4/31/3 3/32/4
f 3/3/5 4/5/6 6/6/7 5/38/8
f 5/34/9 6/35/10 8/36/11 7/37/12
f 7/7/13 8/8/14 2/9/15 1/10/16
f 2/2/17 8/11/18 6/12/19 4/33/20
f 7/13/21 1/1/22 3/4/23 5/14/24
g initialShadingGroup1 initialShadingGroup2 pCube8 polySurface2 polySurface1
f 9/15/25 10/16/26 12/17/27 11/18/28
f 11/39/29 12/40/30 14/41/31 13/42/32
f 13/19/33 14/20/34 16/43/35 15/44/36
f 15/22/37 16/21/38 10/23/39 9/24/40
f 10/16/41 16/25/42 14/26/43 12/17/44
f 15/27/45 9/28/46 11/45/47 13/46/48
